<?xml version="1.0" standalone="no"?>
<!DOCTYPE svg PUBLIC "-//W3C//DTD SVG 1.1//EN" "http://www.w3.org/Graphics/SVG/1.1/DTD/svg11.dtd" >
<svg xmlns="http://www.w3.org/2000/svg" xmlns:xlink="http://www.w3.org/1999/xlink" version="1.1">
<metadata>
Created by FontForge 20170731 at Wed Mar 27 12:49:09 2019
 By Aleksey,,,
Copyright (c) 2002, 2016-2019 Monotype Imaging Inc. All rights reserved.
</metadata>
<defs>
<font id="BritishCouncilSans-Headline" horiz-adv-x="0" >
  <font-face 
    font-family="British Council Sans Headline"
    font-weight="400"
    font-stretch="normal"
    units-per-em="1000"
    panose-1="2 11 5 4 2 2 2 2 2 4"
    ascent="800"
    descent="-200"
    x-height="568"
    cap-height="742"
    bbox="-746 -298 1230 1144"
    underline-thickness="20"
    underline-position="-176"
    unicode-range="U+000D-FEFF"
  />
<missing-glyph horiz-adv-x="535" 
d="M35 0q-35 0 -35 35v686q0 35 35 35h465q35 0 35 -35v-686q0 -35 -35 -35h-465zM86 94h363v568h-363v-568z" />
    <glyph glyph-name="f_i" unicode="fi" horiz-adv-x="643" 
d="M514 615q-35 0 -60 25t-25 60t25 60t60 25t60 -25t25 -60t-25 -60t-60 -25zM128 0q-35 0 -35 35v396h-53q-35 0 -35 35v60q0 35 35 35h53v14q0 95 49 138t160 43q24 0 50 -3q33 -3 33 -37v-43q0 -33 -28 -33q-6 0 -18 0.5t-19 0.5q-77 0 -77 -52v-28h78q35 0 35 -35v-60
q0 -35 -35 -35h-78v-396q0 -35 -35 -35h-80zM474 0q-35 0 -35 35v498q0 35 35 35h80q35 0 35 -35v-498q0 -35 -35 -35h-80z" />
    <glyph glyph-name="f_l" unicode="fl" horiz-adv-x="643" 
d="M128 0q-35 0 -35 35v396h-53q-35 0 -35 35v60q0 35 35 35h53v14q0 95 49 138t160 43q24 0 50 -3q33 -3 33 -37v-43q0 -33 -28 -33q-6 0 -18 0.5t-19 0.5q-77 0 -77 -52v-28h78q35 0 35 -35v-60q0 -35 -35 -35h-78v-396q0 -35 -35 -35h-80zM470 0q-35 0 -35 35v686
q0 35 35 35h80q35 0 35 -35v-686q0 -35 -35 -35h-80z" />
    <glyph glyph-name=".notdef" horiz-adv-x="535" 
d="M35 0q-35 0 -35 35v686q0 35 35 35h465q35 0 35 -35v-686q0 -35 -35 -35h-465zM86 94h363v568h-363v-568z" />
    <glyph glyph-name=".null" 
 />
    <glyph glyph-name="nonmarkingreturn" horiz-adv-x="333" 
 />
    <glyph glyph-name="NULL" 
 />
    <glyph glyph-name="NULL" 
 />
    <glyph glyph-name="CR" unicode="&#xd;" horiz-adv-x="291" 
 />
    <glyph glyph-name="space" unicode=" " horiz-adv-x="291" 
 />
    <glyph glyph-name="exclam" unicode="!" horiz-adv-x="335" 
d="M149 217q-34 0 -37 33l-39 470q-3 36 34 36h122q37 0 34 -36l-40 -470q-3 -33 -37 -33h-37zM168 -5q-35 0 -59.5 25t-24.5 60t24.5 60t59.5 25t60.5 -25t24.5 -60q1 -35 -24.5 -60t-60.5 -25z" />
    <glyph glyph-name="quotedbl" unicode="&#x22;" horiz-adv-x="418" 
d="M103 444q-32 0 -37 33l-28 228q-2 17 7 27t26 10h71q17 0 26 -10t7 -27l-28 -228q-5 -33 -37 -33h-7zM308 444q-32 0 -37 33l-28 228q-2 17 7 27t26 10h73q37 0 32 -37l-28 -228q-5 -33 -37 -33h-8z" />
    <glyph glyph-name="numbersign" unicode="#" horiz-adv-x="711" 
d="M659 493q31 0 31 -26q0 -4 -2 -14l-12 -40q-9 -29 -39 -29h-107l-34 -94h103q31 0 31 -27q0 -3 -2 -13l-11 -36q-9 -29 -39 -29h-119l-56 -157q-10 -28 -40 -28h-24q-32 0 -32 25q0 7 3 15l52 145h-113l-56 -157q-10 -28 -40 -28h-23q-32 0 -32 25q0 7 3 15l52 145h-100
q-31 0 -31 27q0 3 2 13l11 36q9 29 39 29h116l33 94h-112q-31 0 -31 25q0 4 2 14l12 40q9 30 39 30h129l56 157q10 28 40 28h23q32 0 32 -25q0 -7 -3 -15l-52 -145h113l56 157q10 28 40 28h24q32 0 32 -25q0 -7 -3 -15l-52 -145h91zM399 290l33 94h-112l-34 -94h113z" />
    <glyph glyph-name="dollar" unicode="$" horiz-adv-x="648" 
d="M308 -72q-35 0 -35 35v60q-107 11 -190 72q-15 12 -15 26q0 11 9 23l39 54q10 15 25 15q12 0 24 -9q76 -55 150 -55q111 0 111 61q0 27 -24 43.5t-85 39.5l-69 26q-87 33 -129.5 77t-42.5 122q0 85 54 136.5t143 64.5v40q0 35 35 35h34q35 0 35 -35v-41q91 -13 165 -62
q16 -10 16 -26q0 -9 -8 -22l-37 -53q-10 -16 -25 -16q-11 0 -23 9q-68 46 -134 46q-101 0 -101 -60q0 -17 13.5 -29.5t26.5 -18.5t50 -20l68 -26q101 -39 146.5 -84.5t45.5 -125.5q0 -85 -56.5 -136t-146.5 -67v-64q0 -35 -35 -35h-34z" />
    <glyph glyph-name="percent" unicode="%" horiz-adv-x="875" 
d="M209 390q-78 0 -125 50.5t-47 132.5q0 81 46 132t126 51q81 0 128 -50.5t47 -132.5t-48 -132.5t-127 -50.5zM268 3q-11 -19 -27 -19q-9 0 -20 6l-7 4q-20 11 -20 27q0 9 6 20l402 686q11 19 27 19q9 0 20 -6l7 -4q20 -11 20 -27q0 -9 -6 -20zM210 482q58 0 58 91
q0 92 -59 92q-56 0 -56 -92q0 -91 57 -91zM665 -14q-79 0 -126 50.5t-47 132.5t47 132.5t126 50.5t126 -50.5t47 -132.5t-47 -132.5t-126 -50.5zM665 78q57 0 57 91t-57 91t-57 -91t57 -91z" />
    <glyph glyph-name="ampersand" unicode="&#x26;" horiz-adv-x="740" 
d="M689 43q10 -11 10 -23q0 -20 -29 -20h-92q-26 0 -43 20l-22 26q-98 -60 -210 -60q-132 0 -196.5 60t-64.5 165q0 77 39.5 126t109.5 88q-38 45 -56 80t-18 79q0 75 52.5 123.5t148.5 48.5q89 0 145 -45t56 -122q0 -67 -34.5 -112t-95.5 -83l134 -157q29 29 56 66
q12 17 26 17q11 0 23 -12l54 -55q12 -13 12 -26q0 -11 -9 -23q-31 -40 -68 -77zM254 583q0 -21 10 -38t46 -58q71 42 71 89q0 28 -17.5 43t-46.5 15q-30 0 -46.5 -15t-16.5 -36zM312 121q51 0 109 33l-147 173q-76 -48 -76 -101q0 -41 29.5 -73t84.5 -32z" />
    <glyph glyph-name="quotesingle" unicode="'" horiz-adv-x="213" 
d="M103 444q-32 0 -37 33l-28 228q-2 17 7 27t26 10h71q17 0 26 -10t7 -27l-28 -228q-5 -33 -37 -33h-7z" />
    <glyph glyph-name="parenleft" unicode="(" horiz-adv-x="333" 
d="M282 -86q-13 -10 -25 -10t-24 9q-97 69 -149 176.5t-52 236.5t52 236.5t149 176.5q12 9 24 9t25 -10l13 -10q15 -12 15 -25q0 -11 -11 -24q-129 -137 -129 -353t129 -353q11 -13 11 -24q0 -13 -15 -25z" />
    <glyph glyph-name="parenright" unicode=")" horiz-adv-x="333" 
d="M100 -87q-12 -9 -24 -9t-25 10l-13 9q-15 12 -15 25q0 12 12 25q129 137 129 353t-129 353q-12 13 -12 25q0 13 15 25l13 9q13 10 25 10t24 -9q97 -70 149.5 -177.5t52.5 -235.5q0 -129 -52.5 -236t-149.5 -177z" />
    <glyph glyph-name="asterisk" unicode="*" horiz-adv-x="444" 
d="M170 397q-10 -19 -26 -19q-10 0 -22 9l-37 30q-15 13 -15 26q0 12 13 24l76 72l-105 14q-29 3 -29 28q0 3 2 13l15 52q8 25 28 25q8 0 18 -5l93 -50l-18 102q-1 3 -1 8q0 30 33 30h54q33 0 33 -30q0 -5 -1 -8l-18 -102l93 49q11 6 19 6q18 0 26 -25l15 -52q2 -10 2 -13
q0 -25 -29 -28l-105 -14l77 -72q13 -12 13 -24q0 -13 -15 -26l-38 -30q-12 -9 -22 -9q-16 0 -26 19l-52 94z" />
    <glyph glyph-name="plus" unicode="+" horiz-adv-x="600" 
d="M276 131q-35 0 -35 35v146h-146q-35 0 -35 35v47q0 35 35 35h146v146q0 35 35 35h47q35 0 35 -35v-146h146q35 0 35 -35v-47q0 -35 -35 -35h-146v-146q0 -35 -35 -35h-47z" />
    <glyph glyph-name="comma" unicode="," horiz-adv-x="274" 
d="M134 159q39 0 63.5 -29.5t24.5 -82.5q0 -65 -30.5 -127t-89.5 -97q-9 -6 -18 -6q-20 0 -28 24l-2 6q-3 9 -3 16q0 16 20 30q58 39 61 102q-33 2 -56.5 25.5t-23.5 57.5t23.5 57.5t58.5 23.5z" />
    <glyph glyph-name="hyphen" unicode="-" horiz-adv-x="324" 
d="M75 208q-35 0 -35 35v66q0 35 35 35h174q35 0 35 -35v-66q0 -35 -35 -35h-174z" />
    <glyph glyph-name="period" unicode="." horiz-adv-x="274" 
d="M137 -5q-35 0 -60 25t-25 60t25 60t60 25t60 -25t25 -60t-25 -60t-60 -25z" />
    <glyph glyph-name="slash" unicode="/" horiz-adv-x="437" 
d="M45 0q-30 0 -30 23q0 9 4 18l305 675q12 26 41 26h27q30 0 30 -23q0 -9 -4 -18l-305 -675q-12 -26 -41 -26h-27z" />
    <glyph glyph-name="zero" unicode="0" horiz-adv-x="647" 
d="M324 -14q-137 0 -210 107.5t-73 276.5q0 175 73.5 280t209.5 105t209.5 -107.5t73.5 -277.5q0 -169 -73.5 -276.5t-209.5 -107.5zM323 121q124 0 124 249q0 251 -123 251q-124 0 -124 -251q0 -249 123 -249z" />
    <glyph glyph-name="one" unicode="1" horiz-adv-x="647" 
d="M311 0q-35 0 -35 35v521q-30 -22 -101 -34q-17 -3 -27 6t-10 27v64q0 30 32 38q76 18 114 63q19 22 42 22h69q35 0 35 -35v-672q0 -35 -35 -35h-84z" />
    <glyph glyph-name="two" unicode="2" horiz-adv-x="647" 
d="M113 0q-35 0 -35 35v46q0 26 18 43l149 142q83 80 117.5 135.5t34.5 109.5q0 49 -33 80t-83 31q-61 0 -109 -50q-14 -14 -27 -14q-12 0 -23 10l-48 40q-14 12 -14 27q0 12 10 23q90 98 231 98q112 0 182.5 -66t70.5 -179q0 -137 -180 -303l-71 -66h251q35 0 35 -35v-72
q0 -35 -35 -35h-441z" />
    <glyph glyph-name="three" unicode="3" horiz-adv-x="647" 
d="M305 -14q-155 0 -241 91q-11 13 -11 25t13 25l46 45q12 12 24 12q11 0 26 -13q61 -57 133 -57q62 0 97 28t35 81q0 44 -39.5 71.5t-109.5 27.5h-25q-35 0 -35 35v54q0 35 35 35h25q60 0 92 26.5t32 67.5q0 38 -29 63t-84 25q-63 0 -111 -45q-15 -13 -26 -13q-12 0 -23 11
l-44 42q-13 13 -13 27q0 13 10 23q83 83 217 83q126 0 192.5 -57t66.5 -154q0 -49 -26.5 -90.5t-80.5 -65.5q61 -17 97.5 -66t36.5 -103q0 -110 -74 -172t-206 -62z" />
    <glyph glyph-name="four" unicode="4" horiz-adv-x="647" 
d="M408 0q-35 0 -35 35v110h-300q-35 0 -35 35v54q0 22 13 44l285 441q14 23 42 23h110q35 0 35 -35v-439h48q35 0 35 -35v-53q0 -35 -35 -35h-48v-110q0 -35 -35 -35h-80zM178 268h195v304z" />
    <glyph glyph-name="five" unicode="5" horiz-adv-x="647" 
d="M303 -14q-150 0 -238 93q-11 13 -11 25t13 25l45 44q11 11 23 11q13 0 26 -13q62 -57 132 -57q60 0 94 32.5t34 88.5q0 51 -37.5 81t-102.5 30h-150q-37 0 -32 37l41 326q5 33 37 33h330q35 0 35 -35v-68q0 -35 -35 -35h-255l-18 -129h74q122 0 196 -57t74 -172
q0 -116 -73 -188t-202 -72z" />
    <glyph glyph-name="six" unicode="6" horiz-adv-x="647" 
d="M380 483q104 0 162 -64.5t58 -169.5q0 -111 -68.5 -187t-191.5 -76q-94 0 -159 50.5t-94 132t-29 187.5q0 187 75 293.5t224 106.5q111 0 189 -74q12 -12 12 -24q0 -14 -14 -26l-49 -45q-13 -11 -23 -11q-12 0 -26 12q-42 34 -85 34q-63 0 -106 -56.5t-47 -146.5
q70 64 172 64zM340 114q52 0 82 38t30 91q0 51 -30 81.5t-81 30.5q-72 0 -119 -73q-1 -77 30 -122.5t88 -45.5z" />
    <glyph glyph-name="seven" unicode="7" horiz-adv-x="647" 
d="M207 0q-32 0 -32 25q0 4 4 16l228 560h-307q-35 0 -35 35v71q0 35 35 35h435q35 0 35 -35v-48q0 -22 -8 -43l-228 -588q-11 -28 -41 -28h-86z" />
    <glyph glyph-name="eight" unicode="8" horiz-adv-x="647" 
d="M325 -15q-133 0 -207.5 65.5t-74.5 166.5q0 62 36.5 110.5t88.5 64.5q-47 20 -73.5 63t-26.5 97q0 87 71 145.5t186 58.5q116 0 185 -58.5t69 -144.5q0 -55 -26 -98t-73 -63q52 -15 88 -64t36 -111q0 -101 -76 -166.5t-203 -65.5zM325 453q43 0 73 22t30 62
q0 41 -28.5 63t-74.5 22q-50 0 -77.5 -22t-27.5 -64q0 -40 30 -61.5t75 -21.5zM325 122q57 0 89.5 29t32.5 76q0 46 -34 73.5t-88 27.5q-58 0 -91 -27t-33 -74t34.5 -76t89.5 -29z" />
    <glyph glyph-name="nine" unicode="9" horiz-adv-x="647" 
d="M307 756q71 0 126 -29t89 -80t51 -117.5t17 -144.5q0 -187 -75.5 -293t-224.5 -106q-119 0 -190 62q-12 12 -12 24t11 25l41 48q12 14 25 14q9 0 24 -10q41 -29 98 -29q63 0 107 57t46 147q-70 -64 -172 -64q-104 0 -162.5 64t-58.5 168q0 111 68.5 187.5t191.5 76.5z
M306 387q38 0 69.5 23t49.5 58q-2 74 -32 117t-86 43q-51 0 -81 -38.5t-30 -91.5q0 -50 29.5 -80.5t80.5 -30.5z" />
    <glyph glyph-name="colon" unicode=":" horiz-adv-x="274" 
d="M137 373q-35 0 -60 25t-25 60t25 60t60 25t60 -25t25 -60t-25 -60t-60 -25zM137 -5q-35 0 -60 25t-25 60t25 60t60 25t60 -25t25 -60t-25 -60t-60 -25z" />
    <glyph glyph-name="semicolon" unicode=";" horiz-adv-x="274" 
d="M137 374q-35 0 -60 25t-25 60t25 60t60 25t60 -25t25 -60t-25 -60t-60 -25zM134 159q39 0 63.5 -29.5t24.5 -82.5q0 -65 -30.5 -127t-89.5 -97q-9 -6 -18 -6q-20 0 -28 24l-2 6q-3 9 -3 16q0 16 20 30q58 39 61 102q-33 2 -56.5 25.5t-23.5 57.5t23.5 57.5t58.5 23.5z
" />
    <glyph glyph-name="less" unicode="&#x3c;" horiz-adv-x="600" 
d="M536 145q0 -31 -23 -31q-6 0 -18 5l-404 190q-26 13 -26 41v42q0 28 26 41l404 189q12 5 18 5q23 0 23 -31v-50q0 -29 -26 -41l-303 -134l303 -134q26 -12 26 -41v-51z" />
    <glyph glyph-name="equal" unicode="=" horiz-adv-x="600" 
d="M97 406q-35 0 -35 35v38q0 35 35 35h406q35 0 35 -35v-38q0 -35 -35 -35h-406zM97 227q-35 0 -35 35v39q0 35 35 35h406q35 0 35 -35v-39q0 -35 -35 -35h-406z" />
    <glyph glyph-name="greater" unicode="&#x3e;" horiz-adv-x="600" 
d="M105 119q-12 -5 -18 -5q-23 0 -23 31v51q0 29 26 41l303 134l-303 134q-26 12 -26 41v50q0 31 23 31q6 0 18 -5l404 -189q26 -13 26 -41v-42q0 -28 -26 -41z" />
    <glyph glyph-name="question" unicode="?" horiz-adv-x="535" 
d="M228 208q-35 0 -35 35v18q0 41 12.5 71.5t44.5 64.5l43 41q51 51 51 103q0 33 -26.5 57t-74.5 24q-61 0 -109 -45q-14 -14 -26 -14t-23 10l-52 46q-14 12 -14 26q0 12 11 23q84 88 219 88q122 0 186.5 -61t64.5 -157q0 -107 -83 -190l-43 -42q-35 -38 -35 -64
q0 -34 -35 -34h-76zM265 -5q-35 0 -59.5 25t-24.5 60t24.5 60t59.5 25t60.5 -25t24.5 -60q1 -35 -24.5 -60t-60.5 -25z" />
    <glyph glyph-name="at" unicode="@" horiz-adv-x="944" 
d="M495 -120q-128 0 -229 45.5t-162.5 140t-61.5 224.5q0 196 128.5 311.5t324.5 115.5q82 0 154 -22t129 -63.5t90 -109.5t33 -153q0 -119 -64 -203.5t-180 -84.5q-40 0 -74.5 13t-45.5 39q-58 -51 -129 -51q-82 0 -125.5 48.5t-43.5 130.5q0 111 66 194.5t174 83.5
q60 0 93 -35q4 27 37 27h44q33 0 33 -30q0 -5 -1 -8l-41 -250q-5 -23 -5 -28v-7q2 -32 32 -32q70 0 109 58t39 131q0 135 -92.5 205t-235.5 70q-158 0 -262 -97.5t-104 -252.5q0 -160 107.5 -246.5t271.5 -86.5q101 0 198 51q10 6 20 6q16 0 28 -17l4 -6q8 -13 8 -23
q0 -16 -16 -25q-112 -63 -251 -63zM435 190q42 0 85 29l32 197q-32 16 -64 16q-38 0 -66 -30t-39.5 -66t-11.5 -68q0 -29 15.5 -53.5t48.5 -24.5z" />
    <glyph glyph-name="A" unicode="A" horiz-adv-x="694" 
d="M678 40q3 -8 3 -15q0 -25 -32 -25h-90q-30 0 -39 29l-40 122h-272l-39 -122q-9 -29 -39 -29h-85q-32 0 -32 25q0 7 3 15l240 674q10 28 40 28h100q30 0 40 -28zM251 285h184l-93 282z" />
    <glyph glyph-name="B" unicode="B" horiz-adv-x="674" 
d="M111 0q-35 0 -35 35v672q0 35 35 35h243q130 0 190.5 -47t60.5 -141q0 -116 -106 -165q60 -17 94.5 -63.5t34.5 -107.5q0 -218 -261 -218h-256zM227 449h122q49 0 75 25.5t26 58.5q0 34 -27 55.5t-85 21.5h-111v-161zM227 137h129q112 0 112 93q0 37 -28 62t-90 25h-123
v-180z" />
    <glyph glyph-name="C" unicode="C" horiz-adv-x="666" 
d="M387 -15q-164 0 -252 104t-88 281q0 176 92.5 281t242.5 105q137 0 229 -99q10 -10 10 -23q0 -15 -15 -27l-52 -44q-11 -10 -23 -10q-13 0 -26 13q-52 50 -123 50q-81 0 -128 -67.5t-47 -178.5q0 -112 47.5 -178.5t132.5 -66.5q75 0 133 63q14 14 26 14t23 -11l51 -50
q13 -13 13 -26t-12 -26q-91 -104 -234 -104z" />
    <glyph glyph-name="D" unicode="D" horiz-adv-x="727" 
d="M110 0q-35 0 -35 35v672q0 35 35 35h240q163 0 246.5 -98t83.5 -274q0 -166 -81 -268t-240 -102h-249zM232 141h91q94 0 145.5 51.5t51.5 176.5q0 127 -50.5 179.5t-155.5 52.5h-82v-460z" />
    <glyph glyph-name="E" unicode="E" horiz-adv-x="623" 
d="M110 0q-35 0 -35 35v672q0 35 35 35h407q35 0 35 -35v-64q0 -35 -35 -35h-285v-148h233q35 0 35 -35v-64q0 -35 -35 -35h-233v-188h298q35 0 35 -35v-68q0 -35 -35 -35h-420z" />
    <glyph glyph-name="F" unicode="F" horiz-adv-x="595" 
d="M110 0q-35 0 -35 35v672q0 35 35 35h412q35 0 35 -35v-64q0 -35 -35 -35h-290v-160h247q35 0 35 -35v-64q0 -35 -35 -35h-247v-279q0 -35 -35 -35h-87z" />
    <glyph glyph-name="G" unicode="G" horiz-adv-x="746" 
d="M368 -15q-152 0 -236.5 104.5t-84.5 280.5q0 175 96.5 280.5t250.5 105.5q145 0 236 -97q11 -11 11 -23q0 -14 -14 -26l-52 -45q-11 -10 -23 -10t-26 12q-52 49 -132 49q-84 0 -135.5 -68t-51.5 -178q0 -113 47 -179t138 -66q54 0 93.5 31.5t39.5 76.5v52h-120
q-35 0 -35 35v63q0 35 35 35h235q35 0 35 -35v-348q0 -35 -35 -35h-43q-34 0 -38 32l-5 35q-30 -38 -79 -60t-107 -22z" />
    <glyph glyph-name="H" unicode="H" horiz-adv-x="724" 
d="M110 0q-35 0 -35 35v672q0 35 35 35h87q35 0 35 -35v-243h260v243q0 35 35 35h86q35 0 35 -35v-672q0 -35 -35 -35h-86q-35 0 -35 35v287h-260v-287q0 -35 -35 -35h-87z" />
    <glyph glyph-name="I" unicode="I" horiz-adv-x="316" 
d="M115 0q-35 0 -35 35v672q0 35 35 35h87q35 0 35 -35v-672q0 -35 -35 -35h-87z" />
    <glyph glyph-name="J" unicode="J" horiz-adv-x="554" 
d="M248 -14q-150 0 -224 99q-8 11 -8 21q0 15 15 28l53 45q10 9 21 9q14 0 28 -15q38 -42 94 -42q43 0 71.5 24t28.5 78v474q0 35 35 35h87q35 0 35 -35v-490q0 -119 -65.5 -175t-170.5 -56z" />
    <glyph glyph-name="K" unicode="K" horiz-adv-x="695" 
d="M668 42q7 -11 7 -20q0 -22 -30 -22h-110q-27 0 -42 23l-194 290l-67 -78v-200q0 -35 -35 -35h-87q-35 0 -35 35v672q0 35 35 35h87q35 0 35 -35v-262l237 277q17 20 43 20h100q30 0 30 -20q0 -12 -10 -23l-228 -264z" />
    <glyph glyph-name="L" unicode="L" horiz-adv-x="565" 
d="M110 0q-35 0 -35 35v672q0 35 35 35h87q35 0 35 -35v-564h282q35 0 35 -35v-73q0 -35 -35 -35h-404z" />
    <glyph glyph-name="M" unicode="M" horiz-adv-x="836" 
d="M110 0q-35 0 -35 35v672q0 35 35 35h90q29 0 40 -27l178 -418l182 418q11 27 41 27h85q35 0 35 -35v-672q0 -35 -35 -35h-76q-35 0 -35 35v407l-138 -317q-11 -27 -41 -27h-41q-29 0 -40 27l-131 310v-400q0 -35 -35 -35h-79z" />
    <glyph glyph-name="N" unicode="N" horiz-adv-x="724" 
d="M110 0q-35 0 -35 35v672q0 35 35 35h78q28 0 42 -23l273 -430v418q0 35 35 35h75q35 0 35 -35v-672q0 -35 -35 -35h-78q-28 0 -42 23l-272 431v-419q0 -35 -35 -35h-76z" />
    <glyph glyph-name="O" unicode="O" horiz-adv-x="760" 
d="M381 -15q-151 0 -242.5 104t-91.5 281q0 178 91.5 282t242.5 104q150 0 241.5 -104t91.5 -282q0 -177 -92 -281t-241 -104zM380 125q83 0 128 67t45 177q0 112 -45 179.5t-128 67.5q-82 0 -127.5 -67t-45.5 -179q0 -111 45.5 -178t127.5 -67z" />
    <glyph glyph-name="P" unicode="P" horiz-adv-x="656" 
d="M110 0q-35 0 -35 35v672q0 35 35 35h259q131 0 193.5 -65t62.5 -169q0 -117 -64.5 -177.5t-182.5 -60.5h-146v-235q0 -35 -35 -35h-87zM232 403h135q49 0 73.5 29t24.5 71q0 43 -27.5 73t-82.5 30h-123v-203z" />
    <glyph glyph-name="Q" unicode="Q" horiz-adv-x="760" 
d="M617 83l42 -55q9 -12 9 -23q0 -14 -14 -26l-44 -38q-11 -10 -23 -10q-14 0 -26 16l-48 63q-63 -25 -132 -25q-151 0 -242.5 104t-91.5 281q0 178 91.5 282t242.5 104q150 0 241.5 -104t91.5 -282q0 -180 -97 -287zM380 125q19 0 41 5l-52 67q-9 12 -9 23q0 14 14 26
l44 37q11 10 23 10q14 0 26 -15l52 -68q34 65 34 159q0 112 -45 179.5t-128 67.5q-82 0 -127.5 -67t-45.5 -179q0 -111 45.5 -178t127.5 -67z" />
    <glyph glyph-name="R" unicode="R" horiz-adv-x="678" 
d="M110 0q-35 0 -35 35v672q0 35 35 35h250q129 0 194.5 -56t65.5 -160q0 -156 -130 -203l136 -282q5 -12 5 -18q0 -23 -31 -23h-97q-29 0 -41 26l-124 272h-106v-263q0 -35 -35 -35h-87zM232 430h128q51 0 75.5 24.5t24.5 64.5t-27.5 63.5t-84.5 23.5h-116v-176z" />
    <glyph glyph-name="S" unicode="S" horiz-adv-x="602" 
d="M293 -15q-145 0 -246 84q-14 11 -14 26q0 10 8 23l40 58q10 16 26 16q12 0 23 -10q82 -62 160 -62q118 0 118 73q0 31 -26 51.5t-89 44.5l-72 28q-91 36 -134.5 83.5t-43.5 131.5q0 108 74 166t190 58q127 0 224 -74q15 -12 15 -26q0 -10 -8 -23l-39 -58q-10 -16 -26 -16
q-11 0 -23 9q-71 54 -143 54q-49 0 -79 -18.5t-30 -55.5q0 -26 23 -43t74 -37l71 -28q107 -42 154.5 -90t47.5 -135q0 -78 -40 -131.5t-100 -76t-135 -22.5z" />
    <glyph glyph-name="T" unicode="T" horiz-adv-x="577" 
d="M245 0q-35 0 -35 35v565h-166q-35 0 -35 35v72q0 35 35 35h489q35 0 35 -35v-72q0 -35 -35 -35h-166v-565q0 -35 -35 -35h-87z" />
    <glyph glyph-name="U" unicode="U" horiz-adv-x="700" 
d="M351 -15q-56 0 -104.5 15t-89 45.5t-64 85t-23.5 126.5v450q0 35 35 35h87q35 0 35 -35v-450q0 -61 34 -96.5t91 -35.5q60 0 93.5 33t33.5 93v456q0 35 35 35h81q35 0 35 -35v-457q0 -71 -23.5 -124.5t-64.5 -83t-88.5 -43.5t-102.5 -14z" />
    <glyph glyph-name="V" unicode="V" horiz-adv-x="667" 
d="M289 0q-31 0 -40 29l-227 673q-2 5 -2 14q0 26 31 26h93q30 0 39 -29l153 -481l150 481q9 29 39 29h91q31 0 31 -26q0 -9 -2 -14l-226 -673q-9 -29 -40 -29h-90z" />
    <glyph glyph-name="W" unicode="W" horiz-adv-x="901" 
d="M238 0q-32 0 -39 30l-177 673q-2 8 -2 12q0 27 32 27h88q30 0 38 -31l106 -448l98 373q7 30 39 30h62q31 0 39 -30l100 -370l104 445q8 31 38 31h85q32 0 32 -27q0 -4 -2 -12l-172 -673q-7 -30 -39 -30h-79q-32 0 -39 30l-100 374l-100 -374q-7 -30 -39 -30h-73z" />
    <glyph glyph-name="X" unicode="X" horiz-adv-x="661" 
d="M633 42q7 -10 7 -20q0 -22 -31 -22h-104q-29 0 -42 24l-136 240l-136 -240q-13 -24 -42 -24h-97q-31 0 -31 22q0 10 7 20l212 341l-197 317q-7 10 -7 20q0 22 31 22h103q28 0 42 -24l119 -211l120 211q13 24 42 24h97q31 0 31 -22q0 -10 -7 -20l-196 -312z" />
    <glyph glyph-name="Y" unicode="Y" horiz-adv-x="665" 
d="M610 742q30 0 30 -23q0 -10 -5 -19l-223 -418v-247q0 -35 -35 -35h-83q-35 0 -35 35v242l-228 423q-6 10 -6 20q0 22 30 22h96q28 0 41 -25l142 -282l144 282q12 25 41 25h91z" />
    <glyph glyph-name="Z" unicode="Z" horiz-adv-x="616" 
d="M74 0q-35 0 -35 35v64q0 24 14 44l322 457h-285q-35 0 -35 35v72q0 35 35 35h440q35 0 35 -35v-62q0 -24 -14 -44l-319 -458h307q35 0 35 -35v-73q0 -35 -35 -35h-465z" />
    <glyph glyph-name="bracketleft" unicode="[" horiz-adv-x="333" 
d="M109 -56q-35 0 -35 35v728q0 35 35 35h147q35 0 35 -35v-24q0 -35 -35 -35h-49v-610h49q35 0 35 -35v-24q0 -35 -35 -35h-147z" />
    <glyph glyph-name="backslash" unicode="\" horiz-adv-x="437" 
d="M365 0q-29 0 -41 26l-305 675q-4 9 -4 18q0 23 30 23h27q29 0 41 -26l305 -675q4 -9 4 -18q0 -23 -30 -23h-27z" />
    <glyph glyph-name="bracketright" unicode="]" horiz-adv-x="333" 
d="M78 -56q-35 0 -35 35v24q0 35 35 35h49v610h-49q-35 0 -35 35v24q0 35 35 35h147q35 0 35 -35v-728q0 -35 -35 -35h-147z" />
    <glyph glyph-name="asciicircum" unicode="^" horiz-adv-x="600" 
d="M97 368q-30 0 -30 23q0 10 5 19l169 307q13 25 42 25h31q28 0 42 -24l174 -308q6 -11 6 -19q0 -23 -30 -23h-41q-29 0 -42 24l-123 220l-121 -219q-13 -25 -41 -25h-41z" />
    <glyph glyph-name="underscore" unicode="_" horiz-adv-x="600" 
d="M29 -198q-35 0 -35 35v11q0 35 35 35h540q35 0 35 -35v-11q0 -35 -35 -35h-540z" />
    <glyph glyph-name="grave" unicode="`" horiz-adv-x="333" 
d="M258 657q-12 -18 -28 -18q-10 0 -20 6l-157 88q-19 11 -19 27q0 8 7 20l24 39q11 18 26 18q11 0 22 -9l141 -116q15 -12 15 -27q0 -11 -7 -22z" />
    <glyph glyph-name="a" unicode="a" horiz-adv-x="597" 
d="M211 -11q-82 0 -127.5 46.5t-45.5 120.5q0 44 14.5 77.5t38.5 54.5t62.5 35.5t77.5 22t94 12.5l61 6v23q0 30 -26.5 48.5t-70.5 18.5q-70 0 -137 -49q-12 -9 -24 -9q-15 0 -25 16l-30 44q-8 13 -8 23q0 15 15 26q98 74 220 74q117 0 177 -57.5t60 -149.5v-337
q0 -35 -35 -35h-74q-35 0 -35 29v29q-94 -69 -182 -69zM260 114q61 0 126 48v95l-39 -5q-86 -10 -122 -29t-36 -56q0 -25 20 -39t51 -14z" />
    <glyph glyph-name="b" unicode="b" horiz-adv-x="642" 
d="M373 -10q-100 0 -165 64v-19q0 -35 -35 -35h-73q-35 0 -35 35v686q0 35 35 35h81q35 0 35 -35v-199q64 56 157 56q100 0 163 -80.5t63 -213.5t-62.5 -213.5t-163.5 -80.5zM331 125q57 0 85 44t28 113q0 72 -29 116.5t-86 44.5q-11 0 -23 -3.5t-20.5 -7t-21 -12t-17 -12
t-17.5 -14t-14 -11.5v-199q63 -59 115 -59z" />
    <glyph glyph-name="c" unicode="c" horiz-adv-x="573" 
d="M316 -11q-120 0 -196.5 81t-76.5 214q0 134 77 214.5t201 80.5q128 0 205 -88q10 -10 10 -22q0 -15 -15 -27l-52 -44q-10 -10 -22 -10q-13 0 -27 15q-41 41 -97 41q-57 0 -90.5 -41t-33.5 -122q0 -78 34 -117.5t91 -39.5q64 0 111 50q13 15 27 15q12 0 23 -12l48 -49
q12 -12 12 -26q0 -12 -11 -25q-44 -48 -95.5 -68t-122.5 -20z" />
    <glyph glyph-name="d" unicode="d" horiz-adv-x="642" 
d="M270 -10q-101 0 -164 80.5t-63 213.5t63.5 213.5t163.5 80.5q93 0 157 -56v199q0 35 35 35h80q35 0 35 -35v-686q0 -35 -35 -35h-72q-35 0 -35 30v29q-62 -69 -165 -69zM311 125q52 0 116 64v194q-2 1 -10.5 8.5t-12.5 10.5t-13 9.5t-14.5 10t-14.5 8.5t-16 7t-16 4
t-17 2q-57 0 -85.5 -44.5t-28.5 -116.5q0 -69 27.5 -113t84.5 -44z" />
    <glyph glyph-name="e" unicode="e" horiz-adv-x="617" 
d="M321 -11q-126 0 -202 81.5t-76 213.5q0 131 72 213t197 82q65 0 115 -24.5t81 -68t48 -96t21 -114.5q2 -36 -35 -36h-348q3 -62 42 -89t98 -27q61 0 115 42q14 11 25 11q13 0 25 -13l45 -50q12 -13 12 -25q0 -11 -9 -20q-89 -80 -226 -80zM196 347h232q-5 50 -35.5 78.5
t-79.5 28.5q-48 0 -78.5 -28t-38.5 -79z" />
    <glyph glyph-name="f" unicode="f" horiz-adv-x="358" 
d="M128 0q-35 0 -35 35v396h-53q-35 0 -35 35v60q0 35 35 35h53v14q0 95 49 138t160 43q24 0 50 -3q33 -3 33 -37v-43q0 -33 -28 -33q-6 0 -18 0.5t-19 0.5q-77 0 -77 -52v-28h78q35 0 35 -35v-60q0 -35 -35 -35h-78v-396q0 -35 -35 -35h-80z" />
    <glyph glyph-name="g" unicode="g" horiz-adv-x="642" 
d="M303 -202q-119 0 -218 55q-18 11 -18 28q0 9 6 20l31 54q10 18 27 18q9 0 21 -6q68 -37 148 -37q63 0 96.5 28t33.5 75v35q-71 -57 -160 -57q-101 0 -164 76.5t-63 206.5t63 207t164 77q96 0 165 -66v21q0 35 35 35h72q35 0 35 -35v-507q0 -103 -69.5 -165.5
t-204.5 -62.5zM313 146q13 0 26.5 3.5t27 11t21.5 12.5t22 15t17 12v183q-23 19 -34.5 27.5t-36 20.5t-45.5 12q-56 0 -84 -40t-28 -107q0 -68 28.5 -109t85.5 -41z" />
    <glyph glyph-name="h" unicode="h" horiz-adv-x="626" 
d="M100 0q-35 0 -35 35v686q0 35 35 35h81q35 0 35 -35v-198q88 56 181 56q81 0 124.5 -47t43.5 -126v-371q0 -35 -35 -35h-80q-35 0 -35 35v303q0 51 -15 73.5t-56 22.5q-61 0 -128 -45v-354q0 -35 -35 -35h-81z" />
    <glyph glyph-name="i" unicode="i" horiz-adv-x="282" 
d="M141 615q-35 0 -60 25t-25 60t25 60t60 25t60 -25t25 -60t-25 -60t-60 -25zM101 0q-35 0 -35 35v498q0 35 35 35h80q35 0 35 -35v-498q0 -35 -35 -35h-80z" />
    <glyph glyph-name="j" unicode="j" horiz-adv-x="292" 
d="M151 615q-35 0 -60 25t-25 60t25 60t60 25t60 -25t25 -60t-25 -60t-60 -25zM18 -202q-70 0 -128 21q-22 7 -22 28q0 8 3 17l21 57q9 23 29 23q7 0 16 -3q36 -11 68 -11q36 0 53.5 20t17.5 71v512q0 35 35 35h80q35 0 35 -35v-517q0 -218 -208 -218z" />
    <glyph glyph-name="k" unicode="k" horiz-adv-x="583" 
d="M551 42q7 -11 7 -20q0 -22 -30 -22h-102q-28 0 -42 23l-136 212l-32 -35v-165q0 -35 -35 -35h-81q-35 0 -35 35v686q0 35 35 35h81q35 0 35 -35v-331l143 159q18 19 43 19h91q30 0 30 -20q0 -10 -11 -23l-160 -176z" />
    <glyph glyph-name="l" unicode="l" horiz-adv-x="282" 
d="M101 0q-35 0 -35 35v686q0 35 35 35h80q35 0 35 -35v-686q0 -35 -35 -35h-80z" />
    <glyph glyph-name="m" unicode="m" horiz-adv-x="929" 
d="M708 579q78 0 118.5 -45t40.5 -128v-371q0 -35 -35 -35h-80q-35 0 -35 35v323q0 44 -16 60t-44 16q-71 0 -115 -49v-350q0 -35 -35 -35h-80q-35 0 -35 35v323q0 46 -13 61t-48 15q-53 0 -115 -55v-344q0 -35 -35 -35h-81q-35 0 -35 35v498q0 35 35 35h76q35 0 35 -26v-26
q81 63 172 63q55 0 87.5 -14.5t51.5 -51.5q93 66 186 66z" />
    <glyph glyph-name="n" unicode="n" horiz-adv-x="626" 
d="M397 579q81 0 124.5 -47t43.5 -126v-371q0 -35 -35 -35h-80q-35 0 -35 35v303q0 51 -15 73.5t-56 22.5q-61 0 -128 -45v-354q0 -35 -35 -35h-81q-35 0 -35 35v498q0 35 35 35h78q35 0 35 -35v-12q89 58 184 58z" />
    <glyph glyph-name="o" unicode="o" horiz-adv-x="642" 
d="M321 -11q-126 0 -202 80.5t-76 214.5t76 214.5t202 80.5q125 0 201.5 -80.5t76.5 -214.5t-76.5 -214.5t-201.5 -80.5zM321 124q57 0 90 40t33 120q0 81 -33.5 120.5t-89.5 39.5t-89 -39.5t-33 -120.5t33 -120.5t89 -39.5z" />
    <glyph glyph-name="p" unicode="p" horiz-adv-x="642" 
d="M100 -202q-35 0 -35 35v700q0 35 35 35h73q35 0 35 -28v-28q74 66 165 66q101 0 163.5 -80.5t62.5 -213.5q0 -136 -63 -215t-163 -79q-94 0 -157 56v-213q0 -35 -35 -35h-81zM329 125q57 0 86 44.5t29 116.5q0 69 -28 113t-85 44q-46 0 -115 -60v-198q69 -60 113 -60z
" />
    <glyph glyph-name="q" unicode="q" horiz-adv-x="642" 
d="M542 -202h-81q-35 0 -35 35v213q-63 -56 -157 -56q-100 0 -163 79t-63 215q0 133 62.5 213.5t163.5 80.5q91 0 165 -66v28q0 28 35 28h73q35 0 35 -35v-700q0 -35 -35 -35zM313 125q44 0 113 60v198q-69 60 -115 60q-57 0 -85 -44t-28 -113q0 -72 29 -116.5t86 -44.5z
" />
    <glyph glyph-name="r" unicode="r" horiz-adv-x="471" 
d="M100 0q-35 0 -35 35v498q0 35 35 35h76q35 0 35 -35v-36q72 82 158 82q40 0 66 -11q22 -9 22 -28q0 -6 -4 -18l-32 -79q-7 -20 -26 -20q-10 0 -19 4q-18 5 -36 5q-55 0 -124 -71v-326q0 -35 -35 -35h-81z" />
    <glyph glyph-name="s" unicode="s" horiz-adv-x="533" 
d="M446 436q-12 -18 -28 -18q-7 0 -19 5q-69 32 -139 32q-28 0 -44 -11t-16 -26q0 -17 15 -27t53 -23l59 -20q88 -30 130 -69t42 -109q0 -88 -67 -134.5t-160 -46.5q-133 0 -222 63q-16 12 -16 26q0 10 8 23l30 46q10 16 26 16q12 0 23 -7q73 -45 148 -45q79 0 79 47
q0 19 -17 29.5t-70 28.5l-60 20q-77 26 -114.5 64.5t-37.5 106.5q0 69 54.5 120.5t168.5 51.5q100 0 191 -52q18 -10 18 -26q0 -11 -7 -22z" />
    <glyph glyph-name="t" unicode="t" horiz-adv-x="406" 
d="M288 -11q-111 0 -149.5 43.5t-38.5 145.5v260h-54q-35 0 -35 35v60q0 35 35 35h54v70q0 28 25 41l84 42q12 5 18 5q23 0 23 -30v-128h87q35 0 35 -35v-60q0 -35 -35 -35h-87v-257q0 -53 62 -53q4 0 13.5 1t15.5 1q31 0 31 -32v-67q0 -33 -31 -37q-30 -5 -53 -5z" />
    <glyph glyph-name="u" unicode="u" horiz-adv-x="626" 
d="M526 568q35 0 35 -35v-498q0 -35 -35 -35h-78q-35 0 -35 35v12q-88 -58 -184 -58q-81 0 -124.5 47t-43.5 126v371q0 35 35 35h81q35 0 35 -35v-303q0 -51 15 -73.5t56 -22.5q61 0 128 45v354q0 35 35 35h80z" />
    <glyph glyph-name="v" unicode="v" horiz-adv-x="575" 
d="M250 0q-30 0 -40 28l-187 500q-3 9 -3 16q0 24 31 24h83q30 0 40 -28l113 -327l116 327q10 28 40 28h82q31 0 31 -24q0 -7 -3 -16l-190 -500q-10 -28 -41 -28h-72z" />
    <glyph glyph-name="w" unicode="w" horiz-adv-x="783" 
d="M200 0q-32 0 -39 30l-139 499q-2 10 -2 13q0 26 32 26h77q32 0 39 -30l77 -297l79 252q9 29 39 29h59q31 0 40 -29l76 -256l83 301q7 30 39 30h72q32 0 32 -26q0 -3 -2 -13l-145 -500q-9 -29 -40 -29h-68q-30 0 -39 29l-81 267l-84 -267q-9 -29 -39 -29h-66z" />
    <glyph glyph-name="x" unicode="x" horiz-adv-x="603" 
d="M560 43q8 -11 8 -21q0 -22 -30 -22h-93q-28 0 -42 23l-105 158l-104 -158q-14 -23 -42 -23h-87q-30 0 -30 22q0 8 8 21l172 244l-167 238q-8 13 -8 21q0 22 30 22h93q28 0 42 -23l96 -147l96 147q14 23 42 23h86q30 0 30 -22q0 -8 -8 -21l-163 -233z" />
    <glyph glyph-name="y" unicode="y" horiz-adv-x="567" 
d="M517 568q31 0 31 -24q0 -7 -3 -16l-208 -578q-30 -83 -80 -117.5t-152 -34.5q-29 0 -56 3q-31 4 -31 38v69q0 33 32 33q9 0 26.5 -1t24.5 -1q39 0 63 16t40 50l17 34l-197 488q-4 12 -4 16q0 25 32 25h82q30 0 40 -28l121 -327l103 326q9 29 39 29h80z" />
    <glyph glyph-name="z" unicode="z" horiz-adv-x="500" 
d="M58 0q-35 0 -35 35v44q0 25 15 43l248 310h-213q-35 0 -35 35v66q0 35 35 35h358q35 0 35 -35v-43q0 -24 -15 -43l-241 -311h229q35 0 35 -35v-66q0 -35 -35 -35h-381z" />
    <glyph glyph-name="braceleft" unicode="{" horiz-adv-x="333" 
d="M259 -56q-89 0 -128.5 37.5t-39.5 120.5v109q0 71 -52 83q-33 9 -33 37v25q0 28 33 36q52 13 52 84v108q0 83 39.5 120.5t128.5 37.5h19q35 0 35 -35v-24q0 -35 -29 -35q-59 0 -59 -72v-96q0 -102 -87 -137q87 -33 87 -137v-95q0 -73 59 -73q29 0 29 -35v-24
q0 -35 -35 -35h-19z" />
    <glyph glyph-name="bar" unicode="|" horiz-adv-x="333" 
d="M154 -202q-35 0 -35 35v888q0 35 35 35h26q35 0 35 -35v-888q0 -35 -35 -35h-26z" />
    <glyph glyph-name="braceright" unicode="}" horiz-adv-x="333" 
d="M48 -56q-27 0 -27 35v24q0 35 29 35q59 0 59 73v95q0 105 86 137q-86 34 -86 137v96q0 72 -59 72q-29 0 -29 35v24q0 35 35 35h18q89 0 129 -37.5t40 -120.5v-108q0 -71 51 -83q33 -9 33 -37v-25q0 -28 -33 -37q-51 -12 -51 -83v-109q0 -83 -40 -120.5t-129 -37.5h-26z
" />
    <glyph glyph-name="asciitilde" unicode="~" horiz-adv-x="600" 
d="M409 266q-41 0 -104 24l-68 27q-26 9 -49 9q-46 0 -86 -28q-14 -9 -24 -9q-16 0 -25 18l-12 22q-6 11 -6 20q0 16 16 29q75 60 143 60q43 0 93 -20l78 -31q28 -10 50 -10q41 0 85 29q12 9 23 9q15 0 26 -19l12 -22q5 -10 5 -17q0 -21 -24 -39q-72 -52 -133 -52z" />
    <glyph glyph-name="uni00A0" unicode="&#xa0;" horiz-adv-x="291" 
 />
    <glyph glyph-name="exclamdown" unicode="&#xa1;" horiz-adv-x="335" 
d="M121 428q-35 0 -35 35v69q0 35 35 35h96q35 0 35 -35v-69q0 -35 -35 -35h-96zM107 -189q-37 0 -34 36l39 470q3 33 37 33h38q34 0 37 -33l39 -470q3 -36 -34 -36h-122z" />
    <glyph glyph-name="cent" unicode="&#xa2;" horiz-adv-x="648" 
d="M568 195q12 -12 12 -26q0 -12 -11 -25q-44 -48 -95.5 -68t-122.5 -20q-48 0 -92 14l-61 -125q-10 -21 -28 -21q-8 0 -19 6l-28 16q-19 10 -19 28q0 7 5 19l64 126q-95 82 -95 232q0 134 77 214.5t201 80.5q34 0 65 -6l41 86q9 21 27 21q9 0 21 -7l26 -15q19 -10 19 -28
q0 -7 -5 -19l-38 -76q30 -21 49 -44q10 -10 10 -22q0 -15 -15 -27l-52 -44q-10 -10 -22 -10q-14 0 -27 15q-41 41 -97 41q-57 0 -90.5 -41t-33.5 -122q0 -78 34 -117.5t91 -39.5q64 0 111 50q14 15 27 15q12 0 23 -12z" />
    <glyph glyph-name="sterling" unicode="&#xa3;" horiz-adv-x="648" 
d="M252 141h316q35 0 35 -35v-71q0 -35 -35 -35h-476q-35 0 -35 35v53q0 26 25 41q70 40 70 129q0 19 -1 27h-41q-35 0 -35 35v44q0 35 32 35h32q-6 19 -12 58.5t-6 57.5q0 109 60 175t184 66q129 0 203 -84q10 -10 10 -22q0 -15 -15 -27l-48 -41q-11 -10 -23 -10
q-13 0 -26 13q-37 37 -86 37q-53 0 -79 -32t-26 -87q0 -24 19 -104h168q35 0 35 -35v-44q0 -35 -35 -35h-159q-3 -89 -51 -144z" />
    <glyph glyph-name="currency" unicode="&#xa4;" horiz-adv-x="578" 
d="M122 140q-11 -11 -24 -11q-14 0 -26 13l-13 15q-11 13 -11 24q0 13 12 25l66 67q-30 44 -30 97q0 55 29 99l-65 65q-12 12 -12 25q0 11 11 24l13 15q12 13 26 13q13 0 24 -11l64 -62q48 29 103 29q57 0 103 -28l63 61q12 12 25 12t25 -13l14 -16q11 -13 11 -24
q0 -13 -12 -25l-63 -63q28 -42 28 -101q0 -53 -29 -99l64 -65q12 -12 12 -25q0 -11 -11 -24l-14 -16q-12 -13 -25 -13t-25 12l-64 63q-44 -26 -102 -26t-101 27zM289 284q42 0 69.5 24.5t27.5 61.5t-27.5 63t-69.5 26q-40 0 -66.5 -25.5t-26.5 -63.5q0 -36 26.5 -61
t66.5 -25z" />
    <glyph glyph-name="yen" unicode="&#xa5;" horiz-adv-x="648" 
d="M621 719q0 -10 -5 -19l-161 -296h79q35 0 35 -35v-29q0 -35 -35 -35h-131v-58h131q35 0 35 -35v-29q0 -35 -35 -35h-131v-113q0 -35 -35 -35h-82q-35 0 -35 35v113h-132q-35 0 -35 35v29q0 35 35 35h132v58h-132q-35 0 -35 35v29q0 35 35 35h77l-164 296q-5 9 -5 19
q0 23 30 23h94q29 0 41 -25l134 -257l134 257q12 25 41 25h90q30 0 30 -23z" />
    <glyph glyph-name="brokenbar" unicode="&#xa6;" horiz-adv-x="333" 
d="M154 351q-35 0 -35 35v318q0 35 35 35h26q35 0 35 -35v-318q0 -35 -35 -35h-26zM154 -197q-35 0 -35 35v318q0 35 35 35h26q35 0 35 -35v-318q0 -35 -35 -35h-26z" />
    <glyph glyph-name="section" unicode="&#xa7;" horiz-adv-x="501" 
d="M237 -75q-96 0 -174 50q-16 12 -16 27q0 9 8 22l28 39q12 16 28 16q9 0 21 -6q52 -29 106 -29q30 0 48.5 11.5t18.5 30.5q0 20 -17 35.5t-64 41.5l-99 61q-96 58 -96 167q0 31 21 68t61 65q-32 35 -32 84q0 66 48 107t145 41q63 0 126 -29q20 -9 20 -28q0 -9 -6 -20
l-24 -39q-10 -19 -28 -19q-7 0 -19 5q-36 16 -61 16q-70 0 -70 -38q0 -13 13.5 -24t53.5 -33l94 -56q101 -66 101 -176q0 -78 -70 -133q31 -38 31 -83q0 -71 -54.5 -122.5t-141.5 -51.5zM326 255q23 28 23 47q0 24 -10 38.5t-40 32.5l-64 41q-4 2 -25.5 15.5t-33.5 21.5
q-24 -27 -24 -48q0 -20 10 -36t41 -35l61 -38q38 -22 62 -39z" />
    <glyph glyph-name="dieresis" unicode="&#xa8;" horiz-adv-x="333" 
d="M61 656q-30 0 -51.5 21.5t-21.5 51.5t21.5 51.5t51.5 21.5t51.5 -21.5t21.5 -51.5t-21.5 -51.5t-51.5 -21.5zM272 656q-30 0 -51.5 21.5t-21.5 51.5t21.5 51.5t51.5 21.5t51.5 -21.5t21.5 -51.5t-21.5 -51.5t-51.5 -21.5z" />
    <glyph glyph-name="copyright" unicode="&#xa9;" horiz-adv-x="866" 
d="M433 -15q-160 0 -272.5 112.5t-112.5 273.5q0 160 112.5 272.5t272.5 112.5t272.5 -112.5t112.5 -272.5t-112.5 -273t-272.5 -113zM433 50q134 0 229 93.5t95 226.5t-95 227t-229 94t-229 -94t-95 -227t95 -226.5t229 -93.5zM435 140q-104 0 -162 64t-58 164
q0 101 60 167.5t163 66.5q92 0 156 -64q10 -10 10 -22q0 -15 -15 -27l-26 -20q-12 -9 -22 -9q-11 0 -27 13q-30 25 -73 25q-47 0 -76.5 -32.5t-29.5 -95.5q0 -62 30.5 -94t75.5 -32q47 0 82 35q14 14 27 14q11 0 22 -10l25 -22q13 -13 13 -26t-12 -27q-64 -68 -163 -68z" />
    <glyph glyph-name="ordfeminine" unicode="&#xaa;" horiz-adv-x="401" 
d="M141 413q-52 0 -80 28t-28 72q0 25 9.5 44t29 31t37.5 20t46.5 12.5t44.5 6t43 3.5v12q0 16 -12 26.5t-36 10.5q-37 0 -82 -27q-13 -8 -22 -8q-15 0 -27 17l-5 8q-7 11 -7 22q0 16 16 26q61 39 133 39q73 0 109.5 -33.5t36.5 -88.5v-180q0 -35 -35 -35h-29q-35 0 -35 13
v13q-51 -32 -107 -32zM172 490q34 0 71 25v48q-2 0 -12 -1.5t-14.5 -2t-15 -2t-16 -3.5t-14 -4.5t-13.5 -5.5t-10 -7.5t-7.5 -10t-2.5 -11.5q0 -25 34 -25z" />
    <glyph glyph-name="guillemotleft" unicode="&#xab;" horiz-adv-x="583" 
d="M266 52q-12 -12 -25 -12t-25 12l-166 172q-17 18 -17 43v35q0 25 17 43l166 172q12 12 25 12t25 -12l18 -19q12 -12 12 -27q0 -11 -9 -23l-125 -164l124 -163q9 -12 9 -24q0 -13 -11 -26zM520 52q-12 -12 -25 -12t-25 12l-166 172q-17 18 -17 43v35q0 25 17 43l166 172
q12 12 25 12t25 -12l18 -19q12 -12 12 -27q0 -11 -9 -23l-125 -164l124 -163q9 -12 9 -24q0 -13 -11 -26z" />
    <glyph glyph-name="logicalnot" unicode="&#xac;" horiz-adv-x="600" 
d="M475 227q-35 0 -35 35v144h-342q-35 0 -35 35v38q0 35 35 35h404q35 0 35 -35v-217q0 -35 -35 -35h-27z" />
    <glyph glyph-name="uni00AD" unicode="&#xad;" horiz-adv-x="324" 
d="M75 208q-35 0 -35 35v66q0 35 35 35h174q35 0 35 -35v-66q0 -35 -35 -35h-174z" />
    <glyph glyph-name="registered" unicode="&#xae;" horiz-adv-x="866" 
d="M433 -15q-160 0 -272.5 112.5t-112.5 273.5q0 160 112.5 272.5t272.5 112.5t272.5 -112.5t112.5 -272.5t-112.5 -273t-272.5 -113zM433 50q134 0 229 93.5t95 226.5t-95 227t-229 94t-229 -94t-95 -227t95 -226.5t229 -93.5zM290 148q-35 0 -35 35v375q0 35 35 35h152
q82 0 127 -36.5t45 -97.5q0 -87 -77 -122l78 -147q5 -9 5 -19q0 -23 -30 -23h-44q-30 0 -42 26l-67 137h-71v-128q0 -35 -35 -35h-41zM366 405h80q61 0 61 50q0 48 -72 48h-69v-98z" />
    <glyph glyph-name="macron" unicode="&#xaf;" horiz-adv-x="333" 
d="M47 676q-35 0 -35 35v32q0 35 35 35h239q35 0 35 -35v-32q0 -35 -35 -35h-239z" />
    <glyph glyph-name="degree" unicode="&#xb0;" horiz-adv-x="385" 
d="M193 453q-61 0 -104.5 44.5t-43.5 106.5q0 63 43.5 107.5t104.5 44.5t104.5 -44.5t43.5 -107.5q0 -62 -43.5 -106.5t-104.5 -44.5zM193 530q32 0 55 21.5t23 52.5t-23 53t-55 22t-55 -22t-23 -53t23 -52.5t55 -21.5z" />
    <glyph glyph-name="plusminus" unicode="&#xb1;" horiz-adv-x="600" 
d="M277 172q-35 0 -35 35v118h-144q-35 0 -35 35v48q0 35 35 35h144v117q0 35 35 35h48q35 0 35 -35v-117h143q35 0 35 -35v-48q0 -35 -35 -35h-143v-118q0 -35 -35 -35h-48zM98 4q-35 0 -35 35v48q0 35 35 35h405q35 0 35 -35v-48q0 -35 -35 -35h-405z" />
    <glyph glyph-name="two.sups" unicode="&#xb2;" horiz-adv-x="417" 
d="M225 440h107q35 0 35 -35v-28q0 -35 -35 -35h-245q-35 0 -35 35v11q0 26 20 43l78 68q45 39 60.5 65t15.5 52q0 20 -15.5 32.5t-40.5 12.5q-26 0 -51 -14q-13 -9 -25 -9q-11 0 -24 11l-16 15q-13 13 -13 25q0 14 14 25q54 43 133 43q70 0 114 -38t44 -105
q0 -43 -23 -76.5t-75 -77.5z" />
    <glyph glyph-name="three.sups" unicode="&#xb3;" horiz-adv-x="417" 
d="M194 332q-74 0 -133 42q-14 10 -14 25q0 13 10 24l12 14q12 13 25 13q10 0 24 -8q35 -22 70 -22q30 0 45 13t15 30q0 44 -70 44h-9q-35 0 -35 35v10q0 35 35 35h10q27 0 41 13t14 31q0 15 -13.5 26t-39.5 11q-27 0 -52 -16q-11 -7 -24 -7q-14 0 -26 12l-13 14
q-12 12 -12 25q0 14 15 24q51 36 124 36q74 0 116.5 -30.5t42.5 -86.5q0 -60 -60 -85q34 -7 54.5 -29.5t20.5 -57.5q0 -63 -46.5 -99t-126.5 -36z" />
    <glyph glyph-name="acute" unicode="&#xb4;" horiz-adv-x="333" 
d="M124 645q-10 -6 -20 -6q-16 0 -28 18l-4 6q-7 11 -7 22q0 15 15 27l141 116q12 9 23 9q16 0 26 -17l24 -40q6 -10 6 -20q0 -17 -19 -27z" />
    <glyph glyph-name="mu" unicode="&#xb5;" horiz-adv-x="625" 
d="M410 533q0 35 35 35h80q35 0 35 -35v-498q0 -35 -35 -35h-74q-35 0 -35 22v22q-45 -55 -117 -55q-52 0 -83 28v-184q0 -35 -35 -35h-81q-35 0 -35 35v700q0 35 35 35h81q35 0 35 -35v-301q0 -100 81 -100q63 0 113 50v351z" />
    <glyph glyph-name="paragraph" unicode="&#xb6;" horiz-adv-x="552" 
d="M296 -61q-35 0 -35 35v342q-106 6 -172.5 62.5t-66.5 151.5q0 96 56.5 154t178.5 58h215q35 0 35 -34t-20 -34h-21v-700q0 -35 -35 -35h-5q-35 0 -35 35v700h-58v-700q0 -35 -35 -35h-2z" />
    <glyph glyph-name="periodcentered" unicode="&#xb7;" horiz-adv-x="261" 
d="M131 286q-35 0 -60 25t-25 60t25 60t60 25t60 -25t25 -60t-25 -60t-60 -25z" />
    <glyph glyph-name="cedilla" unicode="&#xb8;" horiz-adv-x="333" 
d="M153 -228q-7 0 -31 2q-32 3 -32 37v16q0 34 22 34q5 0 13.5 -1t11.5 -1q66 0 66 26t-57 26q-21 0 -21 35v25q0 35 35 35h13q35 0 35 -15v-15q45 -5 67.5 -30t22.5 -64q0 -110 -145 -110z" />
    <glyph glyph-name="one.sups" unicode="&#xb9;" horiz-adv-x="417" 
d="M199 341q-35 0 -35 35v246q-14 -7 -45 -14q-3 -1 -9 -1q-13 0 -21 9.5t-8 24.5v26q0 31 33 37q36 8 55 23q25 20 43 20h32q35 0 35 -35v-336q0 -35 -35 -35h-45z" />
    <glyph glyph-name="ordmasculine" unicode="&#xba;" horiz-adv-x="413" 
d="M206 412q-77 0 -124 47t-47 125t47 125.5t124 47.5t124.5 -47.5t47.5 -125.5t-47.5 -125t-124.5 -47zM206 500q65 0 65 84q0 85 -65 85q-64 0 -64 -85q0 -84 64 -84z" />
    <glyph glyph-name="guillemotright" unicode="&#xbb;" horiz-adv-x="583" 
d="M113 52q-12 -12 -25 -12t-25 12l-17 19q-12 14 -12 26q0 11 9 23l125 164l-125 164q-9 12 -9 23q0 15 12 27l17 19q12 12 25 12t25 -12l166 -172q17 -18 17 -43v-35q0 -25 -17 -43zM367 52q-12 -12 -25 -12t-25 12l-17 19q-12 13 -12 26q0 11 9 23l125 164l-125 164
q-9 12 -9 23q0 15 12 27l17 19q12 12 25 12t25 -12l166 -172q17 -18 17 -43v-35q0 -25 -17 -43z" />
    <glyph glyph-name="onequarter" unicode="&#xbc;" horiz-adv-x="880" 
d="M199 341q-35 0 -35 35v246q-14 -7 -45 -14q-3 -1 -9 -1q-13 0 -21 9.5t-8 24.5v26q0 31 33 37q36 8 55 23q25 20 43 20h32q35 0 35 -35v-336q0 -35 -35 -35h-45zM288 3q-11 -19 -27 -19q-10 0 -20 6l-7 4q-20 11 -20 27q0 9 6 20l401 686q10 19 27 19q10 0 20 -6l8 -4
q20 -10 20 -27q0 -9 -6 -20zM716 0q-35 0 -35 35v35h-166q-35 0 -35 35v20q0 23 14 43l162 217q15 21 43 21h50q35 0 35 -35v-215h15q35 0 35 -35v-16q0 -35 -25 -35h-25v-35q0 -35 -35 -35h-33zM579 156h102v126z" />
    <glyph glyph-name="onehalf" unicode="&#xbd;" horiz-adv-x="880" 
d="M184 341q-35 0 -35 35v246q-14 -7 -45 -14q-3 -1 -9 -1q-13 0 -21 9.5t-8 24.5v26q0 31 33 37q36 8 56 24q24 19 43 19h31q35 0 35 -35v-336q0 -35 -35 -35h-45zM235 4q-10 -19 -28 -19q-10 0 -19 5l-6 3q-20 11 -20 28q0 9 6 20l401 686q10 19 27 19q10 0 20 -6l8 -4
q20 -10 20 -27q0 -9 -6 -20zM695 98h107q35 0 35 -35v-28q0 -35 -35 -35h-245q-35 0 -35 35v11q0 26 20 43l78 68q45 39 60.5 65t15.5 52q0 20 -15.5 32.5t-40.5 12.5q-26 0 -51 -14q-13 -9 -25 -9q-11 0 -24 11l-16 15q-13 13 -13 25q0 14 14 25q54 43 133 43q70 0 114 -38
t44 -105q0 -43 -23 -76t-75 -78z" />
    <glyph glyph-name="threequarters" unicode="&#xbe;" horiz-adv-x="880" 
d="M194 332q-74 0 -133 42q-14 10 -14 25q0 13 10 24l12 14q12 13 25 13q10 0 24 -8q35 -22 70 -22q30 0 45 13t15 30q0 44 -70 44h-9q-35 0 -35 35v10q0 35 35 35h10q27 0 41 13t14 31q0 15 -13.5 26t-39.5 11q-27 0 -52 -16q-11 -7 -24 -7q-14 0 -26 12l-13 14
q-12 12 -12 25q0 14 15 24q51 36 124 36q74 0 116.5 -30.5t42.5 -86.5q0 -60 -60 -85q34 -7 54.5 -29.5t20.5 -57.5q0 -63 -46.5 -99t-126.5 -36zM309 3q-11 -19 -27 -19q-10 0 -20 6l-7 4q-20 11 -20 27q0 9 6 20l401 686q10 19 27 19q9 0 20 -6l8 -4q20 -10 20 -27
q0 -9 -6 -20zM716 0q-35 0 -35 35v35h-166q-35 0 -35 35v20q0 23 14 43l162 217q15 21 43 21h50q35 0 35 -35v-215h15q35 0 35 -35v-16q0 -35 -25 -35h-25v-35q0 -35 -35 -35h-33zM579 156h102v126z" />
    <glyph glyph-name="questiondown" unicode="&#xbf;" horiz-adv-x="535" 
d="M270 572q35 0 59.5 -25t24.5 -60t-24.5 -60t-59.5 -25t-60.5 25t-24.5 60q-1 35 24.5 60t60.5 25zM307 359q35 0 35 -35v-18q0 -41 -12.5 -71.5t-44.5 -64.5l-43 -41q-51 -51 -51 -103q0 -33 26.5 -57t74.5 -24q61 0 109 45q14 14 26 14t23 -10l52 -46q14 -12 14 -26
q0 -12 -11 -23q-84 -88 -219 -88q-122 0 -186.5 61t-64.5 157q0 107 83 190l43 42q35 38 35 64q0 34 35 34h76z" />
    <glyph glyph-name="Agrave" unicode="&#xc0;" horiz-adv-x="694" 
d="M228 883q-19 10 -19 27q0 11 7 21l24 39q10 17 26 17q11 0 23 -9l142 -116q15 -12 15 -27q0 -11 -7 -22l-4 -6q-12 -18 -28 -18q-9 0 -20 6zM678 40q3 -8 3 -15q0 -25 -32 -25h-90q-30 0 -39 29l-40 122h-272l-39 -122q-9 -29 -39 -29h-85q-32 0 -32 25q0 7 3 15l240 674
q10 28 40 28h100q30 0 40 -28zM251 285h184l-93 282z" />
    <glyph glyph-name="Aacute" unicode="&#xc1;" horiz-adv-x="694" 
d="M259 807l-4 6q-7 11 -7 22q0 15 15 27l141 116q12 9 23 9q16 0 26 -17l24 -40q6 -10 6 -20q0 -17 -19 -27l-157 -88q-10 -6 -19 -6q-17 0 -29 18zM678 40q3 -8 3 -15q0 -25 -32 -25h-90q-30 0 -39 29l-40 122h-272l-39 -122q-9 -29 -39 -29h-85q-32 0 -32 25q0 7 3 15
l240 674q10 28 40 28h100q30 0 40 -28zM251 285h184l-93 282z" />
    <glyph glyph-name="Acircumflex" unicode="&#xc2;" horiz-adv-x="694" 
d="M177 803l-3 4q-9 12 -9 23q0 13 13 26l106 103q17 17 43 17h40q26 0 43 -17l106 -103q13 -13 13 -26q0 -11 -9 -23l-3 -5q-12 -16 -27 -16q-9 0 -22 8l-121 80l-121 -79q-10 -7 -22 -7q-15 0 -27 15zM678 40q3 -8 3 -15q0 -25 -32 -25h-90q-30 0 -39 29l-40 122h-272
l-39 -122q-9 -29 -39 -29h-85q-32 0 -32 25q0 7 3 15l240 674q10 28 40 28h100q30 0 40 -28zM251 285h184l-93 282z" />
    <glyph glyph-name="Atilde" unicode="&#xc3;" horiz-adv-x="694" 
d="M182 815l-5 6q-11 13 -11 26q0 11 9 23q47 60 107 60q27 0 52 -14l34 -15q34 -15 48 -15q23 0 45 13q13 9 26 9q14 0 24 -13l5 -6q10 -12 10 -24q0 -15 -15 -33q-44 -51 -99 -51q-29 0 -64 19l-28 13q-22 11 -43 11q-23 0 -45 -13q-14 -9 -26 -9q-14 0 -24 13zM678 40
q3 -8 3 -15q0 -25 -32 -25h-90q-30 0 -39 29l-40 122h-272l-39 -122q-9 -29 -39 -29h-85q-32 0 -32 25q0 7 3 15l240 674q10 28 40 28h100q30 0 40 -28zM251 285h184l-93 282z" />
    <glyph glyph-name="Adieresis" unicode="&#xc4;" horiz-adv-x="694" 
d="M241 786q-30 0 -51.5 21.5t-21.5 51.5t21.5 51.5t51.5 21.5t51.5 -21.5t21.5 -51.5t-21.5 -51.5t-51.5 -21.5zM452 786q-30 0 -51.5 21.5t-21.5 51.5t21.5 51.5t51.5 21.5t51.5 -21.5t21.5 -51.5t-21.5 -51.5t-51.5 -21.5zM678 40q3 -8 3 -15q0 -25 -32 -25h-90
q-30 0 -39 29l-40 122h-272l-39 -122q-9 -29 -39 -29h-85q-32 0 -32 25q0 7 3 15l240 674q10 28 40 28h100q30 0 40 -28zM251 285h184l-93 282z" />
    <glyph glyph-name="Aring" unicode="&#xc5;" horiz-adv-x="694" 
d="M678 40q3 -8 3 -15q0 -25 -32 -25h-90q-30 0 -39 29l-40 122h-272l-39 -122q-9 -29 -39 -29h-85q-32 0 -32 25q0 7 3 15l241 676q-34 34 -34 79q0 54 35.5 92t85.5 38t86 -38t36 -91q0 -43 -31 -79zM345 850q-22 0 -38.5 -15.5t-16.5 -38.5t15.5 -38.5t38.5 -15.5
t39 15.5t16 38.5t-16 38.5t-38 15.5zM251 285h184l-93 282z" />
    <glyph glyph-name="AE" unicode="&#xc6;" horiz-adv-x="1018" 
d="M926 138q35 0 35 -35v-68q0 -35 -35 -35h-420q-35 0 -35 35v116h-228l-66 -126q-13 -25 -41 -25h-95q-30 0 -30 23q0 10 5 19l377 676q13 24 42 24h478q35 0 35 -35v-64q0 -35 -35 -35h-285v-148h233q35 0 35 -35v-64q0 -35 -35 -35h-233v-188h298zM471 285v299
l-157 -299h157z" />
    <glyph glyph-name="Ccedilla" unicode="&#xc7;" horiz-adv-x="666" 
d="M346 -228q-8 0 -32 2q-32 3 -32 37v16q0 34 22 34q5 0 14 -1t12 -1q65 0 65 26t-57 26q-21 0 -21 35v45q-132 23 -201 122.5t-69 256.5q0 176 92.5 281t242.5 105q137 0 229 -99q10 -10 10 -23q0 -15 -15 -27l-52 -44q-11 -10 -23 -10q-13 0 -26 13q-52 50 -123 50
q-81 0 -128 -67.5t-47 -178.5q0 -112 47.5 -178.5t132.5 -66.5q75 0 133 63q14 14 26 14t23 -11l51 -50q13 -13 13 -26q0 -12 -10 -23q-90 -100 -222 -106v-10q89 -10 89 -94q0 -58 -40 -84t-104 -26z" />
    <glyph glyph-name="Egrave" unicode="&#xc8;" horiz-adv-x="623" 
d="M400 807q-12 -18 -28 -18q-10 0 -20 6l-159 88q-19 10 -19 27q0 11 7 21l24 39q10 17 26 17q11 0 23 -9l142 -116q15 -12 15 -27q0 -11 -7 -22zM110 0q-35 0 -35 35v672q0 35 35 35h407q35 0 35 -35v-64q0 -35 -35 -35h-285v-148h233q35 0 35 -35v-64q0 -35 -35 -35h-233
v-188h298q35 0 35 -35v-68q0 -35 -35 -35h-420z" />
    <glyph glyph-name="Eacute" unicode="&#xc9;" horiz-adv-x="623" 
d="M272 795q-10 -6 -19 -6q-17 0 -29 18l-4 6q-7 11 -7 22q0 15 15 27l141 116q12 9 23 9q16 0 26 -17l24 -40q6 -10 6 -20q0 -17 -19 -27zM110 0q-35 0 -35 35v672q0 35 35 35h407q35 0 35 -35v-64q0 -35 -35 -35h-285v-148h233q35 0 35 -35v-64q0 -35 -35 -35h-233v-188
h298q35 0 35 -35v-68q0 -35 -35 -35h-420z" />
    <glyph glyph-name="Ecircumflex" unicode="&#xca;" horiz-adv-x="623" 
d="M482 802q-12 -16 -27 -16q-9 0 -22 8l-121 80l-121 -79q-10 -7 -22 -7q-15 0 -27 15l-3 4q-9 12 -9 23q0 13 13 26l106 103q17 17 43 17h40q26 0 43 -17l106 -103q13 -13 13 -26q0 -11 -9 -23zM110 0q-35 0 -35 35v672q0 35 35 35h407q35 0 35 -35v-64q0 -35 -35 -35
h-285v-148h233q35 0 35 -35v-64q0 -35 -35 -35h-233v-188h298q35 0 35 -35v-68q0 -35 -35 -35h-420z" />
    <glyph glyph-name="Edieresis" unicode="&#xcb;" horiz-adv-x="623" 
d="M206 786q-30 0 -51.5 21.5t-21.5 51.5t21.5 51.5t51.5 21.5t51.5 -21.5t21.5 -51.5t-21.5 -51.5t-51.5 -21.5zM417 786q-30 0 -51.5 21.5t-21.5 51.5t21.5 51.5t51.5 21.5t51.5 -21.5t21.5 -51.5t-21.5 -51.5t-51.5 -21.5zM110 0q-35 0 -35 35v672q0 35 35 35h407
q35 0 35 -35v-64q0 -35 -35 -35h-285v-148h233q35 0 35 -35v-64q0 -35 -35 -35h-233v-188h298q35 0 35 -35v-68q0 -35 -35 -35h-420z" />
    <glyph glyph-name="Igrave" unicode="&#xcc;" horiz-adv-x="316" 
d="M246 807q-12 -18 -28 -18q-10 0 -20 6l-159 88q-19 10 -19 27q0 11 7 21l24 39q10 17 26 17q11 0 23 -9l142 -116q15 -12 15 -27q0 -11 -7 -22zM115 0q-35 0 -35 35v672q0 35 35 35h87q35 0 35 -35v-672q0 -35 -35 -35h-87z" />
    <glyph glyph-name="Iacute" unicode="&#xcd;" horiz-adv-x="316" 
d="M118 795q-10 -6 -19 -6q-17 0 -29 18l-4 6q-7 11 -7 22q0 15 15 27l141 116q12 9 23 9q16 0 26 -17l24 -40q6 -10 6 -20q0 -17 -19 -27zM115 0q-35 0 -35 35v672q0 35 35 35h87q35 0 35 -35v-672q0 -35 -35 -35h-87z" />
    <glyph glyph-name="Icircumflex" unicode="&#xce;" horiz-adv-x="316" 
d="M328 802q-12 -16 -27 -16q-9 0 -22 8l-121 80l-121 -79q-10 -7 -22 -7q-15 0 -27 15l-3 4q-9 12 -9 23q0 13 13 26l106 103q17 17 43 17h40q26 0 43 -17l106 -103q13 -13 13 -26q0 -11 -9 -23zM115 0q-35 0 -35 35v672q0 35 35 35h87q35 0 35 -35v-672q0 -35 -35 -35h-87
z" />
    <glyph glyph-name="Idieresis" unicode="&#xcf;" horiz-adv-x="316" 
d="M52 786q-30 0 -51.5 21.5t-21.5 51.5t21.5 51.5t51.5 21.5t51.5 -21.5t21.5 -51.5t-21.5 -51.5t-51.5 -21.5zM263 786q-30 0 -51.5 21.5t-21.5 51.5t21.5 51.5t51.5 21.5t51.5 -21.5t21.5 -51.5t-21.5 -51.5t-51.5 -21.5zM115 0q-35 0 -35 35v672q0 35 35 35h87
q35 0 35 -35v-672q0 -35 -35 -35h-87z" />
    <glyph glyph-name="Eth" unicode="&#xd0;" horiz-adv-x="727" 
d="M110 0q-35 0 -35 35v291h-36q-35 0 -35 35v28q0 35 35 35h36v283q0 35 35 35h240q163 0 246.5 -98t83.5 -274q0 -166 -81 -268t-240 -102h-249zM232 141h91q94 0 145.5 51.5t51.5 176.5q0 127 -50.5 179.5t-155.5 52.5h-82v-177h103q35 0 35 -35v-28q0 -35 -35 -35h-103
v-185z" />
    <glyph glyph-name="Ntilde" unicode="&#xd1;" horiz-adv-x="724" 
d="M427 781q-29 0 -64 19l-28 13q-22 11 -43 11q-23 0 -45 -13q-14 -9 -26 -9q-14 0 -24 13l-5 6q-11 13 -11 26q0 11 9 23q47 60 107 60q27 0 52 -14l34 -15q34 -15 48 -15q23 0 45 13q13 9 26 9q14 0 24 -13l5 -6q10 -12 10 -24q0 -15 -15 -33q-44 -51 -99 -51zM110 0
q-35 0 -35 35v672q0 35 35 35h78q28 0 42 -23l273 -430v418q0 35 35 35h75q35 0 35 -35v-672q0 -35 -35 -35h-78q-28 0 -42 23l-272 431v-419q0 -35 -35 -35h-76z" />
    <glyph glyph-name="Ograve" unicode="&#xd2;" horiz-adv-x="760" 
d="M469 807q-12 -18 -28 -18q-9 0 -20 6l-159 88q-19 10 -19 27q0 11 7 21l24 39q10 17 26 17q11 0 23 -9l142 -116q15 -12 15 -27q0 -11 -7 -22zM381 -15q-151 0 -242.5 104t-91.5 281q0 178 91.5 282t242.5 104q150 0 241.5 -104t91.5 -282q0 -177 -92 -281t-241 -104z
M380 125q83 0 128 67t45 177q0 112 -45 179.5t-128 67.5q-82 0 -127.5 -67t-45.5 -179q0 -111 45.5 -178t127.5 -67z" />
    <glyph glyph-name="Oacute" unicode="&#xd3;" horiz-adv-x="760" 
d="M341 795q-10 -6 -19 -6q-17 0 -29 18l-4 6q-7 11 -7 22q0 15 15 27l141 116q12 9 23 9q16 0 26 -17l24 -40q6 -10 6 -20q0 -17 -19 -27zM381 -15q-151 0 -242.5 104t-91.5 281q0 178 91.5 282t242.5 104q150 0 241.5 -104t91.5 -282q0 -177 -92 -281t-241 -104zM380 125
q83 0 128 67t45 177q0 112 -45 179.5t-128 67.5q-82 0 -127.5 -67t-45.5 -179q0 -111 45.5 -178t127.5 -67z" />
    <glyph glyph-name="Ocircumflex" unicode="&#xd4;" horiz-adv-x="760" 
d="M551 802q-12 -16 -27 -16q-9 0 -22 8l-121 80l-121 -79q-10 -7 -22 -7q-15 0 -27 15l-3 4q-9 12 -9 23q0 13 13 26l106 103q17 17 43 17h40q26 0 43 -17l106 -103q13 -13 13 -26q0 -11 -9 -23zM381 -15q-151 0 -242.5 104t-91.5 281q0 178 91.5 282t242.5 104
q150 0 241.5 -104t91.5 -282q0 -177 -92 -281t-241 -104zM380 125q83 0 128 67t45 177q0 112 -45 179.5t-128 67.5q-82 0 -127.5 -67t-45.5 -179q0 -111 45.5 -178t127.5 -67z" />
    <glyph glyph-name="Otilde" unicode="&#xd5;" horiz-adv-x="760" 
d="M446 781q-29 0 -64 19l-28 13q-22 11 -43 11q-23 0 -45 -13q-14 -9 -26 -9q-14 0 -24 13l-5 6q-11 13 -11 26q0 11 9 23q47 60 107 60q27 0 52 -14l34 -15q34 -15 48 -15q23 0 45 13q13 9 26 9q14 0 24 -13l5 -6q10 -12 10 -24q0 -15 -15 -33q-44 -51 -99 -51zM381 -15
q-151 0 -242.5 104t-91.5 281q0 178 91.5 282t242.5 104q150 0 241.5 -104t91.5 -282q0 -177 -92 -281t-241 -104zM380 125q83 0 128 67t45 177q0 112 -45 179.5t-128 67.5q-82 0 -127.5 -67t-45.5 -179q0 -111 45.5 -178t127.5 -67z" />
    <glyph glyph-name="Odieresis" unicode="&#xd6;" horiz-adv-x="760" 
d="M275 786q-30 0 -51.5 21.5t-21.5 51.5t21.5 51.5t51.5 21.5t51.5 -21.5t21.5 -51.5t-21.5 -51.5t-51.5 -21.5zM486 786q-30 0 -51.5 21.5t-21.5 51.5t21.5 51.5t51.5 21.5t51.5 -21.5t21.5 -51.5t-21.5 -51.5t-51.5 -21.5zM381 -15q-151 0 -242.5 104t-91.5 281
q0 178 91.5 282t242.5 104q150 0 241.5 -104t91.5 -282q0 -177 -92 -281t-241 -104zM380 125q83 0 128 67t45 177q0 112 -45 179.5t-128 67.5q-82 0 -127.5 -67t-45.5 -179q0 -111 45.5 -178t127.5 -67z" />
    <glyph glyph-name="multiply" unicode="&#xd7;" horiz-adv-x="600" 
d="M494 256q13 -13 13 -25q0 -13 -12 -25l-27 -28q-12 -12 -25 -12t-25 12l-118 116l-119 -118q-12 -12 -24 -12q-14 0 -26 14l-25 29q-10 11 -10 25q0 13 12 25l114 113l-115 113q-12 12 -12 25q0 14 10 25l26 30q12 14 26 14q12 0 24 -12l120 -118l117 116q12 12 24 12
q13 0 25 -14l26 -29q11 -13 11 -24q0 -13 -12 -25l-114 -113z" />
    <glyph glyph-name="Oslash" unicode="&#xd8;" horiz-adv-x="760" 
d="M630 643q84 -103 84 -273q0 -177 -92 -281t-241 -104q-109 0 -188 55l-24 -33q-12 -16 -26 -16q-9 0 -22 8l-12 8q-17 12 -17 27q0 11 8 22l31 42q-84 103 -84 272q0 178 91.5 282t242.5 104q108 0 186 -55l24 33q12 16 27 16q12 0 22 -7l13 -9q16 -12 16 -26
q0 -10 -8 -23zM207 370q0 -77 23 -135l250 345q-42 36 -100 36q-82 0 -127.5 -67t-45.5 -179zM380 125q83 0 128 67t45 177q0 76 -22 136l-251 -345q43 -35 100 -35z" />
    <glyph glyph-name="Ugrave" unicode="&#xd9;" horiz-adv-x="700" 
d="M441 807q-12 -18 -28 -18q-9 0 -20 6l-159 88q-19 10 -19 27q0 11 7 21l24 39q10 17 26 17q11 0 23 -9l142 -116q15 -12 15 -27q0 -11 -7 -22zM351 -15q-56 0 -104.5 15t-89 45.5t-64 85t-23.5 126.5v450q0 35 35 35h87q35 0 35 -35v-450q0 -61 34 -96.5t91 -35.5
q60 0 93.5 33t33.5 93v456q0 35 35 35h81q35 0 35 -35v-457q0 -71 -23.5 -124.5t-64.5 -83t-88.5 -43.5t-102.5 -14z" />
    <glyph glyph-name="Uacute" unicode="&#xda;" horiz-adv-x="700" 
d="M313 795q-10 -6 -19 -6q-17 0 -29 18l-4 6q-7 11 -7 22q0 15 15 27l141 116q12 9 23 9q16 0 26 -17l24 -40q6 -10 6 -20q0 -17 -19 -27zM351 -15q-56 0 -104.5 15t-89 45.5t-64 85t-23.5 126.5v450q0 35 35 35h87q35 0 35 -35v-450q0 -61 34 -96.5t91 -35.5q60 0 93.5 33
t33.5 93v456q0 35 35 35h81q35 0 35 -35v-457q0 -71 -23.5 -124.5t-64.5 -83t-88.5 -43.5t-102.5 -14z" />
    <glyph glyph-name="Ucircumflex" unicode="&#xdb;" horiz-adv-x="700" 
d="M523 802q-12 -16 -27 -16q-9 0 -22 8l-121 80l-121 -79q-10 -7 -22 -7q-15 0 -27 15l-3 4q-9 12 -9 23q0 13 13 26l106 103q17 17 43 17h40q26 0 43 -17l106 -103q13 -13 13 -26q0 -11 -9 -23zM351 -15q-56 0 -104.5 15t-89 45.5t-64 85t-23.5 126.5v450q0 35 35 35h87
q35 0 35 -35v-450q0 -61 34 -96.5t91 -35.5q60 0 93.5 33t33.5 93v456q0 35 35 35h81q35 0 35 -35v-457q0 -71 -23.5 -124.5t-64.5 -83t-88.5 -43.5t-102.5 -14z" />
    <glyph glyph-name="Udieresis" unicode="&#xdc;" horiz-adv-x="700" 
d="M247 786q-30 0 -51.5 21.5t-21.5 51.5t21.5 51.5t51.5 21.5t51.5 -21.5t21.5 -51.5t-21.5 -51.5t-51.5 -21.5zM458 786q-30 0 -51.5 21.5t-21.5 51.5t21.5 51.5t51.5 21.5t51.5 -21.5t21.5 -51.5t-21.5 -51.5t-51.5 -21.5zM351 -15q-56 0 -104.5 15t-89 45.5t-64 85
t-23.5 126.5v450q0 35 35 35h87q35 0 35 -35v-450q0 -61 34 -96.5t91 -35.5q60 0 93.5 33t33.5 93v456q0 35 35 35h81q35 0 35 -35v-457q0 -71 -23.5 -124.5t-64.5 -83t-88.5 -43.5t-102.5 -14z" />
    <glyph glyph-name="Yacute" unicode="&#xdd;" horiz-adv-x="665" 
d="M293 795q-10 -6 -19 -6q-17 0 -29 18l-4 6q-7 11 -7 22q0 15 15 27l141 116q12 9 23 9q16 0 26 -17l24 -40q6 -10 6 -20q0 -17 -19 -27zM610 742q30 0 30 -23q0 -10 -5 -19l-223 -418v-247q0 -35 -35 -35h-83q-35 0 -35 35v242l-228 423q-6 10 -6 20q0 22 30 22h96
q28 0 41 -25l142 -282l144 282q12 25 41 25h91z" />
    <glyph glyph-name="Thorn" unicode="&#xde;" horiz-adv-x="660" 
d="M110 0q-35 0 -35 35v672q0 35 35 35h87q35 0 35 -35v-93h137q130 0 193 -65t63 -168q0 -118 -64.5 -178.5t-182.5 -60.5h-146v-107q0 -35 -35 -35h-87zM232 275h135q49 0 73.5 29t24.5 73q0 42 -27.5 71.5t-82.5 29.5h-123v-203z" />
    <glyph glyph-name="germandbls" unicode="&#xdf;" horiz-adv-x="641" 
d="M368 -11q-50 0 -93 13q-23 7 -23 31q0 4 2 14l19 61q7 24 30 24q3 0 13 -2q18 -3 33 -3q37 0 65.5 26t28.5 78q0 43 -34.5 70.5t-96.5 27.5h-7q-35 0 -35 35v66q0 35 35 35h8q39 0 64.5 22t25.5 59q0 32 -23.5 53t-68.5 21t-70 -25t-25 -66v-494q0 -35 -35 -35h-81
q-35 0 -35 35v495q0 113 66.5 169t183.5 56q106 0 174.5 -51t68.5 -146q0 -44 -27 -88t-77 -63q69 -15 106.5 -68.5t37.5 -114.5q0 -121 -63.5 -178t-166.5 -57z" />
    <glyph glyph-name="agrave" unicode="&#xe0;" horiz-adv-x="597" 
d="M394 657q-12 -18 -28 -18q-10 0 -20 6l-157 88q-19 11 -19 27q0 8 7 20l24 39q11 18 26 18q11 0 22 -9l141 -116q15 -12 15 -27q0 -11 -7 -22zM211 -11q-82 0 -127.5 46.5t-45.5 120.5q0 44 14.5 77.5t38.5 54.5t62.5 35.5t77.5 22t94 12.5l61 6v23q0 30 -26.5 48.5
t-70.5 18.5q-70 0 -137 -49q-12 -9 -24 -9q-15 0 -25 16l-30 44q-8 13 -8 23q0 15 15 26q98 74 220 74q117 0 177 -57.5t60 -149.5v-337q0 -35 -35 -35h-74q-35 0 -35 29v29q-94 -69 -182 -69zM260 114q61 0 126 48v95l-39 -5q-86 -10 -122 -29t-36 -56q0 -25 20 -39t51 -14
z" />
    <glyph glyph-name="aacute" unicode="&#xe1;" horiz-adv-x="597" 
d="M264 645q-10 -6 -20 -6q-16 0 -28 18l-4 6q-7 11 -7 22q0 15 15 27l141 116q12 9 23 9q16 0 26 -17l24 -40q6 -10 6 -20q0 -17 -19 -27zM211 -11q-82 0 -127.5 46.5t-45.5 120.5q0 44 14.5 77.5t38.5 54.5t62.5 35.5t77.5 22t94 12.5l61 6v23q0 30 -26.5 48.5t-70.5 18.5
q-70 0 -137 -49q-12 -9 -24 -9q-15 0 -25 16l-30 44q-8 13 -8 23q0 15 15 26q98 74 220 74q117 0 177 -57.5t60 -149.5v-337q0 -35 -35 -35h-74q-35 0 -35 29v29q-94 -69 -182 -69zM260 114q61 0 126 48v95l-39 -5q-86 -10 -122 -29t-36 -56q0 -25 20 -39t51 -14z" />
    <glyph glyph-name="acircumflex" unicode="&#xe2;" horiz-adv-x="597" 
d="M468 652q-12 -16 -27 -16q-9 0 -22 8l-121 80l-121 -79q-10 -7 -22 -7q-15 0 -27 15l-3 4q-9 12 -9 23q0 13 13 26l106 103q17 17 43 17h40q26 0 43 -17l106 -103q13 -13 13 -26q0 -11 -9 -23zM211 -11q-82 0 -127.5 46.5t-45.5 120.5q0 44 14.5 77.5t38.5 54.5
t62.5 35.5t77.5 22t94 12.5l61 6v23q0 30 -26.5 48.5t-70.5 18.5q-70 0 -137 -49q-12 -9 -24 -9q-15 0 -25 16l-30 44q-8 13 -8 23q0 15 15 26q98 74 220 74q117 0 177 -57.5t60 -149.5v-337q0 -35 -35 -35h-74q-35 0 -35 29v29q-94 -69 -182 -69zM260 114q61 0 126 48v95
l-39 -5q-86 -10 -122 -29t-36 -56q0 -25 20 -39t51 -14z" />
    <glyph glyph-name="atilde" unicode="&#xe3;" horiz-adv-x="597" 
d="M370 651q-29 0 -64 19l-28 13q-22 11 -43 11q-23 0 -45 -13q-14 -9 -26 -9q-14 0 -24 13l-5 6q-11 13 -11 26q0 11 9 23q47 60 107 60q27 0 52 -14l34 -15q34 -15 48 -15q23 0 45 13q13 9 26 9q14 0 24 -13l5 -6q10 -12 10 -24q0 -15 -15 -33q-44 -51 -99 -51zM211 -11
q-82 0 -127.5 46.5t-45.5 120.5q0 44 14.5 77.5t38.5 54.5t62.5 35.5t77.5 22t94 12.5l61 6v23q0 30 -26.5 48.5t-70.5 18.5q-70 0 -137 -49q-12 -9 -24 -9q-15 0 -25 16l-30 44q-8 13 -8 23q0 15 15 26q98 74 220 74q117 0 177 -57.5t60 -149.5v-337q0 -35 -35 -35h-74
q-35 0 -35 29v29q-94 -69 -182 -69zM260 114q61 0 126 48v95l-39 -5q-86 -10 -122 -29t-36 -56q0 -25 20 -39t51 -14z" />
    <glyph glyph-name="adieresis" unicode="&#xe4;" horiz-adv-x="597" 
d="M199 638q-30 0 -51.5 21.5t-21.5 51.5t21.5 51.5t51.5 21.5t51.5 -21.5t21.5 -51.5t-21.5 -51.5t-51.5 -21.5zM410 638q-30 0 -51.5 21.5t-21.5 51.5t21.5 51.5t51.5 21.5t51.5 -21.5t21.5 -51.5t-21.5 -51.5t-51.5 -21.5zM211 -11q-82 0 -127.5 46.5t-45.5 120.5
q0 44 14.5 77.5t38.5 54.5t62.5 35.5t77.5 22t94 12.5l61 6v23q0 30 -26.5 48.5t-70.5 18.5q-70 0 -137 -49q-12 -9 -24 -9q-15 0 -25 16l-30 44q-8 13 -8 23q0 15 15 26q98 74 220 74q117 0 177 -57.5t60 -149.5v-337q0 -35 -35 -35h-74q-35 0 -35 29v29q-94 -69 -182 -69z
M260 114q61 0 126 48v95l-39 -5q-86 -10 -122 -29t-36 -56q0 -25 20 -39t51 -14z" />
    <glyph glyph-name="aring" unicode="&#xe5;" horiz-adv-x="597" 
d="M302 638q-47 0 -80 35t-33 85q0 49 33 84.5t80 35.5q48 0 80 -36.5t32 -83.5q0 -48 -32 -84t-80 -36zM302 720q17 0 28.5 11t11.5 27t-11.5 27t-28.5 11t-29 -11t-12 -27t12 -27t29 -11zM211 -11q-82 0 -127.5 46.5t-45.5 120.5q0 44 14.5 77.5t38.5 54.5t62.5 35.5
t77.5 22t94 12.5l61 6v23q0 30 -26.5 48.5t-70.5 18.5q-70 0 -137 -49q-12 -9 -24 -9q-15 0 -25 16l-30 44q-8 13 -8 23q0 15 15 26q98 74 220 74q117 0 177 -57.5t60 -149.5v-337q0 -35 -35 -35h-74q-35 0 -35 29v29q-94 -69 -182 -69zM260 114q61 0 126 48v95l-39 -5
q-86 -10 -122 -29t-36 -56q0 -25 20 -39t51 -14z" />
    <glyph glyph-name="ae" unicode="&#xe6;" horiz-adv-x="960" 
d="M920 276q2 -36 -35 -36h-348q3 -62 42.5 -89t97.5 -27q62 0 115 42q14 11 25 11q12 0 24 -13l45 -50q11 -13 11 -24q0 -13 -13 -25q-85 -76 -220 -76q-148 0 -221 98q-113 -98 -226 -98q-86 0 -132.5 46t-46.5 121q0 44 14.5 77.5t38.5 54.5t62.5 35.5t77.5 22t94 12.5
l61 6v23q0 30 -25.5 48.5t-71.5 18.5q-68 0 -136 -50q-13 -8 -23 -8q-14 0 -26 16l-31 44q-8 11 -8 22q0 15 16 27q99 74 218 74q62 0 108.5 -21.5t69.5 -58.5q65 80 178 80q64 0 114.5 -24.5t81.5 -68t48 -96t21 -114.5zM538 347h232q-4 50 -34.5 78.5t-79.5 28.5
q-48 0 -79 -28t-39 -79zM260 114q65 0 143 62q-15 42 -16 82l-41 -6q-87 -11 -122 -30.5t-35 -54.5q0 -25 20 -39t51 -14z" />
    <glyph glyph-name="ccedilla" unicode="&#xe7;" horiz-adv-x="573" 
d="M291 -232q-7 0 -31 2q-32 3 -32 37v21q0 34 22 34q5 0 13 -1t12 -1q65 0 65 24t-56 24q-22 0 -22 35v51q-98 18 -158.5 96.5t-60.5 193.5q0 134 77 214.5t201 80.5q128 0 205 -88q10 -10 10 -22q0 -15 -15 -27l-52 -44q-10 -10 -22 -10q-13 0 -27 15q-41 41 -97 41
q-57 0 -90.5 -41t-33.5 -122q0 -78 34 -117.5t91 -39.5q64 0 111 50q13 15 27 15q12 0 23 -12l48 -49q12 -12 12 -25q0 -12 -11 -25q-72 -78 -188 -87v-15q90 -10 90 -95q0 -60 -40 -86.5t-105 -26.5z" />
    <glyph glyph-name="egrave" unicode="&#xe8;" horiz-adv-x="617" 
d="M400 657q-12 -18 -28 -18q-10 0 -20 6l-157 88q-19 11 -19 27q0 8 7 20l24 39q11 18 26 18q11 0 22 -9l141 -116q15 -12 15 -27q0 -11 -7 -22zM321 -11q-126 0 -202 81.5t-76 213.5q0 131 72 213t197 82q65 0 115 -24.5t81 -68t48 -96t21 -114.5q2 -36 -35 -36h-348
q3 -62 42 -89t98 -27q61 0 115 42q14 11 25 11q13 0 25 -13l45 -50q12 -13 12 -25q0 -11 -9 -20q-89 -80 -226 -80zM196 347h232q-5 50 -35.5 78.5t-79.5 28.5q-48 0 -78.5 -28t-38.5 -79z" />
    <glyph glyph-name="eacute" unicode="&#xe9;" horiz-adv-x="617" 
d="M288 645q-10 -6 -20 -6q-16 0 -28 18l-4 6q-7 11 -7 22q0 15 15 27l141 116q12 9 23 9q16 0 26 -17l24 -40q6 -10 6 -20q0 -17 -19 -27zM321 -11q-126 0 -202 81.5t-76 213.5q0 131 72 213t197 82q65 0 115 -24.5t81 -68t48 -96t21 -114.5q2 -36 -35 -36h-348
q3 -62 42 -89t98 -27q61 0 115 42q14 11 25 11q13 0 25 -13l45 -50q12 -13 12 -25q0 -11 -9 -20q-89 -80 -226 -80zM196 347h232q-5 50 -35.5 78.5t-79.5 28.5q-48 0 -78.5 -28t-38.5 -79z" />
    <glyph glyph-name="ecircumflex" unicode="&#xea;" horiz-adv-x="617" 
d="M479 652q-12 -16 -27 -16q-9 0 -22 8l-121 80l-121 -79q-10 -7 -22 -7q-15 0 -27 15l-3 4q-9 12 -9 23q0 13 13 26l106 103q17 17 43 17h40q26 0 43 -17l106 -103q13 -13 13 -26q0 -11 -9 -23zM321 -11q-126 0 -202 81.5t-76 213.5q0 131 72 213t197 82q65 0 115 -24.5
t81 -68t48 -96t21 -114.5q2 -36 -35 -36h-348q3 -62 42 -89t98 -27q61 0 115 42q14 11 25 11q13 0 25 -13l45 -50q12 -13 12 -25q0 -11 -9 -20q-89 -80 -226 -80zM196 347h232q-5 50 -35.5 78.5t-79.5 28.5q-48 0 -78.5 -28t-38.5 -79z" />
    <glyph glyph-name="edieresis" unicode="&#xeb;" horiz-adv-x="617" 
d="M207 638q-30 0 -51.5 21.5t-21.5 51.5t21.5 51.5t51.5 21.5t51.5 -21.5t21.5 -51.5t-21.5 -51.5t-51.5 -21.5zM418 638q-30 0 -51.5 21.5t-21.5 51.5t21.5 51.5t51.5 21.5t51.5 -21.5t21.5 -51.5t-21.5 -51.5t-51.5 -21.5zM321 -11q-126 0 -202 81.5t-76 213.5
q0 131 72 213t197 82q65 0 115 -24.5t81 -68t48 -96t21 -114.5q2 -36 -35 -36h-348q3 -62 42 -89t98 -27q61 0 115 42q14 11 25 11q13 0 25 -13l45 -50q12 -13 12 -25q0 -11 -9 -20q-89 -80 -226 -80zM196 347h232q-5 50 -35.5 78.5t-79.5 28.5q-48 0 -78.5 -28t-38.5 -79z
" />
    <glyph glyph-name="igrave" unicode="&#xec;" horiz-adv-x="282" 
d="M228 657q-12 -18 -28 -18q-10 0 -20 6l-157 88q-19 11 -19 27q0 8 7 20l24 39q11 18 26 18q11 0 22 -9l141 -116q15 -12 15 -27q0 -11 -7 -22zM101 0q-35 0 -35 35v498q0 35 35 35h80q35 0 35 -35v-498q0 -35 -35 -35h-80z" />
    <glyph glyph-name="iacute" unicode="&#xed;" horiz-adv-x="282" 
d="M102 645q-10 -6 -20 -6q-16 0 -28 18l-4 6q-7 11 -7 22q0 15 15 27l141 116q12 9 23 9q16 0 26 -17l24 -40q6 -10 6 -20q0 -17 -19 -27zM101 0q-35 0 -35 35v498q0 35 35 35h80q35 0 35 -35v-498q0 -35 -35 -35h-80z" />
    <glyph glyph-name="icircumflex" unicode="&#xee;" horiz-adv-x="282" 
d="M311 652q-12 -16 -27 -16q-9 0 -22 8l-121 80l-121 -79q-10 -7 -22 -7q-15 0 -27 15l-3 4q-9 12 -9 23q0 13 13 26l106 103q17 17 43 17h40q26 0 43 -17l106 -103q13 -13 13 -26q0 -11 -9 -23zM101 0q-35 0 -35 35v498q0 35 35 35h80q35 0 35 -35v-498q0 -35 -35 -35h-80
z" />
    <glyph glyph-name="idieresis" unicode="&#xef;" horiz-adv-x="282" 
d="M35 638q-30 0 -51.5 21.5t-21.5 51.5t21.5 51.5t51.5 21.5t51.5 -21.5t21.5 -51.5t-21.5 -51.5t-51.5 -21.5zM246 638q-30 0 -51.5 21.5t-21.5 51.5t21.5 51.5t51.5 21.5t51.5 -21.5t21.5 -51.5t-21.5 -51.5t-51.5 -21.5zM101 0q-35 0 -35 35v498q0 35 35 35h80
q35 0 35 -35v-498q0 -35 -35 -35h-80z" />
    <glyph glyph-name="eth" unicode="&#xf0;" horiz-adv-x="645" 
d="M426 651q176 -136 176 -371q0 -129 -77.5 -210t-202.5 -81q-124 0 -201.5 78t-77.5 202q0 119 74 188t181 69q61 0 105 -27q-29 49 -96 95l-100 -47q-10 -5 -18 -5q-19 0 -28 22l-2 4q-4 8 -4 17q0 19 21 30l53 25l-16 7q-23 11 -23 29q0 6 5 18l15 32q9 21 30 21
q7 0 16 -3q49 -19 97 -46l92 43q8 4 17 4q20 0 29 -22l1 -2q4 -8 4 -17q0 -20 -21 -30zM322 124q56 0 90 35t34 106q0 136 -124 136q-123 0 -123 -136q0 -72 33.5 -106.5t89.5 -34.5z" />
    <glyph glyph-name="ntilde" unicode="&#xf1;" horiz-adv-x="626" 
d="M382 651q-29 0 -64 19l-28 13q-22 11 -43 11q-23 0 -45 -13q-14 -9 -26 -9q-14 0 -24 13l-5 6q-11 13 -11 26q0 11 9 23q47 60 107 60q27 0 52 -14l34 -15q34 -15 48 -15q23 0 45 13q13 9 26 9q14 0 24 -13l5 -6q10 -12 10 -24q0 -15 -15 -33q-44 -51 -99 -51zM397 579
q81 0 124.5 -47t43.5 -126v-371q0 -35 -35 -35h-80q-35 0 -35 35v303q0 51 -15 73.5t-56 22.5q-61 0 -128 -45v-354q0 -35 -35 -35h-81q-35 0 -35 35v498q0 35 35 35h78q35 0 35 -35v-12q89 58 184 58z" />
    <glyph glyph-name="ograve" unicode="&#xf2;" horiz-adv-x="642" 
d="M413 657q-12 -18 -28 -18q-9 0 -20 6l-157 88q-19 11 -19 27q0 8 7 20l24 39q10 18 26 18q12 0 22 -9l141 -116q15 -12 15 -27q0 -11 -7 -22zM321 -11q-126 0 -202 80.5t-76 214.5t76 214.5t202 80.5q125 0 201.5 -80.5t76.5 -214.5t-76.5 -214.5t-201.5 -80.5zM321 124
q57 0 90 40t33 120q0 81 -33.5 120.5t-89.5 39.5t-89 -39.5t-33 -120.5t33 -120.5t89 -39.5z" />
    <glyph glyph-name="oacute" unicode="&#xf3;" horiz-adv-x="642" 
d="M280 645q-10 -6 -19 -6q-17 0 -29 18l-4 6q-7 11 -7 22q0 15 15 27l141 116q12 9 23 9q16 0 26 -17l24 -40q6 -10 6 -20q0 -17 -19 -27zM321 -11q-126 0 -202 80.5t-76 214.5t76 214.5t202 80.5q125 0 201.5 -80.5t76.5 -214.5t-76.5 -214.5t-201.5 -80.5zM321 124
q57 0 90 40t33 120q0 81 -33.5 120.5t-89.5 39.5t-89 -39.5t-33 -120.5t33 -120.5t89 -39.5z" />
    <glyph glyph-name="ocircumflex" unicode="&#xf4;" horiz-adv-x="642" 
d="M491 652q-12 -16 -27 -16q-9 0 -22 8l-121 80l-121 -79q-10 -7 -22 -7q-15 0 -27 15l-3 4q-9 12 -9 23q0 13 13 26l106 103q17 17 43 17h40q26 0 43 -17l106 -103q13 -13 13 -26q0 -11 -9 -23zM321 -11q-126 0 -202 80.5t-76 214.5t76 214.5t202 80.5q125 0 201.5 -80.5
t76.5 -214.5t-76.5 -214.5t-201.5 -80.5zM321 124q57 0 90 40t33 120q0 81 -33.5 120.5t-89.5 39.5t-89 -39.5t-33 -120.5t33 -120.5t89 -39.5z" />
    <glyph glyph-name="otilde" unicode="&#xf5;" horiz-adv-x="642" 
d="M386 651q-29 0 -64 19l-28 13q-22 11 -43 11q-23 0 -45 -13q-14 -9 -26 -9q-14 0 -24 13l-5 6q-11 13 -11 26q0 11 9 23q47 60 107 60q27 0 52 -14l34 -15q34 -15 48 -15q23 0 45 13q13 9 26 9q14 0 24 -13l5 -6q10 -12 10 -24q0 -15 -15 -33q-44 -51 -99 -51zM321 -11
q-126 0 -202 80.5t-76 214.5t76 214.5t202 80.5q125 0 201.5 -80.5t76.5 -214.5t-76.5 -214.5t-201.5 -80.5zM321 124q57 0 90 40t33 120q0 81 -33.5 120.5t-89.5 39.5t-89 -39.5t-33 -120.5t33 -120.5t89 -39.5z" />
    <glyph glyph-name="odieresis" unicode="&#xf6;" horiz-adv-x="642" 
d="M216 631q-30 0 -51.5 21.5t-21.5 51.5t21.5 51.5t51.5 21.5t51.5 -21.5t21.5 -51.5t-21.5 -51.5t-51.5 -21.5zM427 631q-30 0 -51.5 21.5t-21.5 51.5t21.5 51.5t51.5 21.5t51.5 -21.5t21.5 -51.5t-21.5 -51.5t-51.5 -21.5zM321 -11q-126 0 -202 80.5t-76 214.5t76 214.5
t202 80.5q125 0 201.5 -80.5t76.5 -214.5t-76.5 -214.5t-201.5 -80.5zM321 124q57 0 90 40t33 120q0 81 -33.5 120.5t-89.5 39.5t-89 -39.5t-33 -120.5t33 -120.5t89 -39.5z" />
    <glyph glyph-name="divide" unicode="&#xf7;" horiz-adv-x="600" 
d="M300 477q-29 0 -49.5 20.5t-20.5 49.5t20.5 49.5t49.5 20.5t49.5 -20.5t20.5 -49.5t-20.5 -49.5t-49.5 -20.5zM97 312q-35 0 -35 35v47q0 35 35 35h406q35 0 35 -35v-47q0 -35 -35 -35h-406zM300 125q-29 0 -49.5 20.5t-20.5 49.5t20.5 49.5t49.5 20.5t49.5 -20.5
t20.5 -49.5t-20.5 -49.5t-49.5 -20.5z" />
    <glyph glyph-name="oslash" unicode="&#xf8;" horiz-adv-x="642" 
d="M533 487q66 -80 66 -203q0 -134 -76.5 -214.5t-201.5 -80.5q-83 0 -148 37l-18 -23q-12 -15 -26 -15q-11 0 -23 9l-14 11q-15 12 -15 26q0 11 9 23l21 27q-64 78 -64 200q0 134 76 214.5t202 80.5q81 0 145 -36l17 22q12 15 26 15q11 0 23 -9l14 -11q15 -12 15 -26
q0 -11 -9 -23zM199 284q0 -41 9 -71l170 218q-25 13 -57 13q-56 0 -89 -39.5t-33 -120.5zM321 124q57 0 90 40t33 120q0 41 -10 76l-173 -221q25 -15 60 -15z" />
    <glyph glyph-name="ugrave" unicode="&#xf9;" horiz-adv-x="626" 
d="M381 657q-12 -18 -28 -18q-9 0 -20 6l-157 88q-19 11 -19 27q0 8 7 20l24 39q10 18 26 18q12 0 22 -9l141 -116q15 -12 15 -27q0 -11 -7 -22zM526 568q35 0 35 -35v-498q0 -35 -35 -35h-78q-35 0 -35 35v12q-88 -58 -184 -58q-81 0 -124.5 47t-43.5 126v371q0 35 35 35
h81q35 0 35 -35v-303q0 -51 15 -73.5t56 -22.5q61 0 128 45v354q0 35 35 35h80z" />
    <glyph glyph-name="uacute" unicode="&#xfa;" horiz-adv-x="626" 
d="M294 645q-10 -6 -20 -6q-16 0 -28 18l-4 6q-7 11 -7 22q0 15 15 27l141 116q12 9 23 9q16 0 26 -17l24 -40q6 -10 6 -20q0 -17 -19 -27zM526 568q35 0 35 -35v-498q0 -35 -35 -35h-78q-35 0 -35 35v12q-88 -58 -184 -58q-81 0 -124.5 47t-43.5 126v371q0 35 35 35h81
q35 0 35 -35v-303q0 -51 15 -73.5t56 -22.5q61 0 128 45v354q0 35 35 35h80z" />
    <glyph glyph-name="ucircumflex" unicode="&#xfb;" horiz-adv-x="626" 
d="M485 652q-12 -16 -27 -16q-9 0 -22 8l-121 80l-121 -79q-10 -7 -22 -7q-15 0 -27 15l-3 4q-9 12 -9 23q0 13 13 26l106 103q17 17 43 17h40q26 0 43 -17l106 -103q13 -13 13 -26q0 -11 -9 -23zM526 568q35 0 35 -35v-498q0 -35 -35 -35h-78q-35 0 -35 35v12
q-88 -58 -184 -58q-81 0 -124.5 47t-43.5 126v371q0 35 35 35h81q35 0 35 -35v-303q0 -51 15 -73.5t56 -22.5q61 0 128 45v354q0 35 35 35h80z" />
    <glyph glyph-name="udieresis" unicode="&#xfc;" horiz-adv-x="626" 
d="M208 631q-30 0 -51.5 21.5t-21.5 51.5t21.5 51.5t51.5 21.5t51.5 -21.5t21.5 -51.5t-21.5 -51.5t-51.5 -21.5zM419 631q-30 0 -51.5 21.5t-21.5 51.5t21.5 51.5t51.5 21.5t51.5 -21.5t21.5 -51.5t-21.5 -51.5t-51.5 -21.5zM526 568q35 0 35 -35v-498q0 -35 -35 -35h-78
q-35 0 -35 35v12q-88 -58 -184 -58q-81 0 -124.5 47t-43.5 126v371q0 35 35 35h81q35 0 35 -35v-303q0 -51 15 -73.5t56 -22.5q61 0 128 45v354q0 35 35 35h80z" />
    <glyph glyph-name="yacute" unicode="&#xfd;" horiz-adv-x="567" 
d="M270 645q-10 -6 -20 -6q-16 0 -28 18l-4 6q-7 11 -7 22q0 15 15 27l141 116q12 9 23 9q16 0 26 -17l24 -40q6 -10 6 -20q0 -17 -19 -27zM517 568q31 0 31 -24q0 -7 -3 -16l-208 -578q-30 -83 -80 -117.5t-152 -34.5q-29 0 -56 3q-31 4 -31 38v69q0 33 32 33q9 0 26.5 -1
t24.5 -1q39 0 63 16t40 50l17 34l-197 488q-4 12 -4 16q0 25 32 25h82q30 0 40 -28l121 -327l103 326q9 29 39 29h80z" />
    <glyph glyph-name="thorn" unicode="&#xfe;" horiz-adv-x="642" 
d="M100 -202q-35 0 -35 35v888q0 35 35 35h81q35 0 35 -35v-202q71 59 157 59q101 0 163.5 -80.5t62.5 -213.5q0 -136 -63 -215t-163 -79q-94 0 -157 56v-213q0 -35 -35 -35h-81zM329 125q57 0 86 44.5t29 116.5q0 69 -28 113t-85 44q-46 0 -115 -60v-198q69 -60 113 -60z
" />
    <glyph glyph-name="ydieresis" unicode="&#xff;" horiz-adv-x="567" 
d="M181 631q-30 0 -51.5 21.5t-21.5 51.5t21.5 51.5t51.5 21.5t51.5 -21.5t21.5 -51.5t-21.5 -51.5t-51.5 -21.5zM392 631q-30 0 -51.5 21.5t-21.5 51.5t21.5 51.5t51.5 21.5t51.5 -21.5t21.5 -51.5t-21.5 -51.5t-51.5 -21.5zM517 568q31 0 31 -24q0 -7 -3 -16l-208 -578
q-30 -83 -80 -117.5t-152 -34.5q-29 0 -56 3q-31 4 -31 38v69q0 33 32 33q9 0 26.5 -1t24.5 -1q39 0 63 16t40 50l17 34l-197 488q-4 12 -4 16q0 25 32 25h82q30 0 40 -28l121 -327l103 326q9 29 39 29h80z" />
    <glyph glyph-name="Amacron" unicode="&#x100;" horiz-adv-x="694" 
d="M227 806q-35 0 -35 35v32q0 35 35 35h239q35 0 35 -35v-32q0 -35 -35 -35h-239zM678 40q3 -8 3 -15q0 -25 -32 -25h-90q-30 0 -39 29l-40 122h-272l-39 -122q-9 -29 -39 -29h-85q-32 0 -32 25q0 7 3 15l240 674q10 28 40 28h100q30 0 40 -28zM251 285h184l-93 282z" />
    <glyph glyph-name="amacron" unicode="&#x101;" horiz-adv-x="597" 
d="M184 676q-35 0 -35 35v32q0 35 35 35h239q35 0 35 -35v-32q0 -35 -35 -35h-239zM211 -11q-82 0 -127.5 46.5t-45.5 120.5q0 44 14.5 77.5t38.5 54.5t62.5 35.5t77.5 22t94 12.5l61 6v23q0 30 -26.5 48.5t-70.5 18.5q-70 0 -137 -49q-12 -9 -24 -9q-15 0 -25 16l-30 44
q-8 13 -8 23q0 15 15 26q98 74 220 74q117 0 177 -57.5t60 -149.5v-337q0 -35 -35 -35h-74q-35 0 -35 29v29q-94 -69 -182 -69zM260 114q61 0 126 48v95l-39 -5q-86 -10 -122 -29t-36 -56q0 -25 20 -39t51 -14z" />
    <glyph glyph-name="Abreve" unicode="&#x102;" horiz-adv-x="694" 
d="M347 776q-118 0 -157 114q-2 10 -2 13q0 23 26 31l5 1q10 2 13 2q16 0 33 -20q27 -33 82 -33t82 33q17 20 33 20q3 0 13 -2l4 -1q26 -6 26 -33q0 -9 -4 -18q-41 -107 -154 -107zM678 40q3 -8 3 -15q0 -25 -32 -25h-90q-30 0 -39 29l-40 122h-272l-39 -122q-9 -29 -39 -29
h-85q-32 0 -32 25q0 7 3 15l240 674q10 28 40 28h100q30 0 40 -28zM251 285h184l-93 282z" />
    <glyph glyph-name="abreve" unicode="&#x103;" horiz-adv-x="597" 
d="M295 646q-118 0 -157 114q-2 10 -2 13q0 23 26 31l5 1q10 2 13 2q18 0 33 -20q27 -33 82 -33t82 33q17 20 33 20q3 0 13 -2l4 -1q26 -6 26 -33q0 -9 -4 -18q-41 -107 -154 -107zM211 -11q-82 0 -127.5 46.5t-45.5 120.5q0 44 14.5 77.5t38.5 54.5t62.5 35.5t77.5 22
t94 12.5l61 6v23q0 30 -26.5 48.5t-70.5 18.5q-70 0 -137 -49q-12 -9 -24 -9q-15 0 -25 16l-30 44q-8 13 -8 23q0 15 15 26q98 74 220 74q117 0 177 -57.5t60 -149.5v-337q0 -35 -35 -35h-74q-35 0 -35 29v29q-94 -69 -182 -69zM260 114q61 0 126 48v95l-39 -5
q-86 -10 -122 -29t-36 -56q0 -25 20 -39t51 -14z" />
    <glyph glyph-name="Aogonek" unicode="&#x104;" horiz-adv-x="694" 
d="M678 40q3 -8 3 -15q0 -25 -32 -25h-40q-57 -51 -57 -85q0 -21 12.5 -32t32.5 -11h13q37 0 37 -31v-25q0 -33 -28 -40q-21 -5 -47 -5q-50 0 -84 25.5t-34 81.5q0 63 76 122l-50 151h-272l-39 -122q-9 -29 -39 -29h-85q-32 0 -32 25q0 7 3 15l240 674q10 28 40 28h100
q30 0 40 -28zM251 285h185l-94 282z" />
    <glyph glyph-name="aogonek" unicode="&#x105;" horiz-adv-x="597" 
d="M493 0q-57 -51 -57 -85q0 -21 12.5 -32t31.5 -11h17q34 0 34 -31v-25q0 -33 -29 -40q-20 -5 -46 -5q-50 0 -84 25.5t-34 81.5q0 62 75 122q-20 0 -20 29v29q-94 -69 -182 -69q-82 0 -127.5 46.5t-45.5 120.5q0 44 14.5 77.5t38.5 54.5t62.5 35.5t77.5 22t94 12.5l61 6v23
q0 30 -26.5 48.5t-70.5 18.5q-70 0 -137 -49q-12 -9 -24 -9q-15 0 -25 16l-30 44q-8 13 -8 23q0 15 15 26q98 74 220 74q117 0 177 -57.5t60 -149.5v-337q0 -35 -35 -35h-9zM386 162v95l-39 -5q-86 -10 -122 -29t-36 -56q0 -25 20 -39t51 -14q61 0 126 48z" />
    <glyph glyph-name="Cacute" unicode="&#x106;" horiz-adv-x="666" 
d="M342 795q-10 -6 -19 -6q-17 0 -29 18l-4 6q-7 11 -7 22q0 15 15 27l141 116q12 9 23 9q16 0 26 -17l24 -40q6 -10 6 -20q0 -17 -19 -27zM387 -15q-164 0 -252 104t-88 281q0 176 92.5 281t242.5 105q137 0 229 -99q10 -10 10 -23q0 -15 -15 -27l-52 -44q-11 -10 -23 -10
q-13 0 -26 13q-52 50 -123 50q-81 0 -128 -67.5t-47 -178.5q0 -112 47.5 -178.5t132.5 -66.5q75 0 133 63q14 14 26 14t23 -11l51 -50q13 -13 13 -26t-12 -26q-91 -104 -234 -104z" />
    <glyph glyph-name="cacute" unicode="&#x107;" horiz-adv-x="573" 
d="M301 645q-11 -6 -20 -6q-16 0 -28 18l-4 6q-7 11 -7 22q0 15 15 27l141 116q12 9 23 9q16 0 26 -17l24 -40q6 -10 6 -20q0 -17 -19 -27zM316 -11q-120 0 -196.5 81t-76.5 214q0 134 77 214.5t201 80.5q128 0 205 -88q10 -10 10 -22q0 -15 -15 -27l-52 -44
q-10 -10 -22 -10q-13 0 -27 15q-41 41 -97 41q-57 0 -90.5 -41t-33.5 -122q0 -78 34 -117.5t91 -39.5q64 0 111 50q13 15 27 15q12 0 23 -12l48 -49q12 -12 12 -26q0 -12 -11 -25q-44 -48 -95.5 -68t-122.5 -20z" />
    <glyph glyph-name="Ccircumflex" unicode="&#x108;" horiz-adv-x="666" 
d="M552 802q-12 -16 -27 -16q-9 0 -22 8l-121 80l-121 -79q-10 -7 -22 -7q-15 0 -27 15l-3 4q-9 12 -9 23q0 13 13 26l106 103q17 17 43 17h40q26 0 43 -17l106 -103q13 -13 13 -26q0 -11 -9 -23zM387 -15q-164 0 -252 104t-88 281q0 176 92.5 281t242.5 105q137 0 229 -99
q10 -10 10 -23q0 -15 -15 -27l-52 -44q-11 -10 -23 -10q-13 0 -26 13q-52 50 -123 50q-81 0 -128 -67.5t-47 -178.5q0 -112 47.5 -178.5t132.5 -66.5q75 0 133 63q14 14 26 14t23 -11l51 -50q13 -13 13 -26t-12 -26q-91 -104 -234 -104z" />
    <glyph glyph-name="ccircumflex" unicode="&#x109;" horiz-adv-x="573" 
d="M483 652q-12 -16 -27 -16q-9 0 -22 8l-121 80l-121 -79q-10 -7 -22 -7q-15 0 -27 15l-3 4q-9 12 -9 23q0 13 13 26l106 103q17 17 43 17h40q26 0 43 -17l106 -103q13 -13 13 -26q0 -11 -9 -23zM316 -11q-120 0 -196.5 81t-76.5 214q0 134 77 214.5t201 80.5
q128 0 205 -88q10 -10 10 -22q0 -15 -15 -27l-52 -44q-10 -10 -22 -10q-13 0 -27 15q-41 41 -97 41q-57 0 -90.5 -41t-33.5 -122q0 -78 34 -117.5t91 -39.5q64 0 111 50q13 15 27 15q12 0 23 -12l48 -49q12 -12 12 -26q0 -12 -11 -25q-44 -48 -95.5 -68t-122.5 -20z" />
    <glyph glyph-name="Cdotaccent" unicode="&#x10a;" horiz-adv-x="666" 
d="M382 780q-31 0 -53 22t-22 53t22 53t53 22t53 -22t22 -53t-22 -53t-53 -22zM387 -15q-164 0 -252 104t-88 281q0 176 92.5 281t242.5 105q137 0 229 -99q10 -10 10 -23q0 -15 -15 -27l-52 -44q-11 -10 -23 -10q-13 0 -26 13q-52 50 -123 50q-81 0 -128 -67.5t-47 -178.5
q0 -112 47.5 -178.5t132.5 -66.5q75 0 133 63q14 14 26 14t23 -11l51 -50q13 -13 13 -26t-12 -26q-91 -104 -234 -104z" />
    <glyph glyph-name="cdotaccent" unicode="&#x10b;" horiz-adv-x="573" 
d="M319 625q-31 0 -53 22t-22 53t22 53t53 22t53 -22t22 -53t-22 -53t-53 -22zM316 -11q-120 0 -196.5 81t-76.5 214q0 134 77 214.5t201 80.5q128 0 205 -88q10 -10 10 -22q0 -15 -15 -27l-52 -44q-10 -10 -22 -10q-13 0 -27 15q-41 41 -97 41q-57 0 -90.5 -41t-33.5 -122
q0 -78 34 -117.5t91 -39.5q64 0 111 50q13 15 27 15q12 0 23 -12l48 -49q12 -12 12 -26q0 -12 -11 -25q-44 -48 -95.5 -68t-122.5 -20z" />
    <glyph glyph-name="Ccaron" unicode="&#x10c;" horiz-adv-x="666" 
d="M362 775q-26 0 -43 17l-106 103q-13 13 -13 26q0 11 9 23l4 5q12 16 26 16q9 0 22 -8l121 -80l121 79q10 7 22 7q15 0 27 -15l3 -4q9 -12 9 -23q0 -13 -13 -26l-106 -103q-17 -17 -43 -17h-40zM387 -15q-164 0 -252 104t-88 281q0 176 92.5 281t242.5 105q137 0 229 -99
q10 -10 10 -23q0 -15 -15 -27l-52 -44q-11 -10 -23 -10q-13 0 -26 13q-52 50 -123 50q-81 0 -128 -67.5t-47 -178.5q0 -112 47.5 -178.5t132.5 -66.5q75 0 133 63q14 14 26 14t23 -11l51 -50q13 -13 13 -26t-12 -26q-91 -104 -234 -104z" />
    <glyph glyph-name="ccaron" unicode="&#x10d;" horiz-adv-x="573" 
d="M297 625q-26 0 -43 17l-106 103q-13 13 -13 26q0 11 9 23l4 5q12 16 26 16q9 0 22 -8l121 -80l121 79q10 7 22 7q15 0 27 -15l3 -4q9 -12 9 -23q0 -13 -13 -26l-106 -103q-17 -17 -43 -17h-40zM316 -11q-120 0 -196.5 81t-76.5 214q0 134 77 214.5t201 80.5
q128 0 205 -88q10 -10 10 -22q0 -15 -15 -27l-52 -44q-10 -10 -22 -10q-13 0 -27 15q-41 41 -97 41q-57 0 -90.5 -41t-33.5 -122q0 -78 34 -117.5t91 -39.5q64 0 111 50q13 15 27 15q12 0 23 -12l48 -49q12 -12 12 -26q0 -12 -11 -25q-44 -48 -95.5 -68t-122.5 -20z" />
    <glyph glyph-name="Dcaron" unicode="&#x10e;" horiz-adv-x="727" 
d="M304 775q-26 0 -43 17l-106 103q-13 13 -13 26q0 11 9 23l4 5q12 16 26 16q9 0 22 -8l121 -80l121 79q10 7 22 7q15 0 27 -15l3 -4q9 -12 9 -23q0 -13 -13 -26l-106 -103q-17 -17 -43 -17h-40zM110 0q-35 0 -35 35v672q0 35 35 35h240q163 0 246.5 -98t83.5 -274
q0 -166 -81 -268t-240 -102h-249zM232 141h91q94 0 145.5 51.5t51.5 176.5q0 127 -50.5 179.5t-155.5 52.5h-82v-460z" />
    <glyph glyph-name="dcaron" unicode="&#x10f;" horiz-adv-x="824" 
d="M720 762q39 0 61.5 -27t22.5 -75q0 -55 -27 -108t-80 -83q-11 -6 -19 -6q-18 0 -26 23l-1 2q-3 8 -3 15q0 17 22 31q50 29 53 80q-36 1 -57 21t-21 53q0 34 20 54t55 20zM270 -10q-101 0 -164 80.5t-63 213.5t63.5 213.5t163.5 80.5q93 0 157 -56v199q0 35 35 35h80
q35 0 35 -35v-686q0 -35 -35 -35h-72q-35 0 -35 30v29q-62 -69 -165 -69zM311 125q52 0 116 64v194q-2 1 -10.5 8.5t-12.5 10.5t-13 9.5t-14.5 10t-14.5 8.5t-16 7t-16 4t-17 2q-57 0 -85.5 -44.5t-28.5 -116.5q0 -69 27.5 -113t84.5 -44z" />
    <glyph glyph-name="Dcroat" unicode="&#x110;" horiz-adv-x="727" 
d="M110 0q-35 0 -35 35v291h-36q-35 0 -35 35v28q0 35 35 35h36v283q0 35 35 35h240q163 0 246.5 -98t83.5 -274q0 -166 -81 -268t-240 -102h-249zM232 141h91q94 0 145.5 51.5t51.5 176.5q0 127 -50.5 179.5t-155.5 52.5h-82v-177h103q35 0 35 -35v-28q0 -35 -35 -35h-103
v-185z" />
    <glyph glyph-name="dcroat" unicode="&#x111;" horiz-adv-x="642" 
d="M607 715q35 0 35 -35v-21q0 -35 -35 -35h-30v-589q0 -35 -35 -35h-72q-35 0 -35 30v29q-62 -69 -165 -69q-101 0 -164 80.5t-63 213.5t63.5 213.5t163.5 80.5q93 0 157 -56v102h-123q-35 0 -35 35v21q0 35 35 35h123v6q0 35 35 35h80q35 0 35 -35v-6h30zM427 189v194
q-2 1 -10.5 8.5t-12.5 10.5t-13 9.5t-14.5 10t-14.5 8.5t-16 7t-16 4t-17 2q-57 0 -85.5 -44.5t-28.5 -116.5q0 -69 27.5 -113t84.5 -44q52 0 116 64z" />
    <glyph glyph-name="Emacron" unicode="&#x112;" horiz-adv-x="623" 
d="M192 806q-35 0 -35 35v32q0 35 35 35h239q35 0 35 -35v-32q0 -35 -35 -35h-239zM110 0q-35 0 -35 35v672q0 35 35 35h407q35 0 35 -35v-64q0 -35 -35 -35h-285v-148h233q35 0 35 -35v-64q0 -35 -35 -35h-233v-188h298q35 0 35 -35v-68q0 -35 -35 -35h-420z" />
    <glyph glyph-name="emacron" unicode="&#x113;" horiz-adv-x="617" 
d="M184 676q-35 0 -35 35v32q0 35 35 35h239q35 0 35 -35v-32q0 -35 -35 -35h-239zM321 -11q-126 0 -202 81.5t-76 213.5q0 131 72 213t197 82q65 0 115 -24.5t81 -68t48 -96t21 -114.5q2 -36 -35 -36h-348q3 -62 42 -89t98 -27q61 0 115 42q14 11 25 11q13 0 25 -13l45 -50
q12 -13 12 -25q0 -11 -9 -20q-89 -80 -226 -80zM196 347h232q-5 50 -35.5 78.5t-79.5 28.5q-48 0 -78.5 -28t-38.5 -79z" />
    <glyph glyph-name="Ebreve" unicode="&#x114;" horiz-adv-x="623" 
d="M312 776q-118 0 -157 114q-2 10 -2 13q0 23 26 31l5 1q10 2 13 2q16 0 33 -20q27 -33 82 -33t82 33q17 20 33 20q3 0 13 -2l4 -1q26 -6 26 -33q0 -9 -4 -18q-41 -107 -154 -107zM110 0q-35 0 -35 35v672q0 35 35 35h407q35 0 35 -35v-64q0 -35 -35 -35h-285v-148h233
q35 0 35 -35v-64q0 -35 -35 -35h-233v-188h298q35 0 35 -35v-68q0 -35 -35 -35h-420z" />
    <glyph glyph-name="ebreve" unicode="&#x115;" horiz-adv-x="617" 
d="M310 646q-118 0 -157 114q-2 10 -2 13q0 23 26 31l5 1q10 2 13 2q18 0 33 -20q27 -33 82 -33t82 33q17 20 33 20q3 0 13 -2l4 -1q26 -6 26 -33q0 -9 -4 -18q-41 -107 -154 -107zM321 -11q-126 0 -202 81.5t-76 213.5q0 131 72 213t197 82q65 0 115 -24.5t81 -68t48 -96
t21 -114.5q2 -36 -35 -36h-348q3 -62 42 -89t98 -27q61 0 115 42q14 11 25 11q13 0 25 -13l45 -50q12 -13 12 -25q0 -11 -9 -20q-89 -80 -226 -80zM196 347h232q-5 50 -35.5 78.5t-79.5 28.5q-48 0 -78.5 -28t-38.5 -79z" />
    <glyph glyph-name="Edotaccent" unicode="&#x116;" horiz-adv-x="623" 
d="M312 780q-31 0 -53 22t-22 53t22 53t53 22t53 -22t22 -53t-22 -53t-53 -22zM110 0q-35 0 -35 35v672q0 35 35 35h407q35 0 35 -35v-64q0 -35 -35 -35h-285v-148h233q35 0 35 -35v-64q0 -35 -35 -35h-233v-188h298q35 0 35 -35v-68q0 -35 -35 -35h-420z" />
    <glyph glyph-name="edotaccent" unicode="&#x117;" horiz-adv-x="617" 
d="M309 625q-31 0 -53 22t-22 53t22 53t53 22t53 -22t22 -53t-22 -53t-53 -22zM321 -11q-126 0 -202 81.5t-76 213.5q0 131 72 213t197 82q65 0 115 -24.5t81 -68t48 -96t21 -114.5q2 -36 -35 -36h-348q3 -62 42 -89t98 -27q61 0 115 42q14 11 25 11q13 0 25 -13l45 -50
q12 -13 12 -25q0 -11 -9 -20q-89 -80 -226 -80zM196 347h232q-5 50 -35.5 78.5t-79.5 28.5q-48 0 -78.5 -28t-38.5 -79z" />
    <glyph glyph-name="Eogonek" unicode="&#x118;" horiz-adv-x="623" 
d="M530 138q35 0 35 -35v-68q0 -35 -35 -35h-28q-57 -51 -57 -85q0 -21 12.5 -32t32.5 -11h13q37 0 37 -31v-25q0 -33 -28 -40q-21 -5 -47 -5q-50 0 -84 25.5t-34 81.5q0 63 76 122h-313q-35 0 -35 35v672q0 35 35 35h407q35 0 35 -35v-64q0 -35 -35 -35h-285v-148h233
q35 0 35 -35v-64q0 -35 -35 -35h-233v-188h298z" />
    <glyph glyph-name="eogonek" unicode="&#x119;" horiz-adv-x="617" 
d="M334 124q61 0 115 42q14 11 25 11q13 0 25 -13l45 -50q11 -13 11 -24q0 -13 -12 -25q-22 -22 -49 -39q-38 -23 -61.5 -52.5t-23.5 -58.5q0 -21 12.5 -32t31.5 -11h17q34 0 34 -31v-25q0 -33 -29 -40q-20 -5 -46 -5q-50 0 -84 25.5t-34 81.5q0 64 80 116q-35 -5 -70 -5
q-126 0 -202 81.5t-76 213.5q0 131 72 213t197 82q65 0 115 -24.5t81 -68t48 -96t21 -114.5q2 -36 -35 -36h-348q3 -62 42 -89t98 -27zM313 454q-48 0 -78.5 -28t-38.5 -79h232q-5 50 -35.5 78.5t-79.5 28.5z" />
    <glyph glyph-name="Ecaron" unicode="&#x11a;" horiz-adv-x="623" 
d="M292 775q-26 0 -43 17l-106 103q-13 13 -13 26q0 11 9 23l4 5q12 16 26 16q9 0 22 -8l121 -80l121 79q10 7 22 7q15 0 27 -15l3 -4q9 -12 9 -23q0 -13 -13 -26l-106 -103q-17 -17 -43 -17h-40zM110 0q-35 0 -35 35v672q0 35 35 35h407q35 0 35 -35v-64q0 -35 -35 -35
h-285v-148h233q35 0 35 -35v-64q0 -35 -35 -35h-233v-188h298q35 0 35 -35v-68q0 -35 -35 -35h-420z" />
    <glyph glyph-name="ecaron" unicode="&#x11b;" horiz-adv-x="617" 
d="M287 625q-26 0 -43 17l-106 103q-13 13 -13 26q0 11 9 23l4 5q12 16 26 16q9 0 22 -8l121 -80l121 79q10 7 22 7q15 0 27 -15l3 -4q9 -12 9 -23q0 -13 -13 -26l-106 -103q-17 -17 -43 -17h-40zM321 -11q-126 0 -202 81.5t-76 213.5q0 131 72 213t197 82q65 0 115 -24.5
t81 -68t48 -96t21 -114.5q2 -36 -35 -36h-348q3 -62 42 -89t98 -27q61 0 115 42q14 11 25 11q13 0 25 -13l45 -50q12 -13 12 -25q0 -11 -9 -20q-89 -80 -226 -80zM196 347h232q-5 50 -35.5 78.5t-79.5 28.5q-48 0 -78.5 -28t-38.5 -79z" />
    <glyph glyph-name="Gcircumflex" unicode="&#x11c;" horiz-adv-x="746" 
d="M563 802q-12 -16 -27 -16q-9 0 -22 8l-121 80l-121 -79q-10 -7 -22 -7q-15 0 -27 15l-3 4q-9 12 -9 23q0 13 13 26l106 103q17 17 43 17h40q26 0 43 -17l106 -103q13 -13 13 -26q0 -11 -9 -23zM368 -15q-152 0 -236.5 104.5t-84.5 280.5q0 175 96.5 280.5t250.5 105.5
q145 0 236 -97q11 -11 11 -23q0 -14 -14 -26l-52 -45q-11 -10 -23 -10t-26 12q-52 49 -132 49q-84 0 -135.5 -68t-51.5 -178q0 -113 47 -179t138 -66q54 0 93.5 31.5t39.5 76.5v52h-120q-35 0 -35 35v63q0 35 35 35h235q35 0 35 -35v-348q0 -35 -35 -35h-43q-34 0 -38 32
l-5 35q-30 -38 -79 -60t-107 -22z" />
    <glyph glyph-name="gcircumflex" unicode="&#x11d;" horiz-adv-x="642" 
d="M481 652q-12 -16 -27 -16q-9 0 -22 8l-121 80l-121 -79q-10 -7 -22 -7q-15 0 -27 15l-3 4q-9 12 -9 23q0 13 13 26l106 103q17 17 43 17h40q26 0 43 -17l106 -103q13 -13 13 -26q0 -11 -9 -23zM303 -202q-119 0 -218 55q-18 11 -18 28q0 9 6 20l31 54q10 18 27 18
q9 0 21 -6q68 -37 148 -37q63 0 96.5 28t33.5 75v35q-71 -57 -160 -57q-101 0 -164 76.5t-63 206.5t63 207t164 77q96 0 165 -66v21q0 35 35 35h72q35 0 35 -35v-507q0 -103 -69.5 -165.5t-204.5 -62.5zM313 146q13 0 26.5 3.5t27 11t21.5 12.5t22 15t17 12v183
q-23 19 -34.5 27.5t-36 20.5t-45.5 12q-56 0 -84 -40t-28 -107q0 -68 28.5 -109t85.5 -41z" />
    <glyph glyph-name="Gbreve" unicode="&#x11e;" horiz-adv-x="746" 
d="M393 776q-118 0 -157 114q-2 10 -2 13q0 23 26 31l5 1q10 2 13 2q16 0 33 -20q27 -33 82 -33t82 33q17 20 33 20q3 0 13 -2l4 -1q26 -6 26 -33q0 -9 -4 -18q-41 -107 -154 -107zM368 -15q-152 0 -236.5 104.5t-84.5 280.5q0 175 96.5 280.5t250.5 105.5q145 0 236 -97
q11 -11 11 -23q0 -14 -14 -26l-52 -45q-11 -10 -23 -10t-26 12q-52 49 -132 49q-84 0 -135.5 -68t-51.5 -178q0 -113 47 -179t138 -66q54 0 93.5 31.5t39.5 76.5v52h-120q-35 0 -35 35v63q0 35 35 35h235q35 0 35 -35v-348q0 -35 -35 -35h-43q-34 0 -38 32l-5 35
q-30 -38 -79 -60t-107 -22z" />
    <glyph glyph-name="gbreve" unicode="&#x11f;" horiz-adv-x="642" 
d="M322 646q-118 0 -157 114q-2 10 -2 13q0 23 26 31l5 1q10 2 13 2q18 0 33 -20q27 -33 82 -33t82 33q17 20 33 20q3 0 13 -2l4 -1q26 -6 26 -33q0 -9 -4 -18q-41 -107 -154 -107zM303 -202q-119 0 -218 55q-18 11 -18 28q0 9 6 20l31 54q10 18 27 18q9 0 21 -6
q68 -37 148 -37q63 0 96.5 28t33.5 75v35q-71 -57 -160 -57q-101 0 -164 76.5t-63 206.5t63 207t164 77q96 0 165 -66v21q0 35 35 35h72q35 0 35 -35v-507q0 -103 -69.5 -165.5t-204.5 -62.5zM313 146q13 0 26.5 3.5t27 11t21.5 12.5t22 15t17 12v183q-23 19 -34.5 27.5
t-36 20.5t-45.5 12q-56 0 -84 -40t-28 -107q0 -68 28.5 -109t85.5 -41z" />
    <glyph glyph-name="Gdotaccent" unicode="&#x120;" horiz-adv-x="746" 
d="M393 780q-31 0 -53 22t-22 53t22 53t53 22t53 -22t22 -53t-22 -53t-53 -22zM368 -15q-152 0 -236.5 104.5t-84.5 280.5q0 175 96.5 280.5t250.5 105.5q145 0 236 -97q11 -11 11 -23q0 -14 -14 -26l-52 -45q-11 -10 -23 -10t-26 12q-52 49 -132 49q-84 0 -135.5 -68
t-51.5 -178q0 -113 47 -179t138 -66q54 0 93.5 31.5t39.5 76.5v52h-120q-35 0 -35 35v63q0 35 35 35h235q35 0 35 -35v-348q0 -35 -35 -35h-43q-34 0 -38 32l-5 35q-30 -38 -79 -60t-107 -22z" />
    <glyph glyph-name="gdotaccent" unicode="&#x121;" horiz-adv-x="642" 
d="M323 626q-31 0 -53 22t-22 53t22 53t53 22t53 -22t22 -53t-22 -53t-53 -22zM303 -202q-119 0 -218 55q-18 11 -18 28q0 9 6 20l31 54q10 18 27 18q9 0 21 -6q68 -37 148 -37q63 0 96.5 28t33.5 75v35q-71 -57 -160 -57q-101 0 -164 76.5t-63 206.5t63 207t164 77
q96 0 165 -66v21q0 35 35 35h72q35 0 35 -35v-507q0 -103 -69.5 -165.5t-204.5 -62.5zM313 146q13 0 26.5 3.5t27 11t21.5 12.5t22 15t17 12v183q-23 19 -34.5 27.5t-36 20.5t-45.5 12q-56 0 -84 -40t-28 -107q0 -68 28.5 -109t85.5 -41z" />
    <glyph glyph-name="uni0122" unicode="&#x122;" horiz-adv-x="746" 
d="M368 -15q-152 0 -236.5 104.5t-84.5 280.5q0 175 96.5 280.5t250.5 105.5q145 0 236 -97q11 -11 11 -23q0 -14 -14 -26l-52 -45q-11 -10 -23 -10t-26 12q-52 49 -132 49q-84 0 -135.5 -68t-51.5 -178q0 -113 47 -179t138 -66q54 0 93.5 31.5t39.5 76.5v52h-120
q-35 0 -35 35v63q0 35 35 35h235q35 0 35 -35v-348q0 -35 -35 -35h-43q-34 0 -38 32l-5 35q-30 -38 -79 -60t-107 -22zM367 -19q34 0 53.5 -19.5t19.5 -51.5q0 -53 -37.5 -82.5t-89.5 -29.5h-21q-33 2 -33 29q0 25 19 25q6 -1 19 -1q22 0 40.5 8t22.5 21q-25 2 -39.5 15.5
t-14.5 34.5q0 23 16.5 37t44.5 14z" />
    <glyph glyph-name="uni0123" unicode="&#x123;" horiz-adv-x="642" 
d="M337 620q-34 0 -53.5 19.5t-19.5 51.5q0 53 37.5 82.5t89.5 29.5h21q33 -1 33 -29q0 -25 -19 -25q-6 1 -19 1q-22 0 -40.5 -8t-22.5 -21q25 -2 39.5 -15.5t14.5 -34.5q0 -23 -16.5 -37t-44.5 -14zM303 -202q-119 0 -218 55q-18 11 -18 28q0 9 6 20l31 54q10 18 27 18
q9 0 21 -6q68 -37 148 -37q63 0 96.5 28t33.5 75v35q-71 -57 -160 -57q-101 0 -164 76.5t-63 206.5t63 207t164 77q96 0 165 -66v21q0 35 35 35h72q35 0 35 -35v-507q0 -103 -69.5 -165.5t-204.5 -62.5zM313 146q13 0 26.5 3.5t27 11t21.5 12.5t22 15t17 12v183
q-23 19 -34.5 27.5t-36 20.5t-45.5 12q-56 0 -84 -40t-28 -107q0 -68 28.5 -109t85.5 -41z" />
    <glyph glyph-name="Hcircumflex" unicode="&#x124;" horiz-adv-x="724" 
d="M532 802q-12 -16 -27 -16q-9 0 -22 8l-121 80l-121 -79q-10 -7 -22 -7q-15 0 -27 15l-3 4q-9 12 -9 23q0 13 13 26l106 103q17 17 43 17h40q26 0 43 -17l106 -103q13 -13 13 -26q0 -11 -9 -23zM110 0q-35 0 -35 35v672q0 35 35 35h87q35 0 35 -35v-243h260v243
q0 35 35 35h86q35 0 35 -35v-672q0 -35 -35 -35h-86q-35 0 -35 35v287h-260v-287q0 -35 -35 -35h-87z" />
    <glyph glyph-name="hcircumflex" unicode="&#x125;" horiz-adv-x="626" 
d="M310 834q-12 -16 -27 -16q-9 0 -22 8l-121 80l-121 -79q-10 -7 -22 -7q-15 0 -27 15l-3 4q-9 12 -9 23q0 13 13 26l106 103q17 17 43 17h40q26 0 43 -17l106 -103q13 -13 13 -26q0 -11 -9 -23zM100 0q-35 0 -35 35v686q0 35 35 35h81q35 0 35 -35v-198q88 56 181 56
q81 0 124.5 -47t43.5 -126v-371q0 -35 -35 -35h-80q-35 0 -35 35v303q0 51 -15 73.5t-56 22.5q-61 0 -128 -45v-354q0 -35 -35 -35h-81z" />
    <glyph glyph-name="Hbar" unicode="&#x126;" horiz-adv-x="724" 
d="M675 665q35 0 35 -35v-21q0 -35 -35 -35h-27v-539q0 -35 -35 -35h-86q-35 0 -35 35v287h-260v-287q0 -35 -35 -35h-87q-35 0 -35 35v539h-26q-35 0 -35 35v21q0 35 35 35h26v42q0 35 35 35h87q35 0 35 -35v-42h260v42q0 35 35 35h86q35 0 35 -35v-42h27zM492 464v110
h-260v-110h260z" />
    <glyph glyph-name="hbar" unicode="&#x127;" horiz-adv-x="626" 
d="M397 579q81 0 124.5 -47t43.5 -126v-371q0 -35 -35 -35h-80q-35 0 -35 35v303q0 51 -15 73.5t-56 22.5q-61 0 -128 -45v-354q0 -35 -35 -35h-81q-35 0 -35 35v589h-31q-35 0 -35 35v21q0 35 35 35h31v6q0 35 35 35h81q35 0 35 -35v-6h121q35 0 35 -35v-21q0 -35 -35 -35
h-121v-101q88 56 181 56z" />
    <glyph glyph-name="Itilde" unicode="&#x128;" horiz-adv-x="316" 
d="M223 781q-29 0 -64 19l-28 13q-22 11 -43 11q-23 0 -45 -13q-14 -9 -26 -9q-14 0 -24 13l-5 6q-11 13 -11 26q0 11 9 23q47 60 107 60q27 0 52 -14l34 -15q34 -15 48 -15q23 0 45 13q13 9 26 9q14 0 24 -13l5 -6q10 -12 10 -24q0 -15 -15 -33q-44 -51 -99 -51zM115 0
q-35 0 -35 35v672q0 35 35 35h87q35 0 35 -35v-672q0 -35 -35 -35h-87z" />
    <glyph glyph-name="itilde" unicode="&#x129;" horiz-adv-x="282" 
d="M207 651q-29 0 -64 19l-28 13q-22 11 -43 11q-23 0 -45 -13q-13 -9 -26 -9q-14 0 -24 13l-5 6q-11 13 -11 26q0 11 9 23q47 60 107 60q27 0 52 -14l34 -15q34 -15 48 -15q23 0 45 13q13 9 26 9q14 0 24 -13l5 -6q10 -12 10 -24q0 -15 -15 -33q-44 -51 -99 -51zM101 0
q-35 0 -35 35v498q0 35 35 35h80q35 0 35 -35v-498q0 -35 -35 -35h-80z" />
    <glyph glyph-name="Imacron" unicode="&#x12a;" horiz-adv-x="316" 
d="M38 806q-35 0 -35 35v32q0 35 35 35h239q35 0 35 -35v-32q0 -35 -35 -35h-239zM115 0q-35 0 -35 35v672q0 35 35 35h87q35 0 35 -35v-672q0 -35 -35 -35h-87z" />
    <glyph glyph-name="imacron" unicode="&#x12b;" horiz-adv-x="282" 
d="M21 676q-35 0 -35 35v32q0 35 35 35h239q35 0 35 -35v-32q0 -35 -35 -35h-239zM101 0q-35 0 -35 35v498q0 35 35 35h80q35 0 35 -35v-498q0 -35 -35 -35h-80z" />
    <glyph glyph-name="Ibreve" unicode="&#x12c;" horiz-adv-x="316" 
d="M158 776q-118 0 -157 114q-2 10 -2 13q0 23 26 31l5 1q10 2 13 2q16 0 33 -20q27 -33 82 -33t82 33q17 20 33 20q3 0 13 -2l4 -1q26 -6 26 -33q0 -9 -4 -18q-41 -107 -154 -107zM115 0q-35 0 -35 35v672q0 35 35 35h87q35 0 35 -35v-672q0 -35 -35 -35h-87z" />
    <glyph glyph-name="ibreve" unicode="&#x12d;" horiz-adv-x="282" 
d="M141 646q-118 0 -157 114q-2 10 -2 13q0 23 26 31l5 1q10 2 13 2q18 0 33 -20q27 -33 82 -33t82 33q17 20 33 20q3 0 13 -2l4 -1q26 -6 26 -33q0 -9 -4 -18q-41 -107 -154 -107zM101 0q-35 0 -35 35v498q0 35 35 35h80q35 0 35 -35v-498q0 -35 -35 -35h-80z" />
    <glyph glyph-name="Iogonek" unicode="&#x12e;" horiz-adv-x="316" 
d="M195 0q-57 -51 -57 -85q0 -21 12.5 -32t32.5 -11h13q37 0 37 -31v-25q0 -33 -28 -40q-21 -5 -47 -5q-50 0 -84 25.5t-34 81.5q0 63 76 122h-1q-35 0 -35 35v672q0 35 35 35h87q35 0 35 -35v-672q0 -35 -35 -35h-7z" />
    <glyph glyph-name="iogonek" unicode="&#x12f;" horiz-adv-x="282" 
d="M66 720q0 35 35 35h80q35 0 35 -35v-50q0 -35 -35 -35h-80q-35 0 -35 35v50zM81 0q-15 0 -15 35v498q0 35 35 35h80q35 0 35 -35v-498q0 -35 -20 -35h-21q-57 -51 -57 -85q0 -21 12.5 -32t32.5 -11h13q37 2 37 -31v-25q0 -33 -28 -40q-21 -5 -47 -5q-50 0 -84 25.5
t-34 81.5q0 63 76 122h-15z" />
    <glyph glyph-name="Idotaccent" unicode="&#x130;" horiz-adv-x="316" 
d="M158 780q-31 0 -53 22t-22 53t22 53t53 22t53 -22t22 -53t-22 -53t-53 -22zM115 0q-35 0 -35 35v672q0 35 35 35h87q35 0 35 -35v-672q0 -35 -35 -35h-87z" />
    <glyph glyph-name="dotlessi" unicode="&#x131;" horiz-adv-x="282" 
d="M101 0q-35 0 -35 35v498q0 35 35 35h80q35 0 35 -35v-498q0 -35 -35 -35h-80z" />
    <glyph glyph-name="IJ" unicode="&#x132;" horiz-adv-x="870" 
d="M115 0q-35 0 -35 35v672q0 35 35 35h87q35 0 35 -35v-672q0 -35 -35 -35h-87zM564 -14q-150 0 -224 99q-8 11 -8 21q0 15 15 28l53 45q10 9 21 9q15 0 28 -15q38 -42 94 -42q43 0 71.5 24t28.5 78v474q0 35 35 35h87q35 0 35 -35v-490q0 -119 -65.5 -175t-170.5 -56z" />
    <glyph glyph-name="ij" unicode="&#x133;" horiz-adv-x="574" 
d="M141 615q-35 0 -60 25t-25 60t25 60t60 25t60 -25t25 -60t-25 -60t-60 -25zM433 615q-35 0 -60 25t-25 60t25 60t60 25t60 -25t25 -60t-25 -60t-60 -25zM101 0q-35 0 -35 35v498q0 35 35 35h80q35 0 35 -35v-498q0 -35 -35 -35h-80zM300 -202q-69 0 -128 21q-22 7 -22 28
q0 8 3 17l21 57q9 23 29 23q7 0 16 -3q36 -11 68 -11q36 0 53.5 20t17.5 71v512q0 35 35 35h80q35 0 35 -35v-517q0 -218 -208 -218z" />
    <glyph glyph-name="Jcircumflex" unicode="&#x134;" horiz-adv-x="554" 
d="M576 802q-12 -16 -27 -16q-9 0 -22 8l-121 80l-121 -79q-10 -7 -22 -7q-15 0 -27 15l-3 4q-9 12 -9 23q0 13 13 26l106 103q17 17 43 17h40q26 0 43 -17l106 -103q13 -13 13 -26q0 -11 -9 -23zM248 -14q-150 0 -224 99q-8 11 -8 21q0 15 15 28l53 45q10 9 21 9
q14 0 28 -15q38 -42 94 -42q43 0 71.5 24t28.5 78v474q0 35 35 35h87q35 0 35 -35v-490q0 -119 -65.5 -175t-170.5 -56z" />
    <glyph glyph-name="jcircumflex" unicode="&#x135;" horiz-adv-x="292" 
d="M299 654q-12 -17 -27 -17q-9 0 -22 8l-120 80l-121 -79q-10 -7 -22 -7q-15 0 -27 16l-4 6q-8 13 -8 23q0 14 12 26l106 104q19 18 43 18h41q25 0 43 -18l106 -104q13 -13 13 -27q0 -9 -8 -22zM18 -202q-70 0 -128 21q-22 7 -22 28q0 8 3 17l21 57q9 23 29 23q7 0 16 -3
q36 -11 68 -11q36 0 53.5 20t17.5 71v512q0 35 35 35h80q35 0 35 -35v-517q0 -218 -208 -218z" />
    <glyph glyph-name="uni0136" unicode="&#x136;" horiz-adv-x="695" 
d="M668 42q7 -11 7 -20q0 -22 -30 -22h-110q-27 0 -42 23l-194 290l-67 -78v-200q0 -35 -35 -35h-87q-35 0 -35 35v672q0 35 35 35h87q35 0 35 -35v-262l237 277q17 20 43 20h100q30 0 30 -20q0 -12 -10 -23l-228 -264zM368 -19q34 0 53.5 -19.5t19.5 -51.5
q0 -53 -37.5 -82.5t-89.5 -29.5h-21q-33 2 -33 29q0 25 19 25q6 -1 19 -1q22 0 40.5 8t22.5 21q-25 2 -39.5 15.5t-14.5 34.5q0 23 16.5 37t44.5 14z" />
    <glyph glyph-name="uni0137" unicode="&#x137;" horiz-adv-x="583" 
d="M551 42q7 -11 7 -20q0 -22 -30 -22h-102q-28 0 -42 23l-136 212l-32 -35v-165q0 -35 -35 -35h-81q-35 0 -35 35v686q0 35 35 35h81q35 0 35 -35v-331l143 159q18 19 43 19h91q30 0 30 -20q0 -10 -11 -23l-160 -176zM312 -19q34 0 53.5 -19.5t19.5 -51.5
q0 -53 -37.5 -82.5t-89.5 -29.5h-21q-33 2 -33 29q0 25 19 25q6 -1 19 -1q22 0 40.5 8t22.5 21q-25 2 -39.5 15.5t-14.5 34.5q0 23 16.5 37t44.5 14z" />
    <glyph glyph-name="kgreenlandic" unicode="&#x138;" horiz-adv-x="583" 
d="M551 42q7 -11 7 -20q0 -22 -30 -22h-95q-28 0 -42 23l-138 217l-37 -40v-165q0 -35 -35 -35h-81q-35 0 -35 35v498q0 35 35 35h81q35 0 35 -35v-143l143 159q18 19 43 19h91q30 0 30 -20q0 -10 -11 -23l-160 -176q2 -2 3 -4z" />
    <glyph glyph-name="Lacute" unicode="&#x139;" horiz-adv-x="565" 
d="M174 795q-10 -6 -19 -6q-17 0 -29 18l-4 6q-7 11 -7 22q0 15 15 27l141 116q12 9 23 9q16 0 26 -17l24 -40q6 -10 6 -20q0 -17 -19 -27zM110 0q-35 0 -35 35v672q0 35 35 35h87q35 0 35 -35v-564h282q35 0 35 -35v-73q0 -35 -35 -35h-404z" />
    <glyph glyph-name="lacute" unicode="&#x13a;" horiz-adv-x="282" 
d="M143 810q-11 -6 -20 -6q-16 0 -28 18l-4 6q-7 11 -7 22q0 15 15 27l141 116q12 9 23 9q16 0 26 -17l24 -40q6 -11 6 -20q0 -17 -19 -27zM101 0q-35 0 -35 35v686q0 35 35 35h80q35 0 35 -35v-686q0 -35 -35 -35h-80z" />
    <glyph glyph-name="uni013B" unicode="&#x13b;" horiz-adv-x="565" 
d="M110 0q-35 0 -35 35v672q0 35 35 35h87q35 0 35 -35v-564h282q35 0 35 -35v-73q0 -35 -35 -35h-404zM325 -19q34 0 53.5 -19.5t19.5 -51.5q0 -53 -37.5 -82.5t-89.5 -29.5h-21q-33 2 -33 29q0 25 19 25q6 -1 19 -1q22 0 40.5 8t22.5 21q-25 2 -39.5 15.5t-14.5 34.5
q0 23 16.5 37t44.5 14z" />
    <glyph glyph-name="uni013C" unicode="&#x13c;" horiz-adv-x="282" 
d="M101 0q-35 0 -35 35v686q0 35 35 35h80q35 0 35 -35v-686q0 -35 -35 -35h-80zM144 -19q34 0 53.5 -19.5t19.5 -51.5q0 -53 -37.5 -82.5t-89.5 -29.5h-21q-33 2 -33 29q0 25 19 25q6 -1 19 -1q22 0 40.5 8t22.5 21q-25 2 -39.5 15.5t-14.5 34.5q0 23 16.5 37t44.5 14z" />
    <glyph glyph-name="Lcaron" unicode="&#x13d;" horiz-adv-x="565" 
d="M410 762q39 0 61.5 -27t22.5 -75q0 -55 -27 -108t-80 -83q-11 -6 -19 -6q-18 0 -26 23l-1 2q-3 8 -3 15q0 17 22 31q50 29 53 80q-36 1 -57 21t-21 53q0 34 20 54t55 20zM110 0q-35 0 -35 35v672q0 35 35 35h87q35 0 35 -35v-564h282q35 0 35 -35v-73q0 -35 -35 -35h-404
z" />
    <glyph glyph-name="lcaron" unicode="&#x13e;" horiz-adv-x="463" 
d="M360 762q39 0 61.5 -27t22.5 -75q0 -55 -27 -108t-80 -83q-11 -6 -19 -6q-18 0 -26 23l-1 2q-3 8 -3 15q0 17 22 31q50 29 53 80q-36 1 -57 21t-21 53q0 34 20 54t55 20zM101 0q-35 0 -35 35v687q0 35 35 35h80q35 0 35 -35v-687q0 -35 -35 -35h-80z" />
    <glyph glyph-name="Ldot" unicode="&#x13f;" horiz-adv-x="565" 
d="M110 0q-35 0 -35 35v672q0 35 35 35h87q35 0 35 -35v-564h282q35 0 35 -35v-73q0 -35 -35 -35h-404zM429 285q-35 0 -60 25t-25 60t25 60t60 25t60 -25t25 -60t-25 -60t-60 -25z" />
    <glyph glyph-name="ldot" unicode="&#x140;" horiz-adv-x="404" 
d="M101 0q-35 0 -35 35v686q0 35 35 35h80q35 0 35 -35v-686q0 -35 -35 -35h-80zM343 292q-35 0 -60 25t-25 60t25 60t60 25t60 -25t25 -60t-25 -60t-60 -25z" />
    <glyph glyph-name="Lslash" unicode="&#x141;" horiz-adv-x="565" 
d="M110 0q-35 0 -35 35v206l-26 -19q-11 -8 -22 -8q-15 0 -26 18l-14 23q-7 14 -7 22q0 15 16 27l79 56v347q0 35 35 35h87q35 0 35 -35v-236l79 57q13 8 22 8q16 0 26 -18l14 -23q6 -11 6 -21q0 -16 -16 -28l-131 -93v-210h282q35 0 35 -35v-73q0 -35 -35 -35h-404z" />
    <glyph glyph-name="lslash" unicode="&#x142;" horiz-adv-x="394" 
d="M376 498q6 -10 6 -20q0 -16 -17 -28l-93 -64v-351q0 -35 -35 -35h-80q-35 0 -35 35v248l-40 -28q-11 -8 -22 -8q-16 0 -26 19l-15 25q-6 11 -6 20q0 16 17 28l92 63v319q0 35 35 35h80q35 0 35 -35v-216l41 28q13 8 22 8q15 0 26 -18z" />
    <glyph glyph-name="Nacute" unicode="&#x143;" horiz-adv-x="724" 
d="M322 795q-10 -6 -19 -6q-17 0 -29 18l-4 6q-7 11 -7 22q0 15 15 27l141 116q12 9 23 9q16 0 26 -17l24 -40q6 -10 6 -20q0 -17 -19 -27zM110 0q-35 0 -35 35v672q0 35 35 35h78q28 0 42 -23l273 -430v418q0 35 35 35h75q35 0 35 -35v-672q0 -35 -35 -35h-78q-28 0 -42 23
l-272 431v-419q0 -35 -35 -35h-76z" />
    <glyph glyph-name="nacute" unicode="&#x144;" horiz-adv-x="626" 
d="M266 645q-10 -6 -20 -6q-16 0 -28 18l-4 6q-7 11 -7 22q0 15 15 27l141 116q12 9 23 9q16 0 26 -17l24 -40q6 -10 6 -20q0 -17 -19 -27zM397 579q81 0 124.5 -47t43.5 -126v-371q0 -35 -35 -35h-80q-35 0 -35 35v303q0 51 -15 73.5t-56 22.5q-61 0 -128 -45v-354
q0 -35 -35 -35h-81q-35 0 -35 35v498q0 35 35 35h78q35 0 35 -35v-12q89 58 184 58z" />
    <glyph glyph-name="uni0145" unicode="&#x145;" horiz-adv-x="724" 
d="M110 0q-35 0 -35 35v672q0 35 35 35h78q28 0 42 -23l273 -430v418q0 35 35 35h75q35 0 35 -35v-672q0 -35 -35 -35h-78q-28 0 -42 23l-272 431v-419q0 -35 -35 -35h-76zM361 -19q34 0 53.5 -19.5t19.5 -51.5q0 -53 -37.5 -82.5t-89.5 -29.5h-21q-33 2 -33 29q0 25 19 25
q6 -1 19 -1q22 0 40.5 8t22.5 21q-25 2 -39.5 15.5t-14.5 34.5q0 23 16.5 37t44.5 14z" />
    <glyph glyph-name="uni0146" unicode="&#x146;" horiz-adv-x="626" 
d="M397 579q81 0 124.5 -47t43.5 -126v-371q0 -35 -35 -35h-80q-35 0 -35 35v303q0 51 -15 73.5t-56 22.5q-61 0 -128 -45v-354q0 -35 -35 -35h-81q-35 0 -35 35v498q0 35 35 35h78q35 0 35 -35v-12q89 58 184 58zM313 -19q34 0 53.5 -19.5t19.5 -51.5q0 -53 -37.5 -82.5
t-89.5 -29.5h-21q-33 2 -33 29q0 25 19 25q6 -1 19 -1q22 0 40.5 8t22.5 21q-25 2 -39.5 15.5t-14.5 34.5q0 23 16.5 37t44.5 14z" />
    <glyph glyph-name="Ncaron" unicode="&#x147;" horiz-adv-x="724" 
d="M342 775q-26 0 -43 17l-106 103q-13 13 -13 26q0 11 9 23l4 5q12 16 26 16q9 0 22 -8l121 -80l121 79q10 7 22 7q15 0 27 -15l3 -4q9 -12 9 -23q0 -13 -13 -26l-106 -103q-17 -17 -43 -17h-40zM110 0q-35 0 -35 35v672q0 35 35 35h78q28 0 42 -23l273 -430v418
q0 35 35 35h75q35 0 35 -35v-672q0 -35 -35 -35h-78q-28 0 -42 23l-272 431v-419q0 -35 -35 -35h-76z" />
    <glyph glyph-name="ncaron" unicode="&#x148;" horiz-adv-x="626" 
d="M291 625q-26 0 -43 17l-106 103q-13 13 -13 26q0 11 9 23l4 5q12 16 26 16q9 0 22 -8l121 -80l121 79q10 7 22 7q15 0 27 -15l3 -4q9 -12 9 -23q0 -13 -13 -26l-106 -103q-17 -17 -43 -17h-40zM397 579q81 0 124.5 -47t43.5 -126v-371q0 -35 -35 -35h-80q-35 0 -35 35
v303q0 51 -15 73.5t-56 22.5q-61 0 -128 -45v-354q0 -35 -35 -35h-81q-35 0 -35 35v498q0 35 35 35h78q35 0 35 -35v-12q89 58 184 58z" />
    <glyph glyph-name="napostrophe" unicode="&#x149;" horiz-adv-x="600" 
d="M-13 762q40 0 65.5 -29t25.5 -80q0 -60 -31 -117t-92 -89q-10 -5 -17 -5q-19 0 -29 24l-2 5q-3 7 -3 15q0 18 22 31q59 32 62 87q-36 1 -61 23.5t-25 55.5q0 32 24 55.5t61 23.5zM397 579q81 0 124.5 -47t43.5 -126v-371q0 -35 -35 -35h-80q-35 0 -35 35v303
q0 51 -15 73.5t-56 22.5q-61 0 -128 -45v-354q0 -35 -35 -35h-81q-35 0 -35 35v498q0 35 35 35h78q35 0 35 -35v-12q89 58 184 58z" />
    <glyph glyph-name="Eng" unicode="&#x14a;" horiz-adv-x="724" 
d="M503 707q0 35 35 35h75q35 0 35 -35v-707q-5 -202 -208 -202q-68 0 -126 20q-23 7 -23 28q0 8 3 17l19 51q8 22 30 22q10 0 16 -2q36 -11 68 -11q36 0 53.5 20.5t17.5 72.5l-277 438v-419q0 -35 -35 -35h-76q-35 0 -35 35v672q0 35 35 35h78q28 0 42 -23l273 -430v418z
" />
    <glyph glyph-name="eng" unicode="&#x14b;" horiz-adv-x="626" 
d="M397 579q81 0 124.5 -47t43.5 -126v-390q0 -218 -209 -218q-68 0 -127 21q-22 7 -22 28q0 8 3 17l21 57q9 23 29 23q7 0 16 -3q36 -11 68 -11q36 0 53.5 20t17.5 71v317q0 51 -15 73.5t-56 22.5q-61 0 -128 -45v-354q0 -35 -35 -35h-81q-35 0 -35 35v498q0 35 35 35h78
q35 0 35 -35v-12q89 58 184 58z" />
    <glyph glyph-name="Omacron" unicode="&#x14c;" horiz-adv-x="760" 
d="M261 806q-35 0 -35 35v32q0 35 35 35h239q35 0 35 -35v-32q0 -35 -35 -35h-239zM381 -15q-151 0 -242.5 104t-91.5 281q0 178 91.5 282t242.5 104q150 0 241.5 -104t91.5 -282q0 -177 -92 -281t-241 -104zM380 125q83 0 128 67t45 177q0 112 -45 179.5t-128 67.5
q-82 0 -127.5 -67t-45.5 -179q0 -111 45.5 -178t127.5 -67z" />
    <glyph glyph-name="omacron" unicode="&#x14d;" horiz-adv-x="642" 
d="M196 676q-35 0 -35 35v32q0 35 35 35h239q35 0 35 -35v-32q0 -35 -35 -35h-239zM321 -11q-126 0 -202 80.5t-76 214.5t76 214.5t202 80.5q125 0 201.5 -80.5t76.5 -214.5t-76.5 -214.5t-201.5 -80.5zM321 124q57 0 90 40t33 120q0 81 -33.5 120.5t-89.5 39.5t-89 -39.5
t-33 -120.5t33 -120.5t89 -39.5z" />
    <glyph glyph-name="Obreve" unicode="&#x14e;" horiz-adv-x="760" 
d="M381 776q-118 0 -157 114q-2 10 -2 13q0 23 26 31l5 1q10 2 13 2q16 0 33 -20q27 -33 82 -33t82 33q17 20 33 20q3 0 13 -2l4 -1q26 -6 26 -33q0 -9 -4 -18q-41 -107 -154 -107zM381 -15q-151 0 -242.5 104t-91.5 281q0 178 91.5 282t242.5 104q150 0 241.5 -104
t91.5 -282q0 -177 -92 -281t-241 -104zM380 125q83 0 128 67t45 177q0 112 -45 179.5t-128 67.5q-82 0 -127.5 -67t-45.5 -179q0 -111 45.5 -178t127.5 -67z" />
    <glyph glyph-name="obreve" unicode="&#x14f;" horiz-adv-x="642" 
d="M318 646q-118 0 -157 114q-2 10 -2 13q0 23 26 31l5 1q10 2 13 2q18 0 33 -20q27 -33 82 -33t82 33q17 20 33 20q3 0 13 -2l4 -1q26 -6 26 -33q0 -9 -4 -18q-41 -107 -154 -107zM321 -11q-126 0 -202 80.5t-76 214.5t76 214.5t202 80.5q125 0 201.5 -80.5t76.5 -214.5
t-76.5 -214.5t-201.5 -80.5zM321 124q57 0 90 40t33 120q0 81 -33.5 120.5t-89.5 39.5t-89 -39.5t-33 -120.5t33 -120.5t89 -39.5z" />
    <glyph glyph-name="Ohungarumlaut" unicode="&#x150;" horiz-adv-x="760" 
d="M274 795q-12 -9 -22 -9q-15 0 -27 15l-3 3q-9 12 -9 24q0 14 12 26l126 133q13 13 25 13q13 0 25 -15l24 -29q9 -12 9 -23q0 -15 -15 -27zM465 795q-11 -8 -23 -8q-15 0 -26 14l-3 3q-9 12 -9 24q0 14 12 26l127 133q13 13 25 13q13 0 25 -15l24 -29q9 -12 9 -23
q0 -15 -15 -27zM381 -15q-151 0 -242.5 104t-91.5 281q0 178 91.5 282t242.5 104q150 0 241.5 -104t91.5 -282q0 -177 -92 -281t-241 -104zM380 125q83 0 128 67t45 177q0 112 -45 179.5t-128 67.5q-82 0 -127.5 -67t-45.5 -179q0 -111 45.5 -178t127.5 -67z" />
    <glyph glyph-name="ohungarumlaut" unicode="&#x151;" horiz-adv-x="642" 
d="M247 645q-12 -9 -22 -9q-15 0 -27 15l-3 3q-9 12 -9 24q0 14 12 26l126 133q13 13 25 13q13 0 25 -15l24 -29q9 -12 9 -23q0 -15 -15 -27zM438 645q-11 -8 -23 -8q-15 0 -26 14l-3 3q-9 12 -9 24q0 14 12 26l127 133q13 13 25 13q13 0 25 -15l24 -29q9 -12 9 -23
q0 -15 -15 -27zM321 -11q-126 0 -202 80.5t-76 214.5t76 214.5t202 80.5q125 0 201.5 -80.5t76.5 -214.5t-76.5 -214.5t-201.5 -80.5zM321 124q57 0 90 40t33 120q0 81 -33.5 120.5t-89.5 39.5t-89 -39.5t-33 -120.5t33 -120.5t89 -39.5z" />
    <glyph glyph-name="OE" unicode="&#x152;" horiz-adv-x="1032" 
d="M367 0q-158 0 -239 101.5t-81 268.5q0 175 83.5 273.5t244.5 98.5h552q35 0 35 -35v-64q0 -35 -35 -35h-285v-148h233q35 0 35 -35v-64q0 -35 -35 -35h-233v-188h298q35 0 35 -35v-68q0 -35 -35 -35h-573zM400 141h85v460h-78q-99 0 -149.5 -54.5t-50.5 -177.5
q0 -228 193 -228z" />
    <glyph glyph-name="oe" unicode="&#x153;" horiz-adv-x="1016" 
d="M733 124q61 0 115 42q14 11 25 11q13 0 25 -13l45 -50q11 -13 11 -24q0 -13 -13 -25q-85 -76 -221 -76q-126 0 -200 93q-77 -93 -199 -93q-126 0 -202 80.5t-76 214.5t76 214.5t202 80.5q123 0 197 -92q76 92 193 92q65 0 115.5 -24.5t81 -68t47.5 -96t21 -114.5
q2 -36 -35 -36h-348q3 -62 42 -89t98 -27zM712 454q-49 0 -79.5 -28.5t-37.5 -78.5h231q-5 50 -35 78.5t-79 28.5zM321 124q57 0 90 40t33 120q0 81 -33.5 120.5t-89.5 39.5t-89 -39.5t-33 -120.5t33 -120.5t89 -39.5z" />
    <glyph glyph-name="Racute" unicode="&#x154;" horiz-adv-x="678" 
d="M299 795q-10 -6 -19 -6q-17 0 -29 18l-4 6q-7 11 -7 22q0 15 15 27l141 116q12 9 23 9q16 0 26 -17l24 -40q6 -10 6 -20q0 -17 -19 -27zM110 0q-35 0 -35 35v672q0 35 35 35h250q129 0 194.5 -56t65.5 -160q0 -156 -130 -203l136 -282q5 -12 5 -18q0 -23 -31 -23h-97
q-29 0 -41 26l-124 272h-106v-263q0 -35 -35 -35h-87zM232 430h128q51 0 75.5 24.5t24.5 64.5t-27.5 63.5t-84.5 23.5h-116v-176z" />
    <glyph glyph-name="racute" unicode="&#x155;" horiz-adv-x="470" 
d="M208 645q-10 -6 -20 -6q-16 0 -28 18l-4 6q-7 11 -7 22q0 15 15 27l141 116q12 9 23 9q16 0 26 -17l24 -40q6 -10 6 -20q0 -17 -19 -27zM100 0q-35 0 -35 35v498q0 35 35 35h76q35 0 35 -35v-36q72 82 158 82q40 0 66 -11q22 -9 22 -28q0 -6 -4 -18l-32 -79
q-7 -20 -26 -20q-10 0 -19 4q-18 5 -36 5q-55 0 -124 -71v-326q0 -35 -35 -35h-81z" />
    <glyph glyph-name="uni0156" unicode="&#x156;" horiz-adv-x="678" 
d="M110 0q-35 0 -35 35v672q0 35 35 35h250q129 0 194.5 -56t65.5 -160q0 -156 -130 -203l136 -282q5 -12 5 -18q0 -23 -31 -23h-97q-29 0 -41 26l-124 272h-106v-263q0 -35 -35 -35h-87zM232 430h128q51 0 75.5 24.5t24.5 64.5t-27.5 63.5t-84.5 23.5h-116v-176zM350 -19
q34 0 53.5 -19.5t19.5 -51.5q0 -53 -37.5 -82.5t-89.5 -29.5h-21q-33 2 -33 29q0 25 19 25q6 -1 19 -1q22 0 40.5 8t22.5 21q-25 2 -39.5 15.5t-14.5 34.5q0 23 16.5 37t44.5 14z" />
    <glyph glyph-name="uni0157" unicode="&#x157;" horiz-adv-x="471" 
d="M100 0q-35 0 -35 35v498q0 35 35 35h76q35 0 35 -35v-36q72 82 158 82q40 0 66 -11q22 -9 22 -28q0 -6 -4 -18l-32 -79q-7 -20 -26 -20q-10 0 -19 4q-18 5 -36 5q-55 0 -124 -71v-326q0 -35 -35 -35h-81zM142 -19q34 0 53.5 -19.5t19.5 -51.5q0 -53 -37.5 -82.5
t-89.5 -29.5h-21q-33 2 -33 29q0 25 19 25q6 -1 19 -1q22 0 40.5 8t22.5 21q-25 2 -39.5 15.5t-14.5 34.5q0 23 16.5 37t44.5 14z" />
    <glyph glyph-name="Rcaron" unicode="&#x158;" horiz-adv-x="678" 
d="M319 775q-26 0 -43 17l-106 103q-13 13 -13 26q0 11 9 23l4 5q12 16 26 16q9 0 22 -8l121 -80l121 79q10 7 22 7q15 0 27 -15l3 -4q9 -12 9 -23q0 -13 -13 -26l-106 -103q-17 -17 -43 -17h-40zM110 0q-35 0 -35 35v672q0 35 35 35h250q129 0 194.5 -56t65.5 -160
q0 -156 -130 -203l136 -282q5 -12 5 -18q0 -23 -31 -23h-97q-29 0 -41 26l-124 272h-106v-263q0 -35 -35 -35h-87zM232 430h128q51 0 75.5 24.5t24.5 64.5t-27.5 63.5t-84.5 23.5h-116v-176z" />
    <glyph glyph-name="rcaron" unicode="&#x159;" horiz-adv-x="471" 
d="M232 625q-26 0 -43 17l-106 103q-13 13 -13 26q0 11 9 23l4 5q12 16 26 16q9 0 22 -8l121 -80l121 79q10 7 22 7q15 0 27 -15l3 -4q9 -12 9 -23q0 -13 -13 -26l-106 -103q-17 -17 -43 -17h-40zM100 0q-35 0 -35 35v498q0 35 35 35h76q35 0 35 -35v-36q72 82 158 82
q40 0 66 -11q22 -9 22 -28q0 -6 -4 -18l-32 -79q-7 -20 -26 -20q-10 0 -19 4q-18 5 -36 5q-55 0 -124 -71v-326q0 -35 -35 -35h-81z" />
    <glyph glyph-name="Sacute" unicode="&#x15a;" horiz-adv-x="602" 
d="M261 795q-11 -6 -19 -6q-17 0 -29 18l-4 6q-7 11 -7 22q0 15 15 27l141 116q12 9 23 9q16 0 26 -17l24 -40q6 -10 6 -20q0 -17 -19 -27zM293 -15q-145 0 -246 84q-14 11 -14 26q0 10 8 23l40 58q10 16 26 16q12 0 23 -10q82 -62 160 -62q118 0 118 73q0 31 -26 51.5
t-89 44.5l-72 28q-91 36 -134.5 83.5t-43.5 131.5q0 108 74 166t190 58q127 0 224 -74q15 -12 15 -26q0 -10 -8 -23l-39 -58q-10 -16 -26 -16q-11 0 -23 9q-71 54 -143 54q-49 0 -79 -18.5t-30 -55.5q0 -26 23 -43t74 -37l71 -28q107 -42 154.5 -90t47.5 -135
q0 -78 -40 -131.5t-100 -76t-135 -22.5z" />
    <glyph glyph-name="sacute" unicode="&#x15b;" horiz-adv-x="533" 
d="M258 645q-10 -6 -20 -6q-16 0 -28 18l-4 6q-7 11 -7 22q0 15 15 27l141 116q12 9 23 9q16 0 26 -17l24 -40q6 -10 6 -20q0 -17 -19 -27zM446 436q-12 -18 -28 -18q-7 0 -19 5q-69 32 -139 32q-28 0 -44 -11t-16 -26q0 -17 15 -27t53 -23l59 -20q88 -30 130 -69t42 -109
q0 -88 -67 -134.5t-160 -46.5q-133 0 -222 63q-16 12 -16 26q0 10 8 23l30 46q10 16 26 16q12 0 23 -7q73 -45 148 -45q79 0 79 47q0 19 -17 29.5t-70 28.5l-60 20q-77 26 -114.5 64.5t-37.5 106.5q0 69 54.5 120.5t168.5 51.5q100 0 191 -52q18 -10 18 -26q0 -11 -7 -22z
" />
    <glyph glyph-name="Scircumflex" unicode="&#x15c;" horiz-adv-x="602" 
d="M471 802q-12 -16 -27 -16q-9 0 -22 8l-121 80l-121 -79q-10 -7 -22 -7q-15 0 -27 15l-3 4q-9 12 -9 23q0 13 13 26l106 103q17 17 43 17h40q26 0 43 -17l106 -103q13 -13 13 -26q0 -11 -9 -23zM293 -15q-145 0 -246 84q-14 11 -14 26q0 10 8 23l40 58q10 16 26 16
q12 0 23 -10q82 -62 160 -62q118 0 118 73q0 31 -26 51.5t-89 44.5l-72 28q-91 36 -134.5 83.5t-43.5 131.5q0 108 74 166t190 58q127 0 224 -74q15 -12 15 -26q0 -10 -8 -23l-39 -58q-10 -16 -26 -16q-11 0 -23 9q-71 54 -143 54q-49 0 -79 -18.5t-30 -55.5q0 -26 23 -43
t74 -37l71 -28q107 -42 154.5 -90t47.5 -135q0 -78 -40 -131.5t-100 -76t-135 -22.5z" />
    <glyph glyph-name="scircumflex" unicode="&#x15d;" horiz-adv-x="533" 
d="M442 652q-12 -16 -27 -16q-9 0 -22 8l-121 80l-121 -79q-10 -7 -22 -7q-15 0 -27 15l-3 4q-9 12 -9 23q0 13 13 26l106 103q17 17 43 17h40q26 0 43 -17l106 -103q13 -13 13 -26q0 -11 -9 -23zM446 436q-12 -18 -28 -18q-7 0 -19 5q-69 32 -139 32q-28 0 -44 -11t-16 -26
q0 -17 15 -27t53 -23l59 -20q88 -30 130 -69t42 -109q0 -88 -67 -134.5t-160 -46.5q-133 0 -222 63q-16 12 -16 26q0 10 8 23l30 46q10 16 26 16q12 0 23 -7q73 -45 148 -45q79 0 79 47q0 19 -17 29.5t-70 28.5l-60 20q-77 26 -114.5 64.5t-37.5 106.5q0 69 54.5 120.5
t168.5 51.5q100 0 191 -52q18 -10 18 -26q0 -11 -7 -22z" />
    <glyph glyph-name="Scedilla" unicode="&#x15e;" horiz-adv-x="602" 
d="M568 215q0 -103 -64.5 -160t-165.5 -68v-11q45 -5 67.5 -30t22.5 -64q0 -110 -145 -110q-7 0 -31 2q-32 3 -32 37v16q0 34 22 34q5 0 13.5 -1t11.5 -1q66 0 66 26t-57 26q-21 0 -21 35v41q-119 10 -208 82q-14 11 -14 26q0 10 8 23l40 58q10 16 26 16q12 0 23 -10
q82 -62 160 -62q118 0 118 73q0 31 -26 51.5t-89 44.5l-72 28q-91 36 -134.5 83.5t-43.5 131.5q0 108 74 166t190 58q127 0 224 -74q15 -12 15 -26q0 -10 -8 -23l-39 -58q-10 -16 -26 -16q-11 0 -23 9q-71 54 -143 54q-49 0 -79 -18.5t-30 -55.5q0 -26 23 -43t74 -37l71 -28
q107 -42 154.5 -90t47.5 -135z" />
    <glyph glyph-name="scedilla" unicode="&#x15f;" horiz-adv-x="533" 
d="M499 170q0 -81 -57 -127t-141 -53v-14q90 -10 90 -95q0 -59 -40.5 -86t-104.5 -27q-8 0 -32 2q-32 3 -32 37v21q0 34 22 34q5 0 14 -1t12 -1q65 0 65 24t-56 24q-22 0 -22 35v49q-97 11 -167 60q-16 12 -16 26q0 10 8 23l30 46q10 16 26 16q12 0 23 -7q73 -45 148 -45
q79 0 79 47q0 19 -17 29.5t-70 28.5l-60 20q-77 26 -114.5 64.5t-37.5 106.5q0 69 54.5 120.5t168.5 51.5q100 0 191 -52q18 -10 18 -26q0 -11 -7 -22l-28 -43q-12 -18 -28 -18q-7 0 -19 5q-69 32 -139 32q-28 0 -44 -11t-16 -26q0 -17 15 -27t53 -23l59 -20q88 -30 130 -69
t42 -109z" />
    <glyph glyph-name="Scaron" unicode="&#x160;" horiz-adv-x="602" 
d="M281 775q-26 0 -43 17l-106 103q-13 13 -13 26q0 11 9 23l4 5q12 16 26 16q9 0 22 -8l121 -80l121 79q10 7 22 7q15 0 27 -15l3 -4q9 -12 9 -23q0 -13 -13 -26l-106 -103q-17 -17 -43 -17h-40zM293 -15q-145 0 -246 84q-14 11 -14 26q0 10 8 23l40 58q10 16 26 16
q12 0 23 -10q82 -62 160 -62q118 0 118 73q0 31 -26 51.5t-89 44.5l-72 28q-91 36 -134.5 83.5t-43.5 131.5q0 108 74 166t190 58q127 0 224 -74q15 -12 15 -26q0 -10 -8 -23l-39 -58q-10 -16 -26 -16q-11 0 -23 9q-71 54 -143 54q-49 0 -79 -18.5t-30 -55.5q0 -26 23 -43
t74 -37l71 -28q107 -42 154.5 -90t47.5 -135q0 -78 -40 -131.5t-100 -76t-135 -22.5z" />
    <glyph glyph-name="scaron" unicode="&#x161;" horiz-adv-x="533" 
d="M254 625q-26 0 -43 17l-106 103q-13 13 -13 26q0 11 9 23l4 5q12 16 26 16q9 0 22 -8l121 -80l121 79q10 7 22 7q15 0 27 -15l3 -4q9 -12 9 -23q0 -13 -13 -26l-106 -103q-17 -17 -43 -17h-40zM446 436q-12 -18 -28 -18q-7 0 -19 5q-69 32 -139 32q-28 0 -44 -11t-16 -26
q0 -17 15 -27t53 -23l59 -20q88 -30 130 -69t42 -109q0 -88 -67 -134.5t-160 -46.5q-133 0 -222 63q-16 12 -16 26q0 10 8 23l30 46q10 16 26 16q12 0 23 -7q73 -45 148 -45q79 0 79 47q0 19 -17 29.5t-70 28.5l-60 20q-77 26 -114.5 64.5t-37.5 106.5q0 69 54.5 120.5
t168.5 51.5q100 0 191 -52q18 -10 18 -26q0 -11 -7 -22z" />
    <glyph glyph-name="uni0162" unicode="&#x162;" horiz-adv-x="577" 
d="M245 0q-35 0 -35 35v565h-166q-35 0 -35 35v72q0 35 35 35h489q35 0 35 -35v-72q0 -35 -35 -35h-166v-565q0 -35 -35 -35h-87zM288 -19q34 0 53.5 -19.5t19.5 -51.5q0 -53 -37.5 -82.5t-89.5 -29.5h-21q-33 2 -33 29q0 25 19 25q6 -1 19 -1q22 0 40.5 8t22.5 21
q-25 2 -39.5 15.5t-14.5 34.5q0 23 16.5 37t44.5 14z" />
    <glyph glyph-name="uni0163" unicode="&#x163;" horiz-adv-x="406" 
d="M288 -11q-111 0 -149.5 43.5t-38.5 145.5v260h-54q-35 0 -35 35v60q0 35 35 35h54v70q0 28 25 41l84 42q12 5 18 5q23 0 23 -30v-128h87q35 0 35 -35v-60q0 -35 -35 -35h-87v-257q0 -53 62 -53q4 0 13.5 1t15.5 1q31 0 31 -32v-67q0 -33 -31 -37q-30 -5 -53 -5zM275 -19
q34 0 53.5 -19.5t19.5 -51.5q0 -53 -37.5 -82.5t-89.5 -29.5h-21q-33 2 -33 29q0 25 19 25q6 -1 19 -1q22 0 40.5 8t22.5 21q-25 2 -39.5 15.5t-14.5 34.5q0 23 16.5 37t44.5 14z" />
    <glyph glyph-name="Tcaron" unicode="&#x164;" horiz-adv-x="577" 
d="M268 775q-26 0 -43 17l-106 103q-13 13 -13 26q0 11 9 23l4 5q12 16 26 16q9 0 22 -8l121 -80l121 79q10 7 22 7q15 0 27 -15l3 -4q9 -12 9 -23q0 -13 -13 -26l-106 -103q-17 -17 -43 -17h-40zM245 0q-35 0 -35 35v565h-166q-35 0 -35 35v72q0 35 35 35h489q35 0 35 -35
v-72q0 -35 -35 -35h-166v-565q0 -35 -35 -35h-87z" />
    <glyph glyph-name="tcaron" unicode="&#x165;" horiz-adv-x="426" 
d="M347 761q33 0 51 -17.5t18 -47.5q0 -47 -38 -94q-16 -17 -43 -17q-21 0 -21 14q0 7 6 17q12 21 17 35q-27 3 -43 17.5t-16 37.5q0 25 18.5 40t50.5 15zM288 -11q-111 0 -149.5 43.5t-38.5 145.5v260h-54q-35 0 -35 35v60q0 35 35 35h54v70q0 28 25 41l84 42q12 5 18 5
q23 0 23 -30v-128h87q35 0 35 -35v-60q0 -35 -35 -35h-87v-257q0 -53 62 -53q4 0 13.5 1t15.5 1q31 0 31 -32v-67q0 -33 -31 -37q-30 -5 -53 -5z" />
    <glyph glyph-name="Tbar" unicode="&#x166;" horiz-adv-x="577" 
d="M533 742q35 0 35 -35v-72q0 -35 -35 -35h-166v-182h84q35 0 35 -35v-24q0 -35 -35 -35h-84v-289q0 -35 -35 -35h-87q-35 0 -35 35v289h-87q-35 0 -35 35v24q0 35 35 35h87v182h-166q-35 0 -35 35v72q0 35 35 35h489z" />
    <glyph glyph-name="tbar" unicode="&#x167;" horiz-adv-x="406" 
d="M337 438h-87v-115h62q35 0 35 -35v-19q0 -35 -35 -35h-62v-53q0 -53 62 -53q4 0 13.5 1t15.5 1q31 0 31 -32v-67q0 -33 -31 -37q-30 -5 -53 -5q-111 0 -149.5 43.5t-38.5 145.5v56h-35q-35 0 -35 35v19q0 35 35 35h35v115h-54q-35 0 -35 35v60q0 35 35 35h54v70
q0 28 25 41l84 42q12 5 18 5q23 0 23 -30v-128h87q35 0 35 -35v-60q0 -35 -35 -35z" />
    <glyph glyph-name="Utilde" unicode="&#x168;" horiz-adv-x="700" 
d="M418 781q-29 0 -64 19l-28 13q-22 11 -43 11q-23 0 -45 -13q-14 -9 -26 -9q-14 0 -24 13l-5 6q-11 13 -11 26q0 11 9 23q47 60 107 60q27 0 52 -14l34 -15q34 -15 48 -15q23 0 45 13q13 9 26 9q14 0 24 -13l5 -6q10 -12 10 -24q0 -15 -15 -33q-44 -51 -99 -51zM351 -15
q-56 0 -104.5 15t-89 45.5t-64 85t-23.5 126.5v450q0 35 35 35h87q35 0 35 -35v-450q0 -61 34 -96.5t91 -35.5q60 0 93.5 33t33.5 93v456q0 35 35 35h81q35 0 35 -35v-457q0 -71 -23.5 -124.5t-64.5 -83t-88.5 -43.5t-102.5 -14z" />
    <glyph glyph-name="utilde" unicode="&#x169;" horiz-adv-x="626" 
d="M372 651q-29 0 -64 19l-28 13q-22 11 -43 11q-23 0 -45 -13q-14 -9 -26 -9q-14 0 -24 13l-5 6q-11 13 -11 26q0 11 9 23q47 60 107 60q27 0 52 -14l34 -15q34 -15 48 -15q23 0 45 13q13 9 26 9q14 0 24 -13l5 -6q10 -12 10 -24q0 -15 -15 -33q-44 -51 -99 -51zM526 568
q35 0 35 -35v-498q0 -35 -35 -35h-78q-35 0 -35 35v12q-88 -58 -184 -58q-81 0 -124.5 47t-43.5 126v371q0 35 35 35h81q35 0 35 -35v-303q0 -51 15 -73.5t56 -22.5q61 0 128 45v354q0 35 35 35h80z" />
    <glyph glyph-name="Umacron" unicode="&#x16a;" horiz-adv-x="700" 
d="M233 806q-35 0 -35 35v32q0 35 35 35h239q35 0 35 -35v-32q0 -35 -35 -35h-239zM351 -15q-56 0 -104.5 15t-89 45.5t-64 85t-23.5 126.5v450q0 35 35 35h87q35 0 35 -35v-450q0 -61 34 -96.5t91 -35.5q60 0 93.5 33t33.5 93v456q0 35 35 35h81q35 0 35 -35v-457
q0 -71 -23.5 -124.5t-64.5 -83t-88.5 -43.5t-102.5 -14z" />
    <glyph glyph-name="umacron" unicode="&#x16b;" horiz-adv-x="626" 
d="M195 676q-35 0 -35 35v32q0 35 35 35h239q35 0 35 -35v-32q0 -35 -35 -35h-239zM526 568q35 0 35 -35v-498q0 -35 -35 -35h-78q-35 0 -35 35v12q-88 -58 -184 -58q-81 0 -124.5 47t-43.5 126v371q0 35 35 35h81q35 0 35 -35v-303q0 -51 15 -73.5t56 -22.5q61 0 128 45
v354q0 35 35 35h80z" />
    <glyph glyph-name="Ubreve" unicode="&#x16c;" horiz-adv-x="700" 
d="M353 776q-118 0 -157 114q-2 10 -2 13q0 23 26 31l5 1q10 2 13 2q16 0 33 -20q27 -33 82 -33t82 33q17 20 33 20q3 0 13 -2l4 -1q26 -6 26 -33q0 -9 -4 -18q-41 -107 -154 -107zM351 -15q-56 0 -104.5 15t-89 45.5t-64 85t-23.5 126.5v450q0 35 35 35h87q35 0 35 -35
v-450q0 -61 34 -96.5t91 -35.5q60 0 93.5 33t33.5 93v456q0 35 35 35h81q35 0 35 -35v-457q0 -71 -23.5 -124.5t-64.5 -83t-88.5 -43.5t-102.5 -14z" />
    <glyph glyph-name="ubreve" unicode="&#x16d;" horiz-adv-x="626" 
d="M313 647q-118 0 -157 114q-2 10 -2 13q0 23 26 31l5 1q10 2 13 2q16 0 33 -20q27 -33 82 -33t82 33q17 20 33 20q3 0 13 -2l4 -1q26 -7 26 -33q0 -9 -4 -18q-41 -107 -154 -107zM526 568q35 0 35 -35v-498q0 -35 -35 -35h-78q-35 0 -35 35v12q-88 -58 -184 -58
q-81 0 -124.5 47t-43.5 126v371q0 35 35 35h81q35 0 35 -35v-303q0 -51 15 -73.5t56 -22.5q61 0 128 45v354q0 35 35 35h80z" />
    <glyph glyph-name="Uring" unicode="&#x16e;" horiz-adv-x="700" 
d="M353 758q-47 0 -80 35t-33 85q0 49 33 84.5t80 35.5q48 0 80 -36.5t32 -83.5q0 -48 -32 -84t-80 -36zM353 840q17 0 28.5 11t11.5 27t-11.5 27t-28.5 11t-29 -11t-12 -27t12 -27t29 -11zM351 -15q-56 0 -104.5 15t-89 45.5t-64 85t-23.5 126.5v450q0 35 35 35h87
q35 0 35 -35v-450q0 -61 34 -96.5t91 -35.5q60 0 93.5 33t33.5 93v456q0 35 35 35h81q35 0 35 -35v-457q0 -71 -23.5 -124.5t-64.5 -83t-88.5 -43.5t-102.5 -14z" />
    <glyph glyph-name="uring" unicode="&#x16f;" horiz-adv-x="626" 
d="M309 638q-47 0 -80 35t-33 85q0 49 33 84.5t80 35.5q48 0 80 -36.5t32 -83.5q0 -48 -32 -84t-80 -36zM309 720q17 0 28.5 11t11.5 27t-11.5 27t-28.5 11t-29 -11t-12 -27t12 -27t29 -11zM526 568q35 0 35 -35v-498q0 -35 -35 -35h-78q-35 0 -35 35v12q-88 -58 -184 -58
q-81 0 -124.5 47t-43.5 126v371q0 35 35 35h81q35 0 35 -35v-303q0 -51 15 -73.5t56 -22.5q61 0 128 45v354q0 35 35 35h80z" />
    <glyph glyph-name="Uhungarumlaut" unicode="&#x170;" horiz-adv-x="700" 
d="M246 795q-12 -9 -22 -9q-15 0 -27 15l-3 3q-9 12 -9 24q0 14 12 26l126 133q13 13 25 13q13 0 25 -15l24 -29q9 -12 9 -23q0 -15 -15 -27zM437 795q-11 -8 -23 -8q-15 0 -26 14l-3 3q-9 12 -9 24q0 14 12 26l127 133q13 13 25 13q13 0 25 -15l24 -29q9 -12 9 -23
q0 -15 -15 -27zM351 -15q-56 0 -104.5 15t-89 45.5t-64 85t-23.5 126.5v450q0 35 35 35h87q35 0 35 -35v-450q0 -61 34 -96.5t91 -35.5q60 0 93.5 33t33.5 93v456q0 35 35 35h81q35 0 35 -35v-457q0 -71 -23.5 -124.5t-64.5 -83t-88.5 -43.5t-102.5 -14z" />
    <glyph glyph-name="uhungarumlaut" unicode="&#x171;" horiz-adv-x="626" 
d="M232 645q-12 -9 -22 -9q-15 0 -27 15l-3 3q-9 12 -9 24q0 14 12 26l126 133q13 13 25 13q13 0 25 -15l24 -29q9 -12 9 -23q0 -15 -15 -27zM423 645q-11 -8 -23 -8q-15 0 -26 14l-3 3q-9 12 -9 24q0 14 12 26l127 133q13 13 25 13q13 0 25 -15l24 -29q9 -12 9 -23
q0 -15 -15 -27zM526 568q35 0 35 -35v-498q0 -35 -35 -35h-78q-35 0 -35 35v12q-88 -58 -184 -58q-81 0 -124.5 47t-43.5 126v371q0 35 35 35h81q35 0 35 -35v-303q0 -51 15 -73.5t56 -22.5q61 0 128 45v354q0 35 35 35h80z" />
    <glyph glyph-name="Uogonek" unicode="&#x172;" horiz-adv-x="700" 
d="M479 707q0 35 35 35h81q35 0 35 -35v-457q0 -156 -111 -223q-74 -81 -74 -114q0 -42 45 -42h13q37 3 37 -31v-20q0 -33 -29 -39q-20 -5 -46 -5q-50 0 -84 24.5t-34 77.5q0 54 73 113q-34 -6 -69 -6q-56 0 -104.5 15t-89 45.5t-64 85t-23.5 126.5v450q0 35 35 35h87
q35 0 35 -35v-450q0 -61 34 -96.5t91 -35.5q60 0 93.5 33t33.5 93v456z" />
    <glyph glyph-name="uogonek" unicode="&#x173;" horiz-adv-x="626" 
d="M517 0q-57 -51 -57 -85q0 -21 12.5 -32t32.5 -11h17q34 0 34 -32v-24q0 -34 -35 -41q-19 -4 -40 -4q-51 0 -84.5 25.5t-33.5 81.5q0 64 75 122q-25 0 -25 35v12q-88 -58 -184 -58q-81 0 -124.5 47t-43.5 126v371q0 35 35 35h81q35 0 35 -35v-303q0 -51 15 -73.5t56 -22.5
q61 0 128 45v354q0 35 35 35h80q35 0 35 -35v-498q0 -35 -22 -35h-22z" />
    <glyph glyph-name="Wcircumflex" unicode="&#x174;" horiz-adv-x="901" 
d="M620 802q-12 -16 -27 -16q-9 0 -22 8l-121 80l-121 -79q-10 -7 -22 -7q-15 0 -27 15l-3 4q-9 12 -9 23q0 13 13 26l106 103q17 17 43 17h40q26 0 43 -17l106 -103q13 -13 13 -26q0 -11 -9 -23zM238 0q-32 0 -39 30l-177 673q-2 8 -2 12q0 27 32 27h88q30 0 38 -31
l106 -448l98 373q7 30 39 30h62q31 0 39 -30l100 -370l104 445q8 31 38 31h85q32 0 32 -27q0 -4 -2 -12l-172 -673q-7 -30 -39 -30h-79q-32 0 -39 30l-100 374l-100 -374q-7 -30 -39 -30h-73z" />
    <glyph glyph-name="wcircumflex" unicode="&#x175;" horiz-adv-x="783" 
d="M561 652q-12 -16 -27 -16q-9 0 -22 8l-121 80l-121 -79q-10 -7 -22 -7q-15 0 -27 15l-3 4q-9 12 -9 23q0 13 13 26l106 103q17 17 43 17h40q26 0 43 -17l106 -103q13 -13 13 -26q0 -11 -9 -23zM200 0q-32 0 -39 30l-139 499q-2 10 -2 13q0 26 32 26h77q32 0 39 -30
l77 -297l79 252q9 29 39 29h59q31 0 40 -29l76 -256l83 301q7 30 39 30h72q32 0 32 -26q0 -3 -2 -13l-145 -500q-9 -29 -40 -29h-68q-30 0 -39 29l-81 267l-84 -267q-9 -29 -39 -29h-66z" />
    <glyph glyph-name="Ycircumflex" unicode="&#x176;" horiz-adv-x="665" 
d="M503 802q-12 -16 -27 -16q-9 0 -22 8l-121 80l-121 -79q-10 -7 -22 -7q-15 0 -27 15l-3 4q-9 12 -9 23q0 13 13 26l106 103q17 17 43 17h40q26 0 43 -17l106 -103q13 -13 13 -26q0 -11 -9 -23zM610 742q30 0 30 -23q0 -10 -5 -19l-223 -418v-247q0 -35 -35 -35h-83
q-35 0 -35 35v242l-228 423q-6 10 -6 20q0 22 30 22h96q28 0 41 -25l142 -282l144 282q12 25 41 25h91z" />
    <glyph glyph-name="ycircumflex" unicode="&#x177;" horiz-adv-x="567" 
d="M466 652q-12 -16 -27 -16q-9 0 -22 8l-121 80l-121 -79q-10 -7 -22 -7q-15 0 -27 15l-3 4q-9 12 -9 23q0 13 13 26l106 103q17 17 43 17h40q26 0 43 -17l106 -103q13 -13 13 -26q0 -11 -9 -23zM517 568q31 0 31 -24q0 -7 -3 -16l-208 -578q-30 -83 -80 -117.5t-152 -34.5
q-29 0 -56 3q-31 4 -31 38v69q0 33 32 33q9 0 26.5 -1t24.5 -1q39 0 63 16t40 50l17 34l-197 488q-4 12 -4 16q0 25 32 25h82q30 0 40 -28l121 -327l103 326q9 29 39 29h80z" />
    <glyph glyph-name="Ydieresis" unicode="&#x178;" horiz-adv-x="665" 
d="M227 786q-30 0 -51.5 21.5t-21.5 51.5t21.5 51.5t51.5 21.5t51.5 -21.5t21.5 -51.5t-21.5 -51.5t-51.5 -21.5zM438 786q-30 0 -51.5 21.5t-21.5 51.5t21.5 51.5t51.5 21.5t51.5 -21.5t21.5 -51.5t-21.5 -51.5t-51.5 -21.5zM610 742q30 0 30 -23q0 -10 -5 -19l-223 -418
v-247q0 -35 -35 -35h-83q-35 0 -35 35v242l-228 423q-6 10 -6 20q0 22 30 22h96q28 0 41 -25l142 -282l144 282q12 25 41 25h91z" />
    <glyph glyph-name="Zacute" unicode="&#x179;" horiz-adv-x="616" 
d="M270 795q-11 -6 -19 -6q-17 0 -29 18l-4 6q-7 11 -7 22q0 15 15 27l141 116q12 9 23 9q16 0 26 -17l24 -40q6 -10 6 -20q0 -17 -19 -27zM74 0q-35 0 -35 35v64q0 24 14 44l322 457h-285q-35 0 -35 35v72q0 35 35 35h440q35 0 35 -35v-62q0 -24 -14 -44l-319 -458h307
q35 0 35 -35v-73q0 -35 -35 -35h-465z" />
    <glyph glyph-name="zacute" unicode="&#x17a;" horiz-adv-x="500" 
d="M251 645q-10 -6 -20 -6q-16 0 -28 18l-4 6q-7 11 -7 22q0 15 15 27l141 116q12 9 23 9q16 0 26 -17l24 -40q6 -10 6 -20q0 -17 -19 -27zM58 0q-35 0 -35 35v44q0 25 15 43l248 310h-213q-35 0 -35 35v66q0 35 35 35h358q35 0 35 -35v-43q0 -24 -15 -43l-241 -311h229
q35 0 35 -35v-66q0 -35 -35 -35h-381z" />
    <glyph glyph-name="Zdotaccent" unicode="&#x17b;" horiz-adv-x="616" 
d="M310 780q-31 0 -53 22t-22 53t22 53t53 22t53 -22t22 -53t-22 -53t-53 -22zM74 0q-35 0 -35 35v64q0 24 14 44l322 457h-285q-35 0 -35 35v72q0 35 35 35h440q35 0 35 -35v-62q0 -24 -14 -44l-319 -458h307q35 0 35 -35v-73q0 -35 -35 -35h-465z" />
    <glyph glyph-name="zdotaccent" unicode="&#x17c;" horiz-adv-x="500" 
d="M257 625q-31 0 -53 22t-22 53t22 53t53 22t53 -22t22 -53t-22 -53t-53 -22zM58 0q-35 0 -35 35v44q0 25 15 43l248 310h-213q-35 0 -35 35v66q0 35 35 35h358q35 0 35 -35v-43q0 -24 -15 -43l-241 -311h229q35 0 35 -35v-66q0 -35 -35 -35h-381z" />
    <glyph glyph-name="Zcaron" unicode="&#x17d;" horiz-adv-x="616" 
d="M290 775q-26 0 -43 17l-106 103q-13 13 -13 26q0 11 9 23l4 5q12 16 26 16q9 0 22 -8l121 -80l121 79q10 7 22 7q15 0 27 -15l3 -4q9 -12 9 -23q0 -13 -13 -26l-106 -103q-17 -17 -43 -17h-40zM74 0q-35 0 -35 35v64q0 24 14 44l322 457h-285q-35 0 -35 35v72q0 35 35 35
h440q35 0 35 -35v-62q0 -24 -14 -44l-319 -458h307q35 0 35 -35v-73q0 -35 -35 -35h-465z" />
    <glyph glyph-name="zcaron" unicode="&#x17e;" horiz-adv-x="500" 
d="M233 625q-26 0 -43 17l-106 103q-13 13 -13 26q0 11 9 23l4 5q12 16 26 16q9 0 22 -8l121 -80l121 79q10 7 22 7q15 0 27 -15l3 -4q9 -12 9 -23q0 -13 -13 -26l-106 -103q-17 -17 -43 -17h-40zM58 0q-35 0 -35 35v44q0 25 15 43l248 310h-213q-35 0 -35 35v66q0 35 35 35
h358q35 0 35 -35v-43q0 -24 -15 -43l-241 -311h229q35 0 35 -35v-66q0 -35 -35 -35h-381z" />
    <glyph glyph-name="uni018F" unicode="&#x18f;" horiz-adv-x="760" 
d="M378 -15q-156 0 -241 102.5t-91 281.5q0 36 35 36h473q-12 121 -59.5 171t-137.5 50q-98 0 -169 -74q-13 -15 -26 -15q-12 0 -24 12l-48 48q-12 12 -12 26q0 13 10 24q100 109 281 109q163 0 254 -107t91 -285q0 -165 -89.5 -272t-246.5 -107zM377 115q152 0 175 173
h-338q10 -82 51.5 -127.5t111.5 -45.5z" />
    <glyph glyph-name="florin" unicode="&#x192;" horiz-adv-x="577" 
d="M57 -156q-36 0 -71 7q-28 5 -28 29q0 3 2 13l16 59q7 28 33 28q8 0 20.5 -1t16.5 -1q61 0 78 58l76 300h-57q-35 0 -35 35v62q0 35 35 35h86l26 95q21 93 67.5 143t138.5 50q39 0 81 -9q26 -6 26 -28q0 -7 -3 -16l-19 -53q-9 -26 -32 -26q-6 0 -17 0.5t-14 0.5
q-57 0 -76 -71l-25 -86h65q35 0 35 -35v-62q0 -35 -35 -35h-94l-80 -324q-19 -84 -70 -126t-146 -42z" />
    <glyph glyph-name="uni01DD" unicode="&#x1dd;" horiz-adv-x="617" 
d="M296 579q126 0 202 -81.5t76 -213.5q0 -131 -72 -213t-197 -82q-65 0 -115 24.5t-81 68t-48 96t-21 114.5q-2 36 35 36h348q-3 62 -42 89t-98 27q-61 0 -115 -42q-14 -11 -25 -11q-13 0 -25 13l-45 50q-12 14 -12 25t9 20q89 80 226 80zM421 221h-232q5 -50 35.5 -78.5
t79.5 -28.5q48 0 78.5 28t38.5 79z" />
    <glyph glyph-name="uni01F4" unicode="&#x1f4;" horiz-adv-x="746" 
d="M353 795q-11 -6 -19 -6q-17 0 -29 18l-4 6q-7 11 -7 22q0 15 15 27l141 116q12 9 23 9q16 0 26 -17l24 -40q6 -10 6 -20q0 -17 -19 -27zM368 -15q-152 0 -236.5 104.5t-84.5 280.5q0 175 96.5 280.5t250.5 105.5q145 0 236 -97q11 -11 11 -23q0 -14 -14 -26l-52 -45
q-11 -10 -23 -10t-26 12q-52 49 -132 49q-84 0 -135.5 -68t-51.5 -178q0 -113 47 -179t138 -66q54 0 93.5 31.5t39.5 76.5v52h-120q-35 0 -35 35v63q0 35 35 35h235q35 0 35 -35v-348q0 -35 -35 -35h-43q-34 0 -38 32l-5 35q-30 -38 -79 -60t-107 -22z" />
    <glyph glyph-name="uni01F5" unicode="&#x1f5;" horiz-adv-x="642" 
d="M280 646q-10 -6 -19 -6q-17 0 -29 18l-4 6q-7 11 -7 22q0 15 15 27l141 116q12 9 23 9q16 0 26 -17l24 -40q6 -11 6 -20q0 -17 -19 -27zM303 -202q-119 0 -218 55q-18 11 -18 28q0 9 6 20l31 54q10 18 27 18q9 0 21 -6q68 -37 148 -37q63 0 96.5 28t33.5 75v35
q-71 -57 -160 -57q-101 0 -164 76.5t-63 206.5t63 207t164 77q96 0 165 -66v21q0 35 35 35h72q35 0 35 -35v-507q0 -103 -69.5 -165.5t-204.5 -62.5zM313 146q13 0 26.5 3.5t27 11t21.5 12.5t22 15t17 12v183q-23 19 -34.5 27.5t-36 20.5t-45.5 12q-56 0 -84 -40t-28 -107
q0 -68 28.5 -109t85.5 -41z" />
    <glyph glyph-name="Aringacute" unicode="&#x1fa;" horiz-adv-x="694" 
d="M257 964l-4 6q-7 11 -7 22q0 15 15 27l141 116q12 9 23 9q16 0 26 -17l24 -40q6 -11 6 -20q0 -17 -19 -27l-157 -88q-11 -6 -19 -6q-17 0 -29 18zM678 40q3 -8 3 -15q0 -25 -32 -25h-90q-30 0 -39 29l-40 122h-272l-39 -122q-9 -29 -39 -29h-85q-32 0 -32 25q0 7 3 15
l241 676q-34 34 -34 79q0 54 35.5 92t85.5 38t86 -38t36 -91q0 -43 -31 -79zM345 850q-22 0 -38.5 -15.5t-16.5 -38.5t15.5 -38.5t38.5 -15.5t39 15.5t16 38.5t-16 38.5t-38 15.5zM251 285h184l-93 282z" />
    <glyph glyph-name="aringacute" unicode="&#x1fb;" horiz-adv-x="597" 
d="M257 886q-10 -6 -19 -6q-17 0 -29 18l-4 6q-7 11 -7 22q0 15 15 27l141 116q12 9 23 9q16 0 26 -17l24 -40q6 -10 6 -20q0 -17 -19 -27zM300 619q-47 0 -80 35t-33 85q0 49 33 84.5t80 35.5q48 0 80 -36.5t32 -83.5q0 -48 -32 -84t-80 -36zM300 701q17 0 28.5 11t11.5 27
t-11.5 27t-28.5 11t-29 -11t-12 -27t12 -27t29 -11zM211 -11q-82 0 -127.5 46.5t-45.5 120.5q0 44 14.5 77.5t38.5 54.5t62.5 35.5t77.5 22t94 12.5l61 6v23q0 30 -26.5 48.5t-70.5 18.5q-70 0 -137 -49q-12 -9 -24 -9q-15 0 -25 16l-30 44q-8 13 -8 23q0 15 15 26
q98 74 220 74q117 0 177 -57.5t60 -149.5v-337q0 -35 -35 -35h-74q-35 0 -35 29v29q-94 -69 -182 -69zM260 114q61 0 126 48v95l-39 -5q-86 -10 -122 -29t-36 -56q0 -25 20 -39t51 -14z" />
    <glyph glyph-name="AEacute" unicode="&#x1fc;" horiz-adv-x="1018" 
d="M521 807l-4 6q-7 11 -7 22q0 15 15 27l141 116q12 9 23 9q16 0 26 -17l24 -40q6 -10 6 -20q0 -17 -19 -27l-157 -88q-11 -6 -19 -6q-17 0 -29 18zM926 138q35 0 35 -35v-68q0 -35 -35 -35h-420q-35 0 -35 35v116h-228l-66 -126q-13 -25 -41 -25h-95q-30 0 -30 23
q0 10 5 19l377 676q13 24 42 24h478q35 0 35 -35v-64q0 -35 -35 -35h-285v-148h233q35 0 35 -35v-64q0 -35 -35 -35h-233v-188h298zM471 285v299l-157 -299h157z" />
    <glyph glyph-name="aeacute" unicode="&#x1fd;" horiz-adv-x="960" 
d="M439 646q-11 -6 -19 -6q-17 0 -29 18l-4 6q-7 11 -7 22q0 15 15 27l141 116q12 9 23 9q16 0 26 -17l24 -40q6 -11 6 -20q0 -17 -19 -27zM920 276q2 -36 -35 -36h-348q3 -62 42.5 -89t97.5 -27q62 0 115 42q14 11 25 11q12 0 24 -13l45 -50q11 -13 11 -24q0 -13 -13 -25
q-85 -76 -220 -76q-148 0 -221 98q-113 -98 -226 -98q-86 0 -132.5 46t-46.5 121q0 44 14.5 77.5t38.5 54.5t62.5 35.5t77.5 22t94 12.5l61 6v23q0 30 -25.5 48.5t-71.5 18.5q-68 0 -136 -50q-13 -8 -23 -8q-14 0 -26 16l-31 44q-8 11 -8 22q0 15 16 27q99 74 218 74
q62 0 108.5 -21.5t69.5 -58.5q65 80 178 80q64 0 114.5 -24.5t81.5 -68t48 -96t21 -114.5zM538 347h232q-4 50 -34.5 78.5t-79.5 28.5q-48 0 -79 -28t-39 -79zM260 114q65 0 143 62q-15 42 -16 82l-41 -6q-87 -11 -122 -30.5t-35 -54.5q0 -25 20 -39t51 -14z" />
    <glyph glyph-name="Oslashacute" unicode="&#x1fe;" horiz-adv-x="760" 
d="M293 807l-4 6q-7 11 -7 22q0 15 15 27l141 116q12 9 23 9q16 0 26 -17l24 -40q6 -10 6 -20q0 -17 -19 -27l-157 -88q-10 -6 -19 -6q-17 0 -29 18zM630 643q84 -103 84 -273q0 -177 -92 -281t-241 -104q-109 0 -188 55l-24 -33q-12 -16 -26 -16q-9 0 -22 8l-12 8
q-17 12 -17 27q0 11 8 22l31 42q-84 103 -84 272q0 178 91.5 282t242.5 104q108 0 186 -55l24 33q12 16 27 16q12 0 22 -7l13 -9q16 -12 16 -26q0 -10 -8 -23zM207 370q0 -77 23 -135l250 345q-42 36 -100 36q-82 0 -127.5 -67t-45.5 -179zM380 125q83 0 128 67t45 177
q0 76 -22 136l-251 -345q43 -35 100 -35z" />
    <glyph glyph-name="oslashacute" unicode="&#x1ff;" horiz-adv-x="642" 
d="M232 658l-4 6q-7 11 -7 22q0 15 15 27l141 116q12 9 23 9q16 0 26 -17l24 -40q6 -11 6 -20q0 -17 -19 -27l-157 -88q-10 -6 -19 -6q-17 0 -29 18zM533 487q66 -80 66 -203q0 -134 -76.5 -214.5t-201.5 -80.5q-83 0 -148 37l-18 -23q-12 -15 -26 -15q-11 0 -23 9l-14 11
q-15 12 -15 26q0 11 9 23l21 27q-64 78 -64 200q0 134 76 214.5t202 80.5q81 0 145 -36l17 22q12 15 26 15q11 0 23 -9l14 -11q15 -12 15 -26q0 -11 -9 -23zM199 284q0 -41 9 -71l170 218q-25 13 -57 13q-56 0 -89 -39.5t-33 -120.5zM321 124q57 0 90 40t33 120q0 41 -10 76
l-173 -221q25 -15 60 -15z" />
    <glyph glyph-name="uni0218" unicode="&#x218;" horiz-adv-x="602" 
d="M293 -15q-145 0 -246 84q-14 11 -14 26q0 10 8 23l40 58q10 16 26 16q12 0 23 -10q82 -62 160 -62q118 0 118 73q0 31 -26 51.5t-89 44.5l-72 28q-91 36 -134.5 83.5t-43.5 131.5q0 108 74 166t190 58q127 0 224 -74q15 -12 15 -26q0 -10 -8 -23l-39 -58q-10 -16 -26 -16
q-11 0 -23 9q-71 54 -143 54q-49 0 -79 -18.5t-30 -55.5q0 -26 23 -43t74 -37l71 -28q107 -42 154.5 -90t47.5 -135q0 -78 -40 -131.5t-100 -76t-135 -22.5zM293 -19q34 0 53.5 -19.5t19.5 -51.5q0 -53 -37.5 -82.5t-89.5 -29.5h-21q-33 2 -33 29q0 25 19 25q6 -1 19 -1
q22 0 40.5 8t22.5 21q-25 2 -39.5 15.5t-14.5 34.5q0 23 16.5 37t44.5 14z" />
    <glyph glyph-name="uni0219" unicode="&#x219;" horiz-adv-x="533" 
d="M446 436q-12 -18 -28 -18q-7 0 -19 5q-69 32 -139 32q-28 0 -44 -11t-16 -26q0 -17 15 -27t53 -23l59 -20q88 -30 130 -69t42 -109q0 -88 -67 -134.5t-160 -46.5q-133 0 -222 63q-16 12 -16 26q0 10 8 23l30 46q10 16 26 16q12 0 23 -7q73 -45 148 -45q79 0 79 47
q0 19 -17 29.5t-70 28.5l-60 20q-77 26 -114.5 64.5t-37.5 106.5q0 69 54.5 120.5t168.5 51.5q100 0 191 -52q18 -10 18 -26q0 -11 -7 -22zM260 -19q34 0 53.5 -19.5t19.5 -51.5q0 -53 -37.5 -82.5t-89.5 -29.5h-21q-33 2 -33 29q0 25 19 25q6 -1 19 -1q22 0 40.5 8t22.5 21
q-25 2 -39.5 15.5t-14.5 34.5q0 23 16.5 37t44.5 14z" />
    <glyph glyph-name="uni021A" unicode="&#x21a;" horiz-adv-x="577" 
d="M245 0q-35 0 -35 35v565h-166q-35 0 -35 35v72q0 35 35 35h489q35 0 35 -35v-72q0 -35 -35 -35h-166v-565q0 -35 -35 -35h-87zM288 -19q34 0 53.5 -19.5t19.5 -51.5q0 -53 -37.5 -82.5t-89.5 -29.5h-21q-33 2 -33 29q0 25 19 25q6 -1 19 -1q22 0 40.5 8t22.5 21
q-25 2 -39.5 15.5t-14.5 34.5q0 23 16.5 37t44.5 14z" />
    <glyph glyph-name="uni021B" unicode="&#x21b;" horiz-adv-x="406" 
d="M288 -11q-111 0 -149.5 43.5t-38.5 145.5v260h-54q-35 0 -35 35v60q0 35 35 35h54v70q0 28 25 41l84 42q12 5 18 5q23 0 23 -30v-128h87q35 0 35 -35v-60q0 -35 -35 -35h-87v-257q0 -53 62 -53q4 0 13.5 1t15.5 1q31 0 31 -32v-67q0 -33 -31 -37q-30 -5 -53 -5zM275 -19
q34 0 53.5 -19.5t19.5 -51.5q0 -53 -37.5 -82.5t-89.5 -29.5h-21q-33 2 -33 29q0 25 19 25q6 -1 19 -1q22 0 40.5 8t22.5 21q-25 2 -39.5 15.5t-14.5 34.5q0 23 16.5 37t44.5 14z" />
    <glyph glyph-name="uni0237" unicode="&#x237;" horiz-adv-x="292" 
d="M18 -202q-70 0 -128 21q-22 7 -22 28q0 8 3 17l21 57q9 23 29 23q7 0 16 -3q36 -11 68 -11q36 0 53.5 20t17.5 71v512q0 35 35 35h80q35 0 35 -35v-517q0 -218 -208 -218z" />
    <glyph glyph-name="uni0259" unicode="&#x259;" horiz-adv-x="617" 
d="M296 579q126 0 202 -81.5t76 -213.5q0 -131 -72 -213t-197 -82q-65 0 -115 24.5t-81 68t-48 96t-21 114.5q-2 36 35 36h348q-3 62 -42 89t-98 27q-61 0 -115 -42q-14 -11 -25 -11q-13 0 -25 13l-45 50q-12 14 -12 25t9 20q89 80 226 80zM421 221h-232q5 -50 35.5 -78.5
t79.5 -28.5q48 0 78.5 28t38.5 79z" />
    <glyph glyph-name="uni02BC" unicode="&#x2bc;" horiz-adv-x="600" 
d="M132 762q40 0 65.5 -29t25.5 -80q0 -60 -31 -117t-92 -89q-10 -5 -17 -5q-19 0 -29 24l-2 5q-3 7 -3 15q0 18 22 31q59 32 62 87q-36 1 -61 23.5t-25 55.5q0 32 24 55.5t61 23.5z" />
    <glyph glyph-name="circumflex" unicode="&#x2c6;" horiz-adv-x="333" 
d="M337 652q-12 -16 -27 -16q-9 0 -22 8l-121 80l-121 -79q-10 -7 -22 -7q-15 0 -27 15l-3 4q-9 12 -9 23q0 13 13 26l106 103q17 17 43 17h40q26 0 43 -17l106 -103q13 -13 13 -26q0 -11 -9 -23z" />
    <glyph glyph-name="caron" unicode="&#x2c7;" horiz-adv-x="333" 
d="M147 625q-26 0 -43 17l-106 103q-13 13 -13 26q0 11 9 23l4 5q12 16 26 16q9 0 22 -8l121 -80l121 79q10 7 22 7q15 0 27 -15l3 -4q9 -12 9 -23q0 -13 -13 -26l-106 -103q-17 -17 -43 -17h-40z" />
    <glyph glyph-name="uni02C9" unicode="&#x2c9;" horiz-adv-x="333" 
d="M47 676q-35 0 -35 35v32q0 35 35 35h239q35 0 35 -35v-32q0 -35 -35 -35h-239z" />
    <glyph glyph-name="breve" unicode="&#x2d8;" horiz-adv-x="333" 
d="M167 646q-118 0 -157 114q-2 10 -2 13q0 23 26 31l5 1q10 2 13 2q18 0 33 -20q27 -33 82 -33t82 33q17 20 33 20q3 0 13 -2l4 -1q26 -6 26 -33q0 -9 -4 -18q-41 -107 -154 -107z" />
    <glyph glyph-name="dotaccent" unicode="&#x2d9;" horiz-adv-x="333" 
d="M167 650q-31 0 -53 22t-22 53t22 53t53 22t53 -22t22 -53t-22 -53t-53 -22z" />
    <glyph glyph-name="ring" unicode="&#x2da;" horiz-adv-x="333" 
d="M167 638q-47 0 -80 35t-33 85q0 49 33 84.5t80 35.5q48 0 80 -36.5t32 -83.5q0 -48 -32 -84t-80 -36zM167 720q17 0 28.5 11t11.5 27t-11.5 27t-28.5 11t-29 -11t-12 -27t12 -27t29 -11z" />
    <glyph glyph-name="ogonek" unicode="&#x2db;" horiz-adv-x="333" 
d="M188 -225q-55 0 -90.5 25.5t-35.5 79.5q0 57 52 106q16 16 43 16h3q25 0 25 -15q0 -9 -9 -23q-16 -25 -16 -49q0 -44 60 -44h13q37 3 37 -31v-20q0 -33 -34 -40q-21 -5 -48 -5z" />
    <glyph glyph-name="tilde" unicode="&#x2dc;" horiz-adv-x="333" 
d="M232 651q-29 0 -64 19l-28 13q-22 11 -43 11q-23 0 -45 -13q-14 -9 -26 -9q-14 0 -24 13l-5 6q-11 13 -11 26q0 11 9 23q47 60 107 60q27 0 52 -14l34 -15q34 -15 48 -15q23 0 45 13q13 9 26 9q14 0 24 -13l5 -6q10 -12 10 -24q0 -15 -15 -33q-44 -51 -99 -51z" />
    <glyph glyph-name="hungarumlaut" unicode="&#x2dd;" horiz-adv-x="333" 
d="M77 645q-12 -9 -22 -9q-15 0 -27 15l-3 3q-9 12 -9 24q0 14 12 26l126 133q13 13 25 13q13 0 25 -15l24 -29q9 -12 9 -23q0 -15 -15 -27zM268 645q-11 -8 -23 -8q-15 0 -26 14l-3 3q-9 12 -9 24q0 14 12 26l127 133q13 13 25 13q13 0 25 -15l24 -29q9 -12 9 -23
q0 -15 -15 -27z" />
    <glyph glyph-name="gravecomb" unicode="&#x300;" 
d="M108 657q-12 -18 -28 -18q-10 0 -20 6l-159 88q-19 10 -19 27q0 11 7 21l24 39q10 17 26 17q11 0 23 -9l142 -116q15 -12 15 -27q0 -11 -7 -22z" />
    <glyph glyph-name="acutecomb" unicode="&#x301;" 
d="M-42 645q-10 -6 -19 -6q-17 0 -29 18l-4 6q-7 11 -7 22q0 15 15 27l141 116q12 9 23 9q16 0 26 -17l24 -40q6 -10 6 -20q0 -17 -19 -27z" />
    <glyph glyph-name="uni0302" unicode="&#x302;" 
d="M170 652q-12 -16 -27 -16q-9 0 -22 8l-121 80l-121 -79q-10 -7 -22 -7q-15 0 -27 15l-3 4q-9 12 -9 23q0 13 13 26l106 103q17 17 43 17h40q26 0 43 -17l106 -103q13 -13 13 -26q0 -11 -9 -23z" />
    <glyph glyph-name="tildecomb" unicode="&#x303;" 
d="M65 651q-28 0 -63 19l-30 13q-20 11 -42 11q-23 0 -45 -13q-13 -9 -26 -9q-14 0 -24 13l-5 6q-11 13 -11 26q0 11 9 23q47 60 107 60q27 0 52 -14l35 -15q32 -15 48 -15q23 0 45 13q13 9 26 9q14 0 24 -13l5 -6q10 -12 10 -24q0 -15 -15 -33q-44 -51 -100 -51z" />
    <glyph glyph-name="uni0304" unicode="&#x304;" 
d="M-120 676q-35 0 -35 35v32q0 35 35 35h239q35 0 35 -35v-32q0 -35 -35 -35h-239z" />
    <glyph glyph-name="uni0306" unicode="&#x306;" 
d="M0 646q-118 0 -157 114q-2 10 -2 13q0 23 26 31l5 1q10 2 13 2q16 0 33 -20q27 -33 82 -33t82 33q17 20 33 20q3 0 13 -2l4 -1q26 -6 26 -33q0 -9 -4 -18q-41 -107 -154 -107z" />
    <glyph glyph-name="uni0307" unicode="&#x307;" 
d="M0 650q-31 0 -53 22t-22 53t22 53t53 22t53 -22t22 -53t-22 -53t-53 -22z" />
    <glyph glyph-name="uni0308" unicode="&#x308;" 
d="M-106 656q-30 0 -51.5 21.5t-21.5 51.5t21.5 51.5t51.5 21.5t51.5 -21.5t21.5 -51.5t-21.5 -51.5t-51.5 -21.5zM105 656q-30 0 -51.5 21.5t-21.5 51.5t21.5 51.5t51.5 21.5t51.5 -21.5t21.5 -51.5t-21.5 -51.5t-51.5 -21.5z" />
    <glyph glyph-name="uni030A" unicode="&#x30a;" 
d="M0 638q-47 0 -80 35t-33 85q0 49 33 84.5t80 35.5q48 0 80 -36.5t32 -83.5q0 -48 -32 -84t-80 -36zM0 720q17 0 28.5 11t11.5 27t-11.5 27t-28.5 11t-29 -11t-12 -27t12 -27t29 -11z" />
    <glyph glyph-name="uni030B" unicode="&#x30b;" 
d="M-146 645q-12 -9 -22 -9q-15 0 -27 15l-3 3q-9 12 -9 24q0 14 12 26l126 133q13 13 25 13q13 0 25 -15l24 -29q9 -12 9 -23q0 -15 -15 -27zM45 645q-11 -8 -23 -8q-15 0 -26 14l-3 3q-9 12 -9 24q0 14 12 26l127 133q13 13 25 13q13 0 25 -15l24 -29q9 -12 9 -23
q0 -15 -15 -27z" />
    <glyph glyph-name="uni030C" unicode="&#x30c;" 
d="M-20 625q-26 0 -43 17l-106 103q-13 13 -13 26q0 11 9 23l4 5q12 16 26 16q9 0 22 -8l121 -80l121 79q10 7 22 7q15 0 27 -15l3 -4q9 -12 9 -23q0 -13 -13 -26l-106 -103q-17 -17 -43 -17h-40z" />
    <glyph glyph-name="uni0312" unicode="&#x312;" 
d="M-20 620q-34 0 -53.5 19.5t-19.5 51.5q0 53 37.5 82.5t89.5 29.5h21q33 -1 33 -29q0 -25 -19 -25q-6 1 -19 1q-22 0 -40.5 -8t-22.5 -21q25 -2 39.5 -15.5t14.5 -34.5q0 -23 -16.5 -37t-44.5 -14z" />
    <glyph glyph-name="uni0313" unicode="&#x313;" 
d="M-120 808q34 0 53.5 -19.5t19.5 -51.5q0 -53 -37.5 -82.5t-89.5 -29.5h-21q-33 1 -33 29q0 25 19 25q6 -1 19 -1q22 0 40.5 8t22.5 21q-25 2 -39.5 15.5t-14.5 34.5q0 23 16.5 37t44.5 14z" />
    <glyph glyph-name="uni0324" unicode="&#x324;" 
d="M-106 -209q-30 0 -51.5 21.5t-21.5 51.5t21.5 51.5t51.5 21.5t51.5 -21.5t21.5 -51.5t-21.5 -51.5t-51.5 -21.5zM105 -209q-30 0 -51.5 21.5t-21.5 51.5t21.5 51.5t51.5 21.5t51.5 -21.5t21.5 -51.5t-21.5 -51.5t-51.5 -21.5z" />
    <glyph glyph-name="uni0325" unicode="&#x325;" 
d="M0 -189q-47 0 -80 35t-33 85q0 49 33 84.5t80 35.5q48 0 80 -36.5t32 -83.5q0 -48 -32 -84t-80 -36zM0 -107q17 0 28.5 11t11.5 27t-11.5 27t-28.5 11t-29 -11t-12 -27t12 -27t29 -11z" />
    <glyph glyph-name="uni0326" unicode="&#x326;" 
d="M2 -19q34 0 53.5 -19.5t19.5 -51.5q0 -53 -37.5 -82.5t-89.5 -29.5h-21q-33 2 -33 29q0 25 19 25q6 -1 19 -1q22 0 40.5 8t22.5 21q-25 2 -39.5 15.5t-14.5 34.5q0 23 16.5 37t44.5 14z" />
    <glyph glyph-name="uni0327" unicode="&#x327;" 
d="M-41 -228q-7 0 -31 2q-32 3 -32 37v16q0 34 22 34q5 0 13.5 -1t11.5 -1q66 0 66 26t-57 26q-21 0 -21 35v25q0 35 35 35h13q35 0 35 -15v-15q45 -5 67.5 -30t22.5 -64q0 -110 -145 -110z" />
    <glyph glyph-name="uni0328" unicode="&#x328;" 
d="M22 -225q-55 0 -90.5 25.5t-35.5 79.5q0 57 52 106q16 16 43 16h3q25 0 25 -15q0 -9 -9 -23q-16 -25 -16 -49q0 -44 60 -44h13q37 3 37 -31v-20q0 -33 -34 -40q-21 -5 -48 -5z" />
    <glyph glyph-name="uni032E" unicode="&#x32e;" 
d="M-125 -190q-118 0 -157 114q-2 10 -2 13q0 23 26 31l5 1q10 2 13 2q16 0 33 -20q27 -33 82 -33t82 33q17 20 33 20q3 0 13 -2l4 -1q26 -6 26 -33q0 -9 -4 -18q-41 -107 -154 -107z" />
    <glyph glyph-name="uni0331" unicode="&#x331;" 
d="M-120 -189q-35 0 -35 35v32q0 35 35 35h239q35 0 35 -35v-32q0 -35 -35 -35h-239z" />
    <glyph glyph-name="uni0335" unicode="&#x335;" 
d="M-388 623q-35 0 -35 35v21q0 35 35 35h303q35 0 35 -35v-21q0 -35 -35 -35h-303z" />
    <glyph glyph-name="uni0374" unicode="&#x374;" horiz-adv-x="213" 
d="M103 444q-32 0 -37 33l-28 228q-2 17 7 27t26 10h71q17 0 26 -10t7 -27l-28 -228q-5 -33 -37 -33h-7z" />
    <glyph glyph-name="uni0375" unicode="&#x375;" horiz-adv-x="213" 
d="M71 -298q-17 0 -26 10t-7 27l28 228q5 33 37 33h7q32 0 37 -33l28 -228q2 -17 -7 -27t-26 -10h-71z" />
    <glyph glyph-name="uni037E" unicode="&#x37e;" horiz-adv-x="274" 
d="M137 374q-35 0 -60 25t-25 60t25 60t60 25t60 -25t25 -60t-25 -60t-60 -25zM134 159q39 0 63.5 -29.5t24.5 -82.5q0 -65 -30.5 -127t-89.5 -97q-9 -6 -18 -6q-20 0 -28 24l-2 6q-3 9 -3 16q0 16 20 30q58 39 61 102q-33 2 -56.5 25.5t-23.5 57.5t23.5 57.5t58.5 23.5z
" />
    <glyph glyph-name="tonos" unicode="&#x384;" horiz-adv-x="333" 
d="M120 624q-9 -5 -19 -5q-17 0 -29 18l-4 6q-6 11 -6 21q0 16 15 28l143 114q12 9 22 9q16 0 26 -17l24 -40q6 -10 6 -20q0 -18 -19 -28z" />
    <glyph glyph-name="dieresistonos" unicode="&#x385;" horiz-adv-x="333" 
d="M185 661q-9 -25 -31 -25q-37 0 -37 32q0 6 1 10l33 188q4 28 29 28q3 0 13 -2l29 -8q25 -7 25 -30q0 -9 -2 -14zM39 643q-28 0 -44.5 18t-16.5 49t16.5 49t44.5 18t44.5 -18t16.5 -49t-16.5 -49t-44.5 -18zM294 643q-28 0 -44.5 18t-16.5 49t16.5 49t44.5 18t44.5 -18
t16.5 -49t-16.5 -49t-44.5 -18z" />
    <glyph glyph-name="Alphatonos" unicode="&#x386;" horiz-adv-x="692" 
d="M62 533q-28 6 -28 32q0 6 1 9l32 173q4 28 28 28q9 0 14 -2l39 -12q26 -8 26 -30q0 -7 -3 -14l-60 -163q-9 -25 -30 -25q-3 0 -13 2zM678 40q3 -8 3 -15q0 -25 -32 -25h-90q-30 0 -39 29l-40 122h-272l-39 -122q-9 -29 -39 -29h-85q-32 0 -32 25q0 7 3 15l240 674
q10 28 40 28h100q30 0 40 -28zM251 285h184l-93 282z" />
    <glyph glyph-name="anoteleia" unicode="&#x387;" horiz-adv-x="262" 
d="M131 405q-35 0 -60 25t-25 60t25 60t60 25t60 -25t25 -60t-25 -60t-60 -25z" />
    <glyph glyph-name="Epsilontonos" unicode="&#x388;" horiz-adv-x="717" 
d="M67 554q-9 -25 -30 -25q-3 0 -13 2l-6 2q-28 6 -28 32q0 6 1 9l32 173q4 28 28 28q9 0 14 -2l39 -12q26 -8 26 -30q0 -7 -3 -14zM204 0q-35 0 -35 35v672q0 35 35 35h407q35 0 35 -35v-64q0 -35 -35 -35h-285v-148h233q35 0 35 -35v-64q0 -35 -35 -35h-233v-188h298
q35 0 35 -35v-68q0 -35 -35 -35h-420z" />
    <glyph glyph-name="Etatonos" unicode="&#x389;" horiz-adv-x="831" 
d="M67 554q-9 -25 -30 -25q-3 0 -13 2l-6 2q-28 6 -28 32q0 6 1 9l32 173q4 28 28 28q9 0 14 -2l39 -12q26 -8 26 -30q0 -7 -3 -14zM217 0q-35 0 -35 35v672q0 35 35 35h87q35 0 35 -35v-243h260v243q0 35 35 35h86q35 0 35 -35v-672q0 -35 -35 -35h-86q-35 0 -35 35v287
h-260v-287q0 -35 -35 -35h-87z" />
    <glyph glyph-name="Iotatonos" unicode="&#x38a;" horiz-adv-x="406" 
d="M67 554q-9 -25 -30 -25q-3 0 -13 2l-6 2q-28 6 -28 32q0 6 1 9l32 173q4 28 28 28q9 0 14 -2l39 -12q26 -8 26 -30q0 -7 -3 -14zM205 0q-35 0 -35 35v672q0 35 35 35h87q35 0 35 -35v-672q0 -35 -35 -35h-87z" />
    <glyph glyph-name="Omicrontonos" unicode="&#x38c;" horiz-adv-x="806" 
d="M67 554q-9 -25 -30 -25q-3 0 -13 2l-6 2q-28 6 -28 32q0 6 1 9l32 173q4 28 28 28q9 0 14 -2l39 -12q26 -8 26 -30q0 -7 -3 -14zM428 -15q-151 0 -242.5 104t-91.5 281q0 178 91.5 282t242.5 104q150 0 241.5 -104t91.5 -282q0 -177 -92 -281t-241 -104zM427 125
q83 0 128 67t45 177q0 112 -45 179.5t-128 67.5q-82 0 -127.5 -67t-45.5 -179q0 -111 45.5 -178t127.5 -67z" />
    <glyph glyph-name="Upsilontonos" unicode="&#x38e;" horiz-adv-x="792" 
d="M50 554q-9 -25 -30 -25q-3 0 -13 2l-6 2q-28 6 -28 32q0 6 1 9l32 173q4 28 28 28q9 0 14 -2l39 -12q26 -8 26 -30q0 -7 -3 -14zM738 742q30 0 30 -23q0 -10 -5 -19l-223 -418v-247q0 -35 -35 -35h-83q-35 0 -35 35v242l-228 423q-6 10 -6 20q0 22 30 22h96q28 0 41 -25
l142 -282l144 282q12 25 41 25h91z" />
    <glyph glyph-name="Omegatonos" unicode="&#x38f;" horiz-adv-x="805" 
d="M67 554q-9 -25 -30 -25q-3 0 -13 2l-6 2q-28 6 -28 32q0 6 1 9l32 173q4 28 28 28q9 0 14 -2l39 -12q26 -8 26 -30q0 -7 -3 -14zM721 142q35 0 35 -35v-72q0 -35 -35 -35h-212q-35 0 -35 35v49q0 25 18 43q98 110 98 268q0 102 -44 161.5t-121 59.5q-78 0 -122 -59.5
t-44 -161.5q0 -158 98 -268q18 -18 18 -43v-49q0 -35 -35 -35h-212q-35 0 -35 35v72q0 35 35 35h76q-106 103 -106 259q0 153 88.5 254t238.5 101t238 -101t88 -254q0 -156 -106 -259h76z" />
    <glyph glyph-name="iotadieresistonos" unicode="&#x390;" horiz-adv-x="324" 
d="M166 661q-9 -25 -31 -25q-37 0 -37 32q0 6 1 10l33 188q4 28 29 28q3 0 13 -2l29 -8q25 -7 25 -30q0 -9 -2 -14zM20 643q-28 0 -44.5 18t-16.5 49t16.5 49t44.5 18t44.5 -18t16.5 -49t-16.5 -49t-44.5 -18zM275 643q-28 0 -44.5 18t-16.5 49t16.5 49t44.5 18t44.5 -18
t16.5 -49t-16.5 -49t-44.5 -18zM226 -11q-93 0 -126.5 43t-33.5 142v359q0 35 35 35h80q35 0 35 -35v-358q0 -47 46 -47h1q10 0 24 -7.5t14 -23.5v-65q0 -32 -25 -38q-23 -5 -50 -5z" />
    <glyph glyph-name="Alpha" unicode="&#x391;" horiz-adv-x="694" 
d="M678 40q3 -8 3 -15q0 -25 -32 -25h-90q-30 0 -39 29l-40 122h-272l-39 -122q-9 -29 -39 -29h-85q-32 0 -32 25q0 7 3 15l240 674q10 28 40 28h100q30 0 40 -28zM251 285h184l-93 282z" />
    <glyph glyph-name="Beta" unicode="&#x392;" horiz-adv-x="674" 
d="M111 0q-35 0 -35 35v672q0 35 35 35h243q130 0 190.5 -47t60.5 -141q0 -116 -106 -165q60 -17 94.5 -63.5t34.5 -107.5q0 -218 -261 -218h-256zM227 449h122q49 0 75 25.5t26 58.5q0 34 -27 55.5t-85 21.5h-111v-161zM227 137h129q112 0 112 93q0 37 -28 62t-90 25h-123
v-180z" />
    <glyph glyph-name="Gamma" unicode="&#x393;" horiz-adv-x="557" 
d="M505 742q35 0 35 -35v-71q0 -35 -35 -35h-273v-566q0 -35 -35 -35h-87q-35 0 -35 35v672q0 35 35 35h395z" />
    <glyph glyph-name="uni0394" unicode="&#x394;" horiz-adv-x="690" 
d="M391 742q30 0 40 -28l243 -674q3 -9 3 -16q0 -24 -31 -24h-602q-32 0 -32 25q0 7 3 15l240 674q10 28 40 28h96zM342 534l-142 -396h285z" />
    <glyph glyph-name="Epsilon" unicode="&#x395;" horiz-adv-x="623" 
d="M110 0q-35 0 -35 35v672q0 35 35 35h407q35 0 35 -35v-64q0 -35 -35 -35h-285v-148h233q35 0 35 -35v-64q0 -35 -35 -35h-233v-188h298q35 0 35 -35v-68q0 -35 -35 -35h-420z" />
    <glyph glyph-name="Zeta" unicode="&#x396;" horiz-adv-x="616" 
d="M74 0q-35 0 -35 35v64q0 24 14 44l322 457h-285q-35 0 -35 35v72q0 35 35 35h440q35 0 35 -35v-62q0 -24 -14 -44l-319 -458h307q35 0 35 -35v-73q0 -35 -35 -35h-465z" />
    <glyph glyph-name="Eta" unicode="&#x397;" horiz-adv-x="724" 
d="M110 0q-35 0 -35 35v672q0 35 35 35h87q35 0 35 -35v-243h260v243q0 35 35 35h86q35 0 35 -35v-672q0 -35 -35 -35h-86q-35 0 -35 35v287h-260v-287q0 -35 -35 -35h-87z" />
    <glyph glyph-name="Theta" unicode="&#x398;" horiz-adv-x="759" 
d="M380 -15q-150 0 -241.5 104t-91.5 281q0 178 91 282t242 104q150 0 241.5 -104t91.5 -282q0 -177 -92 -281t-241 -104zM379 125q84 0 128.5 66.5t44.5 177.5q0 113 -44 180t-129 67q-83 0 -127 -66.5t-44 -179.5q0 -112 44 -178.5t127 -66.5zM304 300q-35 0 -35 35v71
q0 35 35 35h152q35 0 35 -35v-71q0 -35 -35 -35h-152z" />
    <glyph glyph-name="Iota" unicode="&#x399;" horiz-adv-x="316" 
d="M115 0q-35 0 -35 35v672q0 35 35 35h87q35 0 35 -35v-672q0 -35 -35 -35h-87z" />
    <glyph glyph-name="Kappa" unicode="&#x39a;" horiz-adv-x="695" 
d="M668 42q7 -11 7 -20q0 -22 -30 -22h-110q-27 0 -42 23l-194 290l-67 -78v-200q0 -35 -35 -35h-87q-35 0 -35 35v672q0 35 35 35h87q35 0 35 -35v-262l237 277q17 20 43 20h100q30 0 30 -20q0 -12 -10 -23l-228 -264z" />
    <glyph glyph-name="Lambda" unicode="&#x39b;" horiz-adv-x="683" 
d="M664 40q3 -8 3 -14q0 -26 -31 -26h-91q-30 0 -39 29l-168 518l-166 -518q-9 -29 -39 -29h-86q-31 0 -31 26q0 6 3 14l232 674q10 28 40 28h99q30 0 40 -28z" />
    <glyph glyph-name="Mu" unicode="&#x39c;" horiz-adv-x="836" 
d="M110 0q-35 0 -35 35v672q0 35 35 35h90q29 0 40 -27l178 -418l182 418q11 27 41 27h85q35 0 35 -35v-672q0 -35 -35 -35h-76q-35 0 -35 35v407l-138 -317q-11 -27 -41 -27h-41q-29 0 -40 27l-131 310v-400q0 -35 -35 -35h-79z" />
    <glyph glyph-name="Nu" unicode="&#x39d;" horiz-adv-x="724" 
d="M110 0q-35 0 -35 35v672q0 35 35 35h78q28 0 42 -23l273 -430v418q0 35 35 35h75q35 0 35 -35v-672q0 -35 -35 -35h-78q-28 0 -42 23l-272 431v-419q0 -35 -35 -35h-76z" />
    <glyph glyph-name="Xi" unicode="&#x39e;" horiz-adv-x="597" 
d="M100 601q-35 0 -35 35v71q0 35 35 35h400q35 0 35 -35v-71q0 -35 -35 -35h-400zM132 314q-35 0 -35 35v72q0 35 35 35h336q35 0 35 -35v-72q0 -35 -35 -35h-336zM79 0q-35 0 -35 35v71q0 35 35 35h440q35 0 35 -35v-71q0 -35 -35 -35h-440z" />
    <glyph glyph-name="Omicron" unicode="&#x39f;" horiz-adv-x="760" 
d="M381 -15q-151 0 -242.5 104t-91.5 281q0 178 91.5 282t242.5 104q150 0 241.5 -104t91.5 -282q0 -177 -92 -281t-241 -104zM380 125q83 0 128 67t45 177q0 112 -45 179.5t-128 67.5q-82 0 -127.5 -67t-45.5 -179q0 -111 45.5 -178t127.5 -67z" />
    <glyph glyph-name="Pi" unicode="&#x3a0;" horiz-adv-x="719" 
d="M609 742q35 0 35 -35v-672q0 -35 -35 -35h-88q-35 0 -35 35v566h-254v-566q0 -35 -35 -35h-87q-35 0 -35 35v672q0 35 35 35h499z" />
    <glyph glyph-name="Rho" unicode="&#x3a1;" horiz-adv-x="656" 
d="M110 0q-35 0 -35 35v672q0 35 35 35h259q131 0 193.5 -65t62.5 -169q0 -117 -64.5 -177.5t-182.5 -60.5h-146v-235q0 -35 -35 -35h-87zM232 403h135q49 0 73.5 29t24.5 71q0 43 -27.5 73t-82.5 30h-123v-203z" />
    <glyph glyph-name="Sigma" unicode="&#x3a3;" horiz-adv-x="577" 
d="M222 142h307q35 0 35 -35v-72q0 -35 -35 -35h-471q-35 0 -35 35v51q0 25 15 43l207 260l-193 218q-16 19 -16 44v56q0 35 35 35h438q35 0 35 -35v-71q0 -35 -35 -35h-264l161 -178q11 -13 11 -25t-9 -24z" />
    <glyph glyph-name="Tau" unicode="&#x3a4;" horiz-adv-x="577" 
d="M245 0q-35 0 -35 35v565h-166q-35 0 -35 35v72q0 35 35 35h489q35 0 35 -35v-72q0 -35 -35 -35h-166v-565q0 -35 -35 -35h-87z" />
    <glyph glyph-name="Upsilon" unicode="&#x3a5;" horiz-adv-x="665" 
d="M610 742q30 0 30 -23q0 -10 -5 -19l-223 -418v-247q0 -35 -35 -35h-83q-35 0 -35 35v242l-228 423q-6 10 -6 20q0 22 30 22h96q28 0 41 -25l142 -282l144 282q12 25 41 25h91z" />
    <glyph glyph-name="Phi" unicode="&#x3a6;" horiz-adv-x="821" 
d="M786 371q0 -126 -80.5 -212t-220.5 -105v-19q0 -35 -35 -35h-78q-35 0 -35 35v19q-141 19 -221 104.5t-80 212.5q0 126 80 212.5t221 105.5v18q0 35 35 35h78q35 0 35 -35v-18q140 -19 220.5 -105.5t80.5 -212.5zM194 371q0 -77 36 -128t107 -69v394q-143 -36 -143 -197z
M485 174q70 18 106 69t36 128t-36 128t-106 69v-394z" />
    <glyph glyph-name="Chi" unicode="&#x3a7;" horiz-adv-x="661" 
d="M633 42q7 -10 7 -20q0 -22 -31 -22h-104q-29 0 -42 24l-136 240l-136 -240q-13 -24 -42 -24h-97q-31 0 -31 22q0 10 7 20l212 341l-197 317q-7 10 -7 20q0 22 31 22h103q28 0 42 -24l119 -211l120 211q13 24 42 24h97q31 0 31 -22q0 -10 -7 -20l-196 -312z" />
    <glyph glyph-name="Psi" unicode="&#x3a8;" horiz-adv-x="831" 
d="M744 742q35 0 35 -35v-207q0 -145 -75 -233t-211 -108v-124q0 -35 -35 -35h-84q-35 0 -35 35v124q-137 20 -212 108t-75 233v207q0 35 35 35h85q35 0 35 -35v-211q0 -166 132 -202v413q0 35 35 35h84q35 0 35 -35v-412q131 35 131 201v211q0 35 35 35h85z" />
    <glyph glyph-name="uni03A9" unicode="&#x3a9;" horiz-adv-x="763" 
d="M678 142q35 0 35 -35v-72q0 -35 -35 -35h-212q-35 0 -35 35v49q0 25 18 43q98 110 98 268q0 102 -44 161.5t-121 59.5q-78 0 -122 -59.5t-44 -161.5q0 -158 98 -268q18 -18 18 -43v-49q0 -35 -35 -35h-212q-35 0 -35 35v72q0 35 35 35h76q-106 103 -106 259
q0 153 88.5 254t238.5 101t238 -101t88 -254q0 -156 -106 -259h76z" />
    <glyph glyph-name="Iotadieresis" unicode="&#x3aa;" horiz-adv-x="316" 
d="M50 770q-30 0 -51.5 21.5t-21.5 51.5t21.5 51.5t51.5 21.5t51.5 -21.5t21.5 -51.5t-21.5 -51.5t-51.5 -21.5zM261 770q-30 0 -51.5 21.5t-21.5 51.5t21.5 51.5t51.5 21.5t51.5 -21.5t21.5 -51.5t-21.5 -51.5t-51.5 -21.5zM115 0q-35 0 -35 35v672q0 35 35 35h87
q35 0 35 -35v-672q0 -35 -35 -35h-87z" />
    <glyph glyph-name="Upsilondieresis" unicode="&#x3ab;" horiz-adv-x="664" 
d="M228 770q-30 0 -51.5 21.5t-21.5 51.5t21.5 51.5t51.5 21.5t51.5 -21.5t21.5 -51.5t-21.5 -51.5t-51.5 -21.5zM439 770q-30 0 -51.5 21.5t-21.5 51.5t21.5 51.5t51.5 21.5t51.5 -21.5t21.5 -51.5t-21.5 -51.5t-51.5 -21.5zM610 742q30 0 30 -23q0 -10 -5 -19l-223 -418
v-247q0 -35 -35 -35h-83q-35 0 -35 35v242l-228 423q-6 10 -6 20q0 22 30 22h96q28 0 41 -25l142 -282l144 282q12 25 41 25h91z" />
    <glyph glyph-name="alphatonos" unicode="&#x3ac;" horiz-adv-x="664" 
d="M287 626q-9 -5 -19 -5q-17 0 -29 18l-4 6q-6 11 -6 21q0 16 15 28l143 114q12 9 22 9q16 0 26 -17l24 -40q6 -11 6 -20q0 -18 -19 -28zM620 40q4 -12 4 -16q0 -24 -31 -24h-73q-29 0 -41 26q-13 33 -21 63q-45 -100 -171 -100q-110 0 -177 82t-67 213q0 132 63.5 213.5
t174.5 81.5q133 0 179 -101l16 60q7 30 39 30h71q31 0 31 -25q0 -4 -2 -14l-72 -242l14 -54q22 -82 63 -193zM299 124q87 0 125 161q-15 82 -45.5 120.5t-80.5 38.5q-47 0 -73 -40.5t-26 -119.5t27 -119.5t73 -40.5z" />
    <glyph glyph-name="epsilontonos" unicode="&#x3ad;" horiz-adv-x="479" 
d="M250 626q-9 -5 -19 -5q-17 0 -29 18l-4 6q-6 11 -6 21q0 16 15 28l143 114q12 9 22 9q16 0 26 -17l24 -40q6 -11 6 -20q0 -18 -19 -28zM377 152q13 8 23 8q15 0 26 -14l35 -42q10 -11 10 -24q0 -15 -13 -25q-76 -66 -200 -66q-108 0 -167.5 50.5t-59.5 129.5
q0 46 27 83.5t70 50.5q-80 31 -80 113q0 74 56.5 118.5t156.5 44.5q110 0 187 -59q14 -10 14 -25q0 -13 -10 -24l-35 -42q-12 -14 -26 -14q-12 0 -23 7q-47 25 -97 25q-34 0 -54 -12.5t-20 -32.5t20 -32t58 -12h71q35 0 35 -35v-59q0 -35 -35 -35h-73q-44 0 -67.5 -16
t-23.5 -41q0 -51 91 -51q53 0 104 31z" />
    <glyph glyph-name="etatonos" unicode="&#x3ae;" horiz-adv-x="623" 
d="M322 626q-9 -5 -19 -5q-17 0 -29 18l-4 6q-6 11 -6 21q0 16 15 28l143 114q12 9 22 9q16 0 26 -17l24 -40q6 -11 6 -20q0 -18 -19 -28zM397 579q81 0 123 -46.5t42 -126.5v-573q0 -35 -35 -35h-80q-35 0 -35 35v505q0 52 -13.5 74t-54.5 22q-61 0 -128 -45v-354
q0 -35 -35 -35h-81q-35 0 -35 35v498q0 35 35 35h78q35 0 35 -35v-12q89 58 184 58z" />
    <glyph glyph-name="iotatonos" unicode="&#x3af;" horiz-adv-x="324" 
d="M122 624q-9 -5 -19 -5q-17 0 -29 18l-4 6q-6 11 -6 21q0 16 15 28l143 114q12 9 22 9q16 0 26 -17l24 -40q6 -10 6 -20q0 -18 -19 -28zM226 -11q-93 0 -126.5 43t-33.5 142v359q0 35 35 35h80q35 0 35 -35v-358q0 -47 46 -47h1q10 0 24 -7.5t14 -23.5v-65q0 -32 -25 -38
q-23 -5 -50 -5z" />
    <glyph glyph-name="upsilondieresistonos" unicode="&#x3b0;" horiz-adv-x="610" 
d="M307 661q-9 -25 -31 -25q-37 0 -37 32q0 6 1 10l33 188q4 28 29 28q3 0 13 -2l29 -8q25 -7 25 -30q0 -9 -2 -14zM161 643q-28 0 -44.5 18t-16.5 49t16.5 49t44.5 18t44.5 -18t16.5 -49t-16.5 -49t-44.5 -18zM416 643q-28 0 -44.5 18t-16.5 49t16.5 49t44.5 18t44.5 -18
t16.5 -49t-16.5 -49t-44.5 -18zM306 -11q-124 0 -185.5 68.5t-61.5 189.5v286q0 35 35 35h81q35 0 35 -35v-297q0 -57 22.5 -84.5t73.5 -27.5q56 0 80.5 40.5t24.5 122.5q0 95 -44 241q-2 5 -2 14q0 26 31 26h84q30 0 40 -29q44 -139 44 -245q0 -139 -63 -222t-195 -83z" />
    <glyph glyph-name="alpha" unicode="&#x3b1;" horiz-adv-x="665" 
d="M620 40q4 -12 4 -16q0 -24 -31 -24h-73q-29 0 -41 26q-13 33 -21 63q-45 -100 -171 -100q-110 0 -177 82t-67 213q0 132 63.5 213.5t174.5 81.5q133 0 179 -101l16 60q7 30 39 30h71q31 0 31 -25q0 -4 -2 -14l-72 -242l14 -54q22 -82 63 -193zM299 124q87 0 125 161
q-15 82 -45.5 120.5t-80.5 38.5q-47 0 -73 -40.5t-26 -119.5t27 -119.5t73 -40.5z" />
    <glyph glyph-name="beta" unicode="&#x3b2;" horiz-adv-x="611" 
d="M454 399q132 -40 132 -190q0 -108 -67.5 -164t-176.5 -56q-74 0 -126 20v-176q0 -35 -35 -35h-81q-35 0 -35 35v683q0 116 66 178t184 62q106 0 173 -51t67 -146q0 -57 -26.5 -100t-74.5 -60zM323 121q47 0 77 29.5t30 75.5q0 42 -30.5 69t-87.5 27h-4q-35 0 -35 35v59
q0 35 35 35h4q38 0 63 27.5t25 67.5q0 33 -22 55t-68 22q-44 0 -69 -27.5t-25 -75.5v-371q53 -28 107 -28z" />
    <glyph glyph-name="gamma" unicode="&#x3b3;" horiz-adv-x="565" 
d="M511 568q32 0 32 -28q0 -6 -1 -10q-29 -130 -82 -267t-117 -247q11 -95 12 -183q0 -35 -35 -35h-84q-35 0 -35 35v210l-181 485q-3 9 -3 16q0 24 31 24h84q30 0 40 -28l116 -322q75 148 102 318q6 32 38 32h83z" />
    <glyph glyph-name="delta" unicode="&#x3b4;" horiz-adv-x="613" 
d="M377 539q92 -43 144 -116t52 -171q0 -120 -71.5 -192.5t-195.5 -72.5q-125 0 -195.5 71t-70.5 186q0 80 41.5 141t113.5 91q-105 55 -105 134q0 66 54.5 106t162.5 40q105 0 194 -45q20 -10 20 -29q0 -9 -4 -18l-25 -54q-9 -21 -27 -21q-9 0 -20 6q-69 33 -145 33
q-59 0 -59 -18q0 -8 45 -29q8 -3 12 -5zM306 122q52 0 82 34.5t30 86.5t-26 99.5t-75 72.5q-62 -24 -92 -69.5t-30 -102.5q0 -53 29 -87t82 -34z" />
    <glyph glyph-name="epsilon" unicode="&#x3b5;" horiz-adv-x="482" 
d="M377 152q13 8 23 8q15 0 26 -14l35 -42q10 -11 10 -24q0 -15 -13 -25q-76 -66 -200 -66q-108 0 -167.5 50.5t-59.5 129.5q0 46 27 83.5t70 50.5q-80 31 -80 113q0 74 56.5 118.5t156.5 44.5q110 0 187 -59q14 -10 14 -25q0 -13 -10 -24l-35 -42q-12 -14 -26 -14
q-12 0 -23 7q-47 25 -97 25q-34 0 -54 -12.5t-20 -32.5t20 -32t58 -12h71q35 0 35 -35v-59q0 -35 -35 -35h-73q-44 0 -67.5 -16t-23.5 -41q0 -51 91 -51q53 0 104 31z" />
    <glyph glyph-name="zeta" unicode="&#x3b6;" horiz-adv-x="483" 
d="M320 155q81 -28 121.5 -70.5t40.5 -114.5q0 -85 -57 -128.5t-156 -43.5q-39 0 -71 6q-30 6 -30 39l1 61q0 31 27 31q7 0 11 -1q29 -6 61 -6q68 0 68 35q0 36 -84 56q-104 27 -152 82t-48 150q0 206 199 359h-134q-35 0 -35 35v62q0 35 35 35h315q35 0 35 -35v-41
q0 -27 -22 -43l-24 -17q-116 -83 -165 -156.5t-49 -166.5q0 -49 27 -79.5t86 -48.5z" />
    <glyph glyph-name="eta" unicode="&#x3b7;" horiz-adv-x="620" 
d="M397 579q81 0 123 -46.5t42 -126.5v-573q0 -35 -35 -35h-80q-35 0 -35 35v505q0 52 -13.5 74t-54.5 22q-61 0 -128 -45v-354q0 -35 -35 -35h-81q-35 0 -35 35v498q0 35 35 35h78q35 0 35 -35v-12q89 58 184 58z" />
    <glyph glyph-name="theta" unicode="&#x3b8;" horiz-adv-x="644" 
d="M322 756q133 0 204.5 -105t71.5 -279t-71 -280.5t-205 -106.5q-133 0 -204.5 107t-71.5 280t72 278.5t204 105.5zM322 623q-107 0 -122 -185h244q-15 185 -122 185zM322 118q47 0 80 48t41 143h-242q8 -96 40 -143.5t81 -47.5z" />
    <glyph glyph-name="iota" unicode="&#x3b9;" horiz-adv-x="324" 
d="M226 -11q-93 0 -126.5 43t-33.5 142v359q0 35 35 35h80q35 0 35 -35v-358q0 -47 46 -47h1q10 0 24 -7.5t14 -23.5v-65q0 -32 -25 -38q-23 -5 -50 -5z" />
    <glyph glyph-name="kappa" unicode="&#x3ba;" horiz-adv-x="612" 
d="M582 43q8 -11 8 -21q0 -22 -30 -22h-95q-28 0 -43 22l-143 203l-63 -66v-124q0 -35 -35 -35h-81q-35 0 -35 35v498q0 35 35 35h81q35 0 35 -35v-181l198 198q18 18 43 18h94q30 0 30 -20q0 -11 -12 -23l-190 -196z" />
    <glyph glyph-name="lambda" unicode="&#x3bb;" horiz-adv-x="579" 
d="M496 193q17 -47 46 -61q31 -14 31 -38v-70q0 -35 -25 -35q-78 0 -120.5 35t-70.5 119l-70 204l-117 -319q-10 -28 -40 -28h-82q-31 0 -31 24q0 5 4 17l201 488l-8 21q-23 63 -74 63q-25 0 -45 -10q-13 -5 -21 -5q-18 0 -24 23l-17 61q-2 8 -2 13q0 23 22 32q52 24 113 24
q78 0 122 -38.5t72 -119.5z" />
    <glyph glyph-name="uni03BC" unicode="&#x3bc;" horiz-adv-x="625" 
d="M410 533q0 35 35 35h80q35 0 35 -35v-498q0 -35 -35 -35h-74q-35 0 -35 22v22q-45 -55 -117 -55q-52 0 -83 28v-184q0 -35 -35 -35h-81q-35 0 -35 35v700q0 35 35 35h81q35 0 35 -35v-301q0 -100 81 -100q63 0 113 50v351z" />
    <glyph glyph-name="nu" unicode="&#x3bd;" horiz-adv-x="575" 
d="M396 536q6 32 38 32h83q32 0 32 -28q0 -7 -1 -11q-63 -270 -183 -504q-13 -25 -41 -25h-74q-30 0 -40 28l-187 500q-3 9 -3 16q0 24 31 24h83q30 0 40 -28l119 -332q76 152 103 328z" />
    <glyph glyph-name="xi" unicode="&#x3be;" horiz-adv-x="488" 
d="M306 156q82 -22 127.5 -64t45.5 -118q0 -90 -60.5 -133t-163.5 -43q-34 0 -57 4q-30 4 -30 38l1 62q0 31 29 31q6 0 10 -1q34 -4 52 -4q73 0 73 34q0 37 -99 60q-93 22 -144.5 63.5t-51.5 121.5q0 76 48.5 131.5t127.5 69.5q-65 16 -101 54.5t-36 95.5q0 95 69 146.5
t199 51.5h54q35 0 35 -35v-62q0 -35 -35 -35h-23q-147 0 -147 -83q0 -71 144 -71h18q35 0 35 -35v-57q0 -34 -36 -35q-196 -11 -196 -102q0 -31 27 -50.5t85 -34.5z" />
    <glyph glyph-name="omicron" unicode="&#x3bf;" horiz-adv-x="642" 
d="M321 -11q-126 0 -202 80.5t-76 214.5t76 214.5t202 80.5q125 0 201.5 -80.5t76.5 -214.5t-76.5 -214.5t-201.5 -80.5zM321 124q57 0 90 40t33 120q0 81 -33.5 120.5t-89.5 39.5t-89 -39.5t-33 -120.5t33 -120.5t89 -39.5z" />
    <glyph glyph-name="pi" unicode="&#x3c0;" horiz-adv-x="699" 
d="M672 471q0 -35 -35 -35h-66v-275q0 -33 37 -33q34 -10 34 -33v-63q0 -33 -29 -39q-16 -4 -43 -4q-77 0 -113 39.5t-36 130.5v277h-166v-401q0 -35 -35 -35h-81q-35 0 -35 35v401h-60q-35 0 -35 35v62q0 35 35 35h593q35 0 35 -35v-62z" />
    <glyph glyph-name="rho" unicode="&#x3c1;" horiz-adv-x="659" 
d="M337 579q126 0 202.5 -81t76.5 -218q0 -131 -71.5 -211t-187.5 -80q-103 0 -147 47v-203q0 -35 -35 -35h-80q-35 0 -35 35v451q0 134 76 214.5t201 80.5zM338 123q57 0 90 40t33 121t-33 120.5t-90 39.5q-56 0 -89.5 -39.5t-33.5 -120.5t33.5 -121t89.5 -40z" />
    <glyph glyph-name="sigma1" unicode="&#x3c2;" horiz-adv-x="542" 
d="M303 -202q-38 0 -59 5q-29 6 -29 38v60q0 31 28 31q7 0 10 -1q18 -3 39 -3q78 0 78 35q0 28 -89 46q-58 13 -98.5 31t-74.5 49.5t-51 82t-17 121.5q0 138 73 212t207 74q110 0 188 -59q15 -12 15 -26q0 -10 -10 -23l-39 -50q-12 -15 -25 -15q-12 0 -24 9q-44 29 -100 29
q-64 0 -96.5 -35.5t-32.5 -102.5q0 -66 31.5 -101t112.5 -55q175 -48 175 -173q0 -85 -55 -132t-157 -47z" />
    <glyph glyph-name="sigma" unicode="&#x3c3;" horiz-adv-x="652" 
d="M609 568q35 0 35 -35v-60q0 -35 -35 -35h-84q71 -64 71 -179q0 -116 -77 -193t-200 -77q-124 0 -200 80t-76 207q0 129 76.5 210.5t209.5 81.5h280zM442 279q0 102 -68 159h-46q-129 0 -129 -160q0 -78 32.5 -116t88.5 -38q57 0 89.5 38.5t32.5 116.5z" />
    <glyph glyph-name="tau" unicode="&#x3c4;" horiz-adv-x="488" 
d="M473 469q0 -35 -35 -35h-127v-253q0 -53 57 -53q11 0 16 1q37 3 37 -31v-65q0 -33 -29 -39q-27 -5 -59 -5q-96 0 -134 45t-38 143v257h-118q-35 0 -35 35l1 64q0 35 35 35h394q35 0 35 -35v-64z" />
    <glyph glyph-name="upsilon" unicode="&#x3c5;" horiz-adv-x="610" 
d="M306 -11q-124 0 -185.5 68.5t-61.5 189.5v286q0 35 35 35h81q35 0 35 -35v-297q0 -57 22.5 -84.5t73.5 -27.5q56 0 80.5 40.5t24.5 122.5q0 95 -44 241q-2 5 -2 14q0 26 31 26h84q30 0 40 -29q44 -139 44 -245q0 -139 -63 -222t-195 -83z" />
    <glyph glyph-name="phi" unicode="&#x3c6;" horiz-adv-x="779" 
d="M737 284q0 -118 -70 -197t-208 -94v-160q0 -35 -35 -35h-78q-35 0 -35 35v162q-130 19 -199.5 96t-69.5 191q0 87 40.5 160.5t110.5 116.5q11 6 19 6q19 0 28 -22l28 -61q4 -8 4 -18q0 -14 -16 -30q-62 -56 -62 -147q0 -59 29.5 -102t87.5 -60v271q0 80 43 124.5
t122 44.5q115 0 188 -77.5t73 -203.5zM459 123q63 16 93.5 59.5t30.5 106.5q0 61 -28.5 102t-68.5 41q-27 0 -27 -28v-281z" />
    <glyph glyph-name="chi" unicode="&#x3c7;" horiz-adv-x="603" 
d="M570 -161q5 -12 5 -18q0 -23 -31 -23h-94q-29 0 -40 27l-110 258l-113 -258q-11 -27 -41 -27h-88q-31 0 -31 23q0 6 5 18l176 357l-163 331q-5 12 -5 18q0 23 31 23h93q30 0 41 -27l97 -226l98 226q11 27 41 27h88q30 0 30 -22q0 -7 -5 -19l-161 -324z" />
    <glyph glyph-name="psi" unicode="&#x3c8;" horiz-adv-x="804" 
d="M760 333q0 -142 -73 -229t-210 -105v-166q0 -35 -35 -35h-77q-35 0 -35 35v165q-273 29 -273 288v247q0 35 35 35h80q35 0 35 -35v-252q0 -69 29.5 -105.5t93.5 -47.5v593q0 35 35 35h77q35 0 35 -35v-589q66 19 98.5 75t32.5 136q0 86 -35 185q-3 8 -3 15q0 25 31 25h79
q29 0 41 -26q39 -97 39 -209z" />
    <glyph glyph-name="omega" unicode="&#x3c9;" horiz-adv-x="818" 
d="M674 568q30 0 40 -28q59 -150 59 -279q0 -118 -53.5 -195t-155.5 -77q-55 0 -92 20.5t-64 67.5q-47 -88 -154 -88q-102 0 -156 77.5t-54 194.5q0 129 60 280q10 27 40 27h79q31 0 31 -25q0 -7 -3 -16q-54 -142 -54 -266q0 -138 73 -138q64 0 64 85v206q0 35 35 35h80
q35 0 35 -35v-206q0 -85 63 -85q74 0 74 138q0 120 -54 266q-3 9 -3 16q0 25 30 25h80z" />
    <glyph glyph-name="iotadieresis" unicode="&#x3ca;" horiz-adv-x="324" 
d="M35 641q-30 0 -51.5 21.5t-21.5 51.5t21.5 51.5t51.5 21.5t51.5 -21.5t21.5 -51.5t-21.5 -51.5t-51.5 -21.5zM246 641q-30 0 -51.5 21.5t-21.5 51.5t21.5 51.5t51.5 21.5t51.5 -21.5t21.5 -51.5t-21.5 -51.5t-51.5 -21.5zM226 -11q-93 0 -126.5 43t-33.5 142v359
q0 35 35 35h80q35 0 35 -35v-358q0 -47 46 -47h1q10 0 24 -7.5t14 -23.5v-65q0 -32 -25 -38q-23 -5 -50 -5z" />
    <glyph glyph-name="upsilondieresis" unicode="&#x3cb;" horiz-adv-x="610" 
d="M180 656q-30 0 -51.5 21.5t-21.5 51.5t21.5 51.5t51.5 21.5t51.5 -21.5t21.5 -51.5t-21.5 -51.5t-51.5 -21.5zM391 656q-30 0 -51.5 21.5t-21.5 51.5t21.5 51.5t51.5 21.5t51.5 -21.5t21.5 -51.5t-21.5 -51.5t-51.5 -21.5zM306 -11q-124 0 -185.5 68.5t-61.5 189.5v286
q0 35 35 35h81q35 0 35 -35v-297q0 -57 22.5 -84.5t73.5 -27.5q56 0 80.5 40.5t24.5 122.5q0 95 -44 241q-2 5 -2 14q0 26 31 26h84q30 0 40 -29q44 -139 44 -245q0 -139 -63 -222t-195 -83z" />
    <glyph glyph-name="omicrontonos" unicode="&#x3cc;" horiz-adv-x="642" 
d="M304 626q-9 -5 -19 -5q-17 0 -29 18l-4 6q-6 11 -6 21q0 16 15 28l143 114q12 9 22 9q16 0 26 -17l24 -40q6 -11 6 -20q0 -18 -19 -28zM321 -11q-126 0 -202 80.5t-76 214.5t76 214.5t202 80.5q125 0 201.5 -80.5t76.5 -214.5t-76.5 -214.5t-201.5 -80.5zM321 124
q57 0 90 40t33 120q0 81 -33.5 120.5t-89.5 39.5t-89 -39.5t-33 -120.5t33 -120.5t89 -39.5z" />
    <glyph glyph-name="upsilontonos" unicode="&#x3cd;" horiz-adv-x="610" 
d="M280 624q-9 -5 -19 -5q-17 0 -29 18l-4 6q-6 10 -6 21q0 16 15 28l143 114q12 9 22 9q16 0 26 -17l24 -40q6 -10 6 -20q0 -18 -19 -28zM306 -11q-124 0 -185.5 68.5t-61.5 189.5v286q0 35 35 35h81q35 0 35 -35v-297q0 -57 22.5 -84.5t73.5 -27.5q56 0 80.5 40.5
t24.5 122.5q0 95 -44 241q-2 5 -2 14q0 26 31 26h84q30 0 40 -29q44 -139 44 -245q0 -139 -63 -222t-195 -83z" />
    <glyph glyph-name="omegatonos" unicode="&#x3ce;" horiz-adv-x="818" 
d="M399 624q-9 -5 -19 -5q-17 0 -29 18l-4 6q-6 10 -6 21q0 16 15 28l143 114q12 9 22 9q16 0 26 -17l24 -40q6 -10 6 -20q0 -18 -19 -28zM674 568q30 0 40 -28q59 -150 59 -279q0 -118 -53.5 -195t-155.5 -77q-55 0 -92 20.5t-64 67.5q-47 -88 -154 -88q-102 0 -156 77.5
t-54 194.5q0 129 60 280q10 27 40 27h79q31 0 31 -25q0 -7 -3 -16q-54 -142 -54 -266q0 -138 73 -138q64 0 64 85v206q0 35 35 35h80q35 0 35 -35v-206q0 -85 63 -85q74 0 74 138q0 120 -54 266q-3 9 -3 16q0 25 30 25h80z" />
    <glyph glyph-name="uni0400" unicode="&#x400;" horiz-adv-x="623" 
d="M400 807q-12 -18 -28 -18q-10 0 -20 6l-159 88q-19 10 -19 27q0 11 7 21l24 39q10 17 26 17q11 0 23 -9l142 -116q15 -12 15 -27q0 -11 -7 -22zM110 0q-35 0 -35 35v672q0 35 35 35h407q35 0 35 -35v-64q0 -35 -35 -35h-285v-148h233q35 0 35 -35v-64q0 -35 -35 -35h-233
v-188h298q35 0 35 -35v-68q0 -35 -35 -35h-420z" />
    <glyph glyph-name="uni0401" unicode="&#x401;" horiz-adv-x="623" 
d="M205 794q-30 0 -51.5 21.5t-21.5 51.5t21.5 51.5t51.5 21.5t51.5 -21.5t21.5 -51.5t-21.5 -51.5t-51.5 -21.5zM416 794q-30 0 -51.5 21.5t-21.5 51.5t21.5 51.5t51.5 21.5t51.5 -21.5t21.5 -51.5t-21.5 -51.5t-51.5 -21.5zM110 0q-35 0 -35 35v672q0 35 35 35h407
q35 0 35 -35v-64q0 -35 -35 -35h-285v-148h233q35 0 35 -35v-64q0 -35 -35 -35h-233v-188h298q35 0 35 -35v-68q0 -35 -35 -35h-420z" />
    <glyph glyph-name="uni0402" unicode="&#x402;" horiz-adv-x="773" 
d="M493 -203q-67 0 -124 22q-23 8 -23 29q0 7 3 16l21 55q9 23 29 23q8 0 17 -3q33 -11 64 -11q33 0 50 21.5t17 74.5v252q0 76 -82 76q-58 0 -134 -43v-274q0 -35 -35 -35h-87q-35 0 -35 35v565h-130q-35 0 -35 35v72q0 35 35 35h422q35 0 35 -35v-72q0 -35 -35 -35h-135
v-152q78 51 175 51q96 0 147 -48t51 -130v-300q0 -224 -211 -224z" />
    <glyph glyph-name="uni0403" unicode="&#x403;" horiz-adv-x="569" 
d="M289 810q-11 -6 -19 -6q-17 0 -29 18l-4 6q-7 11 -7 22q0 15 15 27l141 116q12 9 23 9q16 0 26 -17l24 -40q6 -11 6 -20q0 -17 -19 -27zM110 0q-35 0 -35 35v672q0 35 35 35h403q35 0 35 -35v-72q0 -35 -35 -35h-281v-565q0 -35 -35 -35h-87z" />
    <glyph glyph-name="uni0404" unicode="&#x404;" horiz-adv-x="666" 
d="M387 -15q-164 0 -252 104t-88 281q0 176 92.5 281t242.5 105q137 0 229 -99q10 -10 10 -23q0 -15 -15 -27l-52 -44q-11 -10 -23 -10q-13 0 -26 13q-52 50 -123 50q-67 0 -112.5 -44.5t-55.5 -118.5h225q35 0 35 -35v-64q0 -35 -35 -35h-230q4 -89 52 -141.5t126 -52.5
q75 0 133 63q14 14 26 14t23 -11l51 -50q13 -13 13 -26t-12 -26q-91 -104 -234 -104z" />
    <glyph glyph-name="uni0405" unicode="&#x405;" horiz-adv-x="602" 
d="M293 -15q-145 0 -246 84q-14 11 -14 26q0 10 8 23l40 58q10 16 26 16q12 0 23 -10q82 -62 160 -62q118 0 118 73q0 31 -26 51.5t-89 44.5l-72 28q-91 36 -134.5 83.5t-43.5 131.5q0 108 74 166t190 58q127 0 224 -74q15 -12 15 -26q0 -10 -8 -23l-39 -58q-10 -16 -26 -16
q-11 0 -23 9q-71 54 -143 54q-49 0 -79 -18.5t-30 -55.5q0 -26 23 -43t74 -37l71 -28q107 -42 154.5 -90t47.5 -135q0 -78 -40 -131.5t-100 -76t-135 -22.5z" />
    <glyph glyph-name="uni0406" unicode="&#x406;" horiz-adv-x="316" 
d="M115 0q-35 0 -35 35v672q0 35 35 35h87q35 0 35 -35v-672q0 -35 -35 -35h-87z" />
    <glyph glyph-name="uni0407" unicode="&#x407;" horiz-adv-x="316" 
d="M53 787q-30 0 -51.5 21.5t-21.5 51.5t21.5 51.5t51.5 21.5t51.5 -21.5t21.5 -51.5t-21.5 -51.5t-51.5 -21.5zM264 787q-30 0 -51.5 21.5t-21.5 51.5t21.5 51.5t51.5 21.5t51.5 -21.5t21.5 -51.5t-21.5 -51.5t-51.5 -21.5zM115 0q-35 0 -35 35v672q0 35 35 35h87
q35 0 35 -35v-672q0 -35 -35 -35h-87z" />
    <glyph glyph-name="uni0408" unicode="&#x408;" horiz-adv-x="554" 
d="M248 -14q-150 0 -224 99q-8 11 -8 21q0 15 15 28l53 45q10 9 21 9q14 0 28 -15q38 -42 94 -42q43 0 71.5 24t28.5 78v474q0 35 35 35h87q35 0 35 -35v-490q0 -119 -65.5 -175t-170.5 -56z" />
    <glyph glyph-name="uni0409" unicode="&#x409;" horiz-adv-x="1046" 
d="M754 471q119 0 185 -59t66 -179q0 -106 -64 -169.5t-195 -63.5h-187q-30 0 -39 29l-176 541l-175 -541q-9 -29 -39 -29h-86q-31 0 -31 25q0 7 3 15l230 674q9 28 40 28h117q30 0 40 -28l89 -243h222zM734 136q112 0 112 102q0 101 -102 101h-171l76 -203h85z" />
    <glyph glyph-name="uni040A" unicode="&#x40a;" horiz-adv-x="1046" 
d="M110 0q-35 0 -35 35v672q0 35 35 35h87q35 0 35 -35v-239h226v239q0 35 35 35h87q35 0 35 -35v-239h138q120 0 185.5 -58t65.5 -178q0 -107 -63.5 -169.5t-194.5 -62.5h-253q-35 0 -35 35v296h-226v-296q0 -35 -35 -35h-87zM615 136h118q113 0 113 97q0 98 -103 98h-128
v-195z" />
    <glyph glyph-name="uni040B" unicode="&#x40b;" horiz-adv-x="773" 
d="M209 0q-35 0 -35 35v565h-130q-35 0 -35 35v72q0 35 35 35h422q35 0 35 -35v-72q0 -35 -35 -35h-135v-152q78 51 175 51q96 0 147 -48t51 -130v-286q0 -35 -35 -35h-87q-35 0 -35 35v241q0 76 -82 76q-58 0 -134 -43v-274q0 -35 -35 -35h-87z" />
    <glyph glyph-name="uni040C" unicode="&#x40c;" horiz-adv-x="695" 
d="M293 816l-4 6q-7 11 -7 22q0 15 15 27l141 116q12 9 23 9q16 0 26 -17l24 -40q6 -11 6 -20q0 -17 -19 -27l-157 -88q-10 -6 -19 -6q-17 0 -29 18zM668 42q7 -11 7 -20q0 -22 -30 -22h-110q-27 0 -42 23l-194 290l-67 -78v-200q0 -35 -35 -35h-87q-35 0 -35 35v672
q0 35 35 35h87q35 0 35 -35v-262l237 277q17 20 43 20h100q30 0 30 -20q0 -12 -10 -23l-228 -264z" />
    <glyph glyph-name="uni040D" unicode="&#x40d;" horiz-adv-x="724" 
d="M429 832q-12 -18 -28 -18q-9 0 -20 6l-157 88q-19 11 -19 27q0 8 7 20l24 39q10 18 26 18q12 0 22 -9l141 -116q15 -12 15 -27q0 -11 -7 -22zM110 0q-35 0 -35 35v672q0 35 35 35h77q35 0 35 -35v-434l273 446q14 23 42 23h76q35 0 35 -35v-672q0 -35 -35 -35h-75
q-35 0 -35 35v434l-274 -446q-14 -23 -42 -23h-77z" />
    <glyph glyph-name="uni040E" unicode="&#x40e;" horiz-adv-x="665" 
d="M337 790q-119 0 -157 115q-2 10 -2 13q0 23 26 31l5 2q10 2 13 2q16 0 33 -20q29 -33 82 -33q54 0 82 32q15 20 33 20q3 0 13 -2l5 -1q25 -7 25 -32q0 -10 -4 -19q-41 -108 -154 -108zM91 -10q-21 0 -21 35v73q0 35 35 35h8q60 0 89.5 15t54.5 56l-230 497q-4 9 -4 18
q0 23 30 23h90q30 0 41 -26l152 -340l150 339q11 27 41 27h85q30 0 30 -23q0 -9 -4 -18l-232 -507q-57 -125 -118 -164.5t-176 -39.5h-21z" />
    <glyph glyph-name="uni040F" unicode="&#x40f;" horiz-adv-x="724" 
d="M323 -145q-35 0 -35 35v110h-178q-35 0 -35 35v672q0 35 35 35h87q35 0 35 -35v-565h259v565q0 35 35 35h87q35 0 35 -35v-672q0 -35 -35 -35h-178v-110q0 -35 -35 -35h-77z" />
    <glyph glyph-name="uni0410" unicode="&#x410;" horiz-adv-x="694" 
d="M678 40q3 -8 3 -15q0 -25 -32 -25h-90q-30 0 -39 29l-40 122h-272l-39 -122q-9 -29 -39 -29h-85q-32 0 -32 25q0 7 3 15l240 674q10 28 40 28h100q30 0 40 -28zM251 285h184l-93 282z" />
    <glyph glyph-name="uni0411" unicode="&#x411;" horiz-adv-x="664" 
d="M110 0q-35 0 -35 35v672q0 35 35 35h406q35 0 35 -35v-63q0 -35 -35 -35h-284v-151h140q250 0 250 -231q0 -103 -63.5 -165t-194.5 -62h-254zM232 136h119q113 0 113 95q0 94 -103 94h-129v-189z" />
    <glyph glyph-name="uni0412" unicode="&#x412;" horiz-adv-x="674" 
d="M111 0q-35 0 -35 35v672q0 35 35 35h243q130 0 190.5 -47t60.5 -141q0 -116 -106 -165q60 -17 94.5 -63.5t34.5 -107.5q0 -218 -261 -218h-256zM227 449h122q49 0 75 25.5t26 58.5q0 34 -27 55.5t-85 21.5h-111v-161zM227 137h129q112 0 112 93q0 37 -28 62t-90 25h-123
v-180z" />
    <glyph glyph-name="uni0413" unicode="&#x413;" horiz-adv-x="569" 
d="M110 0q-35 0 -35 35v672q0 35 35 35h403q35 0 35 -35v-72q0 -35 -35 -35h-281v-565q0 -35 -35 -35h-87z" />
    <glyph glyph-name="uni0414" unicode="&#x414;" horiz-adv-x="770" 
d="M689 142h30q35 0 35 -35v-217q0 -35 -35 -35h-77q-35 0 -35 35v110h-444v-110q0 -35 -35 -35h-77q-35 0 -35 35v217q0 35 34 35h34l201 572q10 28 40 28h118q30 0 40 -28zM239 142h290l-145 410z" />
    <glyph glyph-name="uni0415" unicode="&#x415;" horiz-adv-x="623" 
d="M110 0q-35 0 -35 35v672q0 35 35 35h407q35 0 35 -35v-64q0 -35 -35 -35h-285v-148h233q35 0 35 -35v-64q0 -35 -35 -35h-233v-188h298q35 0 35 -35v-68q0 -35 -35 -35h-420z" />
    <glyph glyph-name="uni0416" unicode="&#x416;" horiz-adv-x="985" 
d="M831 0q-27 0 -42 22l-206 293l-15 -4v-276q0 -35 -35 -35h-83q-35 0 -35 35v277l-14 3l-206 -293q-15 -22 -42 -22h-102q-30 0 -30 22q0 8 8 21l244 347l-201 310q-7 11 -7 21q0 21 29 21h94q28 0 42 -23l176 -266l9 -2v256q0 35 35 35h83q35 0 35 -35v-256l9 2l177 266
q14 23 42 23h92q30 0 30 -22q0 -9 -7 -20l-201 -309l246 -348q8 -11 8 -21q0 -22 -30 -22h-103z" />
    <glyph glyph-name="uni0417" unicode="&#x417;" horiz-adv-x="644" 
d="M299 -14q-76 0 -135 21.5t-116 76.5q-12 12 -12 25q0 12 11 25l44 48q12 13 25 13q11 0 24 -11q79 -63 155 -63q70 0 106 28t36 76q0 45 -33.5 66t-110.5 21h-52q-35 0 -35 35v61q0 35 35 35h51q125 0 125 89q0 40 -30 64.5t-91 24.5q-68 0 -144 -58q-12 -9 -24 -9
q-14 0 -26 13l-41 46q-11 13 -11 24q0 13 14 25q110 94 240 94q129 0 199.5 -55.5t70.5 -149.5q0 -122 -106 -162q62 -17 95.5 -62t33.5 -107q0 -109 -79 -171.5t-219 -62.5z" />
    <glyph glyph-name="uni0418" unicode="&#x418;" horiz-adv-x="724" 
d="M110 0q-35 0 -35 35v672q0 35 35 35h77q35 0 35 -35v-434l273 446q14 23 42 23h76q35 0 35 -35v-672q0 -35 -35 -35h-75q-35 0 -35 35v434l-274 -446q-14 -23 -42 -23h-77z" />
    <glyph glyph-name="uni0419" unicode="&#x419;" horiz-adv-x="724" 
d="M371 790q-120 0 -157 115q-2 5 -2 14q0 22 26 30l4 1q10 2 13 2q17 0 34 -19q28 -33 82 -33q53 0 81 33q17 19 34 19q3 0 13 -2l5 -1q25 -7 25 -32q0 -11 -4 -20q-41 -107 -154 -107zM110 0q-35 0 -35 35v672q0 35 35 35h77q35 0 35 -35v-434l273 446q14 23 42 23h76
q35 0 35 -35v-672q0 -35 -35 -35h-75q-35 0 -35 35v434l-274 -446q-14 -23 -42 -23h-77z" />
    <glyph glyph-name="uni041A" unicode="&#x41a;" horiz-adv-x="695" 
d="M668 42q7 -11 7 -20q0 -22 -30 -22h-110q-27 0 -42 23l-194 290l-67 -78v-200q0 -35 -35 -35h-87q-35 0 -35 35v672q0 35 35 35h87q35 0 35 -35v-262l237 277q17 20 43 20h100q30 0 30 -20q0 -12 -10 -23l-228 -264z" />
    <glyph glyph-name="uni041B" unicode="&#x41b;" horiz-adv-x="697" 
d="M681 40q3 -8 3 -14q0 -26 -31 -26h-91q-30 0 -39 29l-178 542l-176 -542q-9 -29 -39 -29h-86q-31 0 -31 25q0 7 3 15l231 674q10 28 40 28h118q30 0 40 -28z" />
    <glyph glyph-name="uni041C" unicode="&#x41c;" horiz-adv-x="836" 
d="M110 0q-35 0 -35 35v672q0 35 35 35h90q29 0 40 -27l178 -418l182 418q11 27 41 27h85q35 0 35 -35v-672q0 -35 -35 -35h-76q-35 0 -35 35v407l-138 -317q-11 -27 -41 -27h-41q-29 0 -40 27l-131 310v-400q0 -35 -35 -35h-79z" />
    <glyph glyph-name="uni041D" unicode="&#x41d;" horiz-adv-x="724" 
d="M110 0q-35 0 -35 35v672q0 35 35 35h87q35 0 35 -35v-243h260v243q0 35 35 35h86q35 0 35 -35v-672q0 -35 -35 -35h-86q-35 0 -35 35v287h-260v-287q0 -35 -35 -35h-87z" />
    <glyph glyph-name="uni041E" unicode="&#x41e;" horiz-adv-x="760" 
d="M381 -15q-151 0 -242.5 104t-91.5 281q0 178 91.5 282t242.5 104q150 0 241.5 -104t91.5 -282q0 -177 -92 -281t-241 -104zM380 125q83 0 128 67t45 177q0 112 -45 179.5t-128 67.5q-82 0 -127.5 -67t-45.5 -179q0 -111 45.5 -178t127.5 -67z" />
    <glyph glyph-name="uni041F" unicode="&#x41f;" horiz-adv-x="724" 
d="M110 0q-35 0 -35 35v672q0 35 35 35h503q35 0 35 -35v-672q0 -35 -35 -35h-87q-35 0 -35 35v565h-259v-565q0 -35 -35 -35h-87z" />
    <glyph glyph-name="uni0420" unicode="&#x420;" horiz-adv-x="656" 
d="M110 0q-35 0 -35 35v672q0 35 35 35h259q131 0 193.5 -65t62.5 -169q0 -117 -64.5 -177.5t-182.5 -60.5h-146v-235q0 -35 -35 -35h-87zM232 403h135q49 0 73.5 29t24.5 71q0 43 -27.5 73t-82.5 30h-123v-203z" />
    <glyph glyph-name="uni0421" unicode="&#x421;" horiz-adv-x="666" 
d="M387 -15q-164 0 -252 104t-88 281q0 176 92.5 281t242.5 105q137 0 229 -99q10 -10 10 -23q0 -15 -15 -27l-52 -44q-11 -10 -23 -10q-13 0 -26 13q-52 50 -123 50q-81 0 -128 -67.5t-47 -178.5q0 -112 47.5 -178.5t132.5 -66.5q75 0 133 63q14 14 26 14t23 -11l51 -50
q13 -13 13 -26t-12 -26q-91 -104 -234 -104z" />
    <glyph glyph-name="uni0422" unicode="&#x422;" horiz-adv-x="577" 
d="M245 0q-35 0 -35 35v565h-166q-35 0 -35 35v72q0 35 35 35h489q35 0 35 -35v-72q0 -35 -35 -35h-166v-565q0 -35 -35 -35h-87z" />
    <glyph glyph-name="uni0423" unicode="&#x423;" horiz-adv-x="665" 
d="M91 -10q-21 0 -21 35v73q0 35 35 35h8q60 0 89.5 15t54.5 56l-230 497q-4 9 -4 18q0 23 30 23h90q30 0 41 -26l152 -340l150 339q11 27 41 27h85q30 0 30 -23q0 -9 -4 -18l-232 -507q-57 -125 -118 -164.5t-176 -39.5h-21z" />
    <glyph glyph-name="uni0424" unicode="&#x424;" horiz-adv-x="809" 
d="M363 0q-35 0 -35 35v46q-134 18 -210 92.5t-76 197.5q0 124 75.5 198t210.5 92v46q0 35 35 35h82q35 0 35 -35v-46q135 -18 211 -92t76 -198q0 -123 -76 -197.5t-211 -92.5v-46q0 -35 -35 -35h-82zM480 220q130 30 130 150q0 57 -33.5 96.5t-96.5 55.5v-302zM328 220v301
q-62 -15 -95.5 -54.5t-33.5 -95.5q0 -55 33 -95t96 -56z" />
    <glyph glyph-name="uni0425" unicode="&#x425;" horiz-adv-x="661" 
d="M633 42q7 -10 7 -20q0 -22 -31 -22h-104q-29 0 -42 24l-136 240l-136 -240q-13 -24 -42 -24h-97q-31 0 -31 22q0 10 7 20l212 341l-197 317q-7 10 -7 20q0 22 31 22h103q28 0 42 -24l119 -211l120 211q13 24 42 24h97q31 0 31 -22q0 -10 -7 -20l-196 -312z" />
    <glyph glyph-name="uni0426" unicode="&#x426;" horiz-adv-x="725" 
d="M591 -145q-35 0 -35 35v110h-446q-35 0 -35 35v672q0 35 35 35h88q35 0 35 -35v-565h259v565q0 35 35 35h86q35 0 35 -35v-565h20q35 0 35 -35v-217q0 -35 -35 -35h-77z" />
    <glyph glyph-name="uni0427" unicode="&#x427;" horiz-adv-x="668" 
d="M471 0q-35 0 -35 35v290q-92 -61 -171 -61q-92 0 -144 48t-52 129v266q0 35 35 35h87q35 0 35 -35v-221q0 -74 76 -74q65 0 134 43v252q0 35 35 35h87q35 0 35 -35v-672q0 -35 -35 -35h-87z" />
    <glyph glyph-name="uni0428" unicode="&#x428;" horiz-adv-x="959" 
d="M110 0q-35 0 -35 35v672q0 35 35 35h88q35 0 35 -35v-565h168v565q0 35 35 35h87q35 0 35 -35v-565h169v565q0 35 35 35h87q35 0 35 -35v-672q0 -35 -35 -35h-739z" />
    <glyph glyph-name="uni0429" unicode="&#x429;" horiz-adv-x="961" 
d="M827 -145q-35 0 -35 35v110h-682q-35 0 -35 35v672q0 35 35 35h88q35 0 35 -35v-565h168v565q0 35 35 35h87q35 0 35 -35v-565h169v565q0 35 35 35h87q35 0 35 -35v-565h20q35 0 35 -35v-217q0 -35 -35 -35h-77z" />
    <glyph glyph-name="uni042A" unicode="&#x42a;" horiz-adv-x="729" 
d="M176 0q-35 0 -35 35v566h-91q-35 0 -35 35v71q0 35 35 35h212q35 0 35 -35v-233h140q119 0 185 -59.5t66 -179.5q0 -107 -64 -171t-195 -64h-253zM297 136h119q113 0 113 103q0 102 -102 102h-130v-205z" />
    <glyph glyph-name="uni042B" unicode="&#x42b;" horiz-adv-x="941" 
d="M110 0q-35 0 -35 35v672q0 35 35 35h87q35 0 35 -35v-236h140q119 0 184.5 -59t65.5 -179q0 -106 -63.5 -169.5t-194.5 -63.5h-254zM743 0q-35 0 -35 35v672q0 35 35 35h88q35 0 35 -35v-672q0 -35 -35 -35h-88zM232 136h119q113 0 113 102q0 100 -103 100h-129v-202z
" />
    <glyph glyph-name="uni042C" unicode="&#x42c;" horiz-adv-x="664" 
d="M110 0q-35 0 -35 35v672q0 35 35 35h87q35 0 35 -35v-236h140q119 0 184.5 -59t65.5 -179q0 -106 -63.5 -169.5t-194.5 -63.5h-254zM232 136h119q113 0 113 102q0 100 -103 100h-129v-202z" />
    <glyph glyph-name="uni042D" unicode="&#x42d;" horiz-adv-x="666" 
d="M279 -15q-145 0 -236 107q-10 11 -10 23q0 13 13 26l50 49q12 12 23 12q14 0 26 -14q60 -63 134 -63q78 0 125.5 52.5t52.5 141.5h-231q-35 0 -35 35v64q0 35 35 35h226q-10 74 -55.5 118.5t-112.5 44.5q-71 0 -124 -50q-13 -13 -26 -13q-12 0 -23 10l-52 44
q-14 12 -14 26q0 13 10 24q92 99 228 99q151 0 243.5 -105t92.5 -281q0 -177 -88 -281t-252 -104z" />
    <glyph glyph-name="uni042E" unicode="&#x42e;" horiz-adv-x="1014" 
d="M642 -15q-139 0 -227 90.5t-98 246.5h-85v-287q0 -35 -35 -35h-87q-35 0 -35 35v672q0 35 35 35h87q35 0 35 -35v-243h90q21 137 106 214.5t214 77.5q148 0 236.5 -104t88.5 -282q0 -177 -89 -281t-236 -104zM641 125q79 0 122.5 67t43.5 177q0 112 -43.5 179.5
t-122.5 67.5t-122 -67t-43 -179q0 -111 43 -178t122 -67z" />
    <glyph glyph-name="uni042F" unicode="&#x42f;" horiz-adv-x="678" 
d="M78 0q-31 0 -31 23q0 6 5 18l136 282q-129 47 -129 203q0 104 65 160t194 56h250q35 0 35 -35v-672q0 -35 -35 -35h-87q-35 0 -35 35v263h-105l-126 -272q-12 -26 -41 -26h-96zM319 430h127v176h-115q-57 0 -85.5 -23.5t-28.5 -63.5t25.5 -64.5t76.5 -24.5z" />
    <glyph glyph-name="uni0430" unicode="&#x430;" horiz-adv-x="597" 
d="M211 -11q-82 0 -127.5 46.5t-45.5 120.5q0 44 14.5 77.5t38.5 54.5t62.5 35.5t77.5 22t94 12.5l61 6v23q0 30 -26.5 48.5t-70.5 18.5q-70 0 -137 -49q-12 -9 -24 -9q-15 0 -25 16l-30 44q-8 13 -8 23q0 15 15 26q98 74 220 74q117 0 177 -57.5t60 -149.5v-337
q0 -35 -35 -35h-74q-35 0 -35 29v29q-94 -69 -182 -69zM260 114q61 0 126 48v95l-39 -5q-86 -10 -122 -29t-36 -56q0 -25 20 -39t51 -14z" />
    <glyph glyph-name="uni0431" unicode="&#x431;" horiz-adv-x="642" 
d="M360 531q106 0 172.5 -69.5t66.5 -191.5q0 -132 -76.5 -206.5t-201.5 -74.5q-129 0 -203.5 85.5t-74.5 238.5q0 178 67 282.5t223 131.5q85 9 120 23q13 5 22 5q15 0 25 -15l41 -61q7 -11 7 -22q0 -17 -16 -26q-40 -23 -143 -34q-77 -12 -113.5 -39.5t-57.5 -90.5
q63 64 142 64zM321 124q56 0 89.5 34.5t33.5 103.5t-31.5 102.5t-87.5 33.5q-57 0 -91.5 -33.5t-34.5 -102.5t33 -103.5t89 -34.5z" />
    <glyph glyph-name="uni0432" unicode="&#x432;" horiz-adv-x="569" 
d="M100 0q-35 0 -35 35v498q0 35 35 35h202q208 0 208 -144q0 -87 -76 -126q93 -36 93 -130q0 -168 -217 -168h-210zM213 346h86q30 0 46 16t16 35q0 50 -71 50h-77v-101zM213 124h90q36 0 53.5 16.5t17.5 42.5q0 23 -19 39.5t-57 16.5h-85v-115z" />
    <glyph glyph-name="uni0433" unicode="&#x433;" horiz-adv-x="474" 
d="M100 0q-35 0 -35 35v498q0 35 35 35h320q35 0 35 -35v-60q0 -35 -35 -35h-204v-403q0 -35 -35 -35h-81z" />
    <glyph glyph-name="uni0434" unicode="&#x434;" horiz-adv-x="616" 
d="M549 130h18q35 0 35 -35v-185q0 -35 -35 -35h-54q-35 0 -35 35v90h-339v-90q0 -35 -35 -35h-55q-35 0 -35 35v185q0 35 27 35h26l155 410q10 28 40 28h94q30 0 40 -28zM215 130h184l-92 247z" />
    <glyph glyph-name="uni0435" unicode="&#x435;" horiz-adv-x="617" 
d="M321 -11q-126 0 -202 81.5t-76 213.5q0 131 72 213t197 82q65 0 115 -24.5t81 -68t48 -96t21 -114.5q2 -36 -35 -36h-348q3 -62 42 -89t98 -27q61 0 115 42q14 11 25 11q13 0 25 -13l45 -50q12 -13 12 -25q0 -11 -9 -20q-89 -80 -226 -80zM196 347h232q-5 50 -35.5 78.5
t-79.5 28.5q-48 0 -78.5 -28t-38.5 -79z" />
    <glyph glyph-name="uni0436" unicode="&#x436;" horiz-adv-x="868" 
d="M57 0q-30 0 -30 22q0 10 8 21l182 254l-158 229q-8 13 -8 21q0 21 31 21h84q26 0 42 -22l129 -186h24v173q0 35 35 35h76q35 0 35 -35v-173h24l130 186q15 22 42 22h84q31 0 31 -22q0 -9 -8 -20l-159 -229l182 -254q9 -12 9 -22q0 -21 -30 -21h-93q-27 0 -42 22l-137 197
h-33v-184q0 -35 -35 -35h-76q-35 0 -35 35v184h-33l-137 -197q-15 -22 -42 -22h-92z" />
    <glyph glyph-name="uni0437" unicode="&#x437;" horiz-adv-x="521" 
d="M242 -12q-114 0 -201 72q-13 12 -13 25q0 11 10 24l38 46q12 15 25 15q12 0 24 -9q64 -45 109 -45q92 0 92 63q0 31 -20 41.5t-75 10.5h-44q-35 0 -35 35v40q0 35 35 35h43q83 0 83 54q0 55 -78 55q-38 0 -102 -42q-13 -8 -23 -8q-14 0 -26 15l-36 45q-10 13 -10 24
q0 13 13 25q83 69 193 69q104 0 161 -39.5t57 -112.5q0 -101 -74 -131q43 -13 67 -46t24 -81q0 -86 -62 -133t-175 -47z" />
    <glyph glyph-name="uni0438" unicode="&#x438;" horiz-adv-x="623" 
d="M100 0q-35 0 -35 35v498q0 35 35 35h79q35 0 35 -35v-284l190 296q14 23 42 23h77q35 0 35 -35v-498q0 -35 -35 -35h-78q-35 0 -35 35v283l-193 -295q-14 -23 -42 -23h-75z" />
    <glyph glyph-name="uni0439" unicode="&#x439;" horiz-adv-x="623" 
d="M323 646q-120 0 -157 120q-2 10 -2 13q0 22 26 31l5 2q10 2 13 2q18 0 33 -20q26 -31 82 -31q54 0 81 32q17 19 34 19q3 0 13 -2l5 -2q25 -8 25 -33q0 -11 -4 -20q-41 -111 -154 -111zM100 0q-35 0 -35 35v498q0 35 35 35h79q35 0 35 -35v-284l190 296q14 23 42 23h77
q35 0 35 -35v-498q0 -35 -35 -35h-78q-35 0 -35 35v283l-193 -295q-14 -23 -42 -23h-75z" />
    <glyph glyph-name="uni043A" unicode="&#x43a;" horiz-adv-x="583" 
d="M551 42q7 -11 7 -20q0 -22 -30 -22h-95q-28 0 -42 23l-138 217l-37 -40v-165q0 -35 -35 -35h-81q-35 0 -35 35v498q0 35 35 35h81q35 0 35 -35v-143l143 159q18 19 43 19h91q30 0 30 -20q0 -10 -11 -23l-160 -176q2 -2 3 -4z" />
    <glyph glyph-name="uni043B" unicode="&#x43b;" horiz-adv-x="582" 
d="M560 40q3 -9 3 -16q0 -24 -31 -24h-83q-30 0 -40 28l-119 334l-119 -334q-10 -28 -40 -28h-80q-31 0 -31 24q0 7 3 16l182 500q10 28 40 28h94q30 0 40 -28z" />
    <glyph glyph-name="uni043C" unicode="&#x43c;" horiz-adv-x="707" 
d="M100 0q-35 0 -35 35v498q0 35 35 35h73q29 0 41 -25l142 -277l141 277q13 25 41 25h68q35 0 35 -35v-498q0 -35 -35 -35h-69q-35 0 -35 35v264l-93 -188q-14 -26 -42 -26h-29q-28 0 -41 25l-92 183v-258q0 -35 -35 -35h-70z" />
    <glyph glyph-name="uni043D" unicode="&#x43d;" horiz-adv-x="623" 
d="M100 0q-35 0 -35 35v498q0 35 35 35h81q35 0 35 -35v-173h191v173q0 35 35 35h81q35 0 35 -35v-498q0 -35 -35 -35h-81q-35 0 -35 35v192h-191v-192q0 -35 -35 -35h-81z" />
    <glyph glyph-name="uni043E" unicode="&#x43e;" horiz-adv-x="642" 
d="M321 -11q-126 0 -202 80.5t-76 214.5t76 214.5t202 80.5q125 0 201.5 -80.5t76.5 -214.5t-76.5 -214.5t-201.5 -80.5zM321 124q57 0 90 40t33 120q0 81 -33.5 120.5t-89.5 39.5t-89 -39.5t-33 -120.5t33 -120.5t89 -39.5z" />
    <glyph glyph-name="uni043F" unicode="&#x43f;" horiz-adv-x="620" 
d="M100 0q-35 0 -35 35v498q0 35 35 35h419q35 0 35 -35v-498q0 -35 -35 -35h-80q-35 0 -35 35v403h-188v-403q0 -35 -35 -35h-81z" />
    <glyph glyph-name="uni0440" unicode="&#x440;" horiz-adv-x="642" 
d="M100 -202q-35 0 -35 35v700q0 35 35 35h73q35 0 35 -28v-28q74 66 165 66q101 0 163.5 -80.5t62.5 -213.5q0 -136 -63 -215t-163 -79q-94 0 -157 56v-213q0 -35 -35 -35h-81zM329 125q57 0 86 44.5t29 116.5q0 69 -28 113t-85 44q-46 0 -115 -60v-198q69 -60 113 -60z
" />
    <glyph glyph-name="uni0441" unicode="&#x441;" horiz-adv-x="573" 
d="M316 -11q-120 0 -196.5 81t-76.5 214q0 134 77 214.5t201 80.5q128 0 205 -88q10 -10 10 -22q0 -15 -15 -27l-52 -44q-10 -10 -22 -10q-13 0 -27 15q-41 41 -97 41q-57 0 -90.5 -41t-33.5 -122q0 -78 34 -117.5t91 -39.5q64 0 111 50q13 15 27 15q12 0 23 -12l48 -49
q12 -12 12 -26q0 -12 -11 -25q-44 -48 -95.5 -68t-122.5 -20z" />
    <glyph glyph-name="uni0442" unicode="&#x442;" horiz-adv-x="510" 
d="M215 0q-35 0 -35 35v403h-118q-35 0 -35 35v60q0 35 35 35h386q35 0 35 -35v-60q0 -35 -35 -35h-118v-403q0 -35 -35 -35h-80z" />
    <glyph glyph-name="uni0443" unicode="&#x443;" horiz-adv-x="567" 
d="M517 568q31 0 31 -24q0 -7 -3 -16l-208 -578q-30 -83 -80 -117.5t-152 -34.5q-29 0 -56 3q-31 4 -31 38v69q0 33 32 33q9 0 26.5 -1t24.5 -1q39 0 63 16t40 50l17 34l-197 488q-4 12 -4 16q0 25 32 25h82q30 0 40 -28l121 -327l103 326q9 29 39 29h80z" />
    <glyph glyph-name="uni0444" unicode="&#x444;" horiz-adv-x="722" 
d="M679 284q0 -113 -66.5 -188t-180.5 -94v-169q0 -35 -35 -35h-72q-35 0 -35 35v168q-114 19 -180.5 94.5t-66.5 188.5t66.5 188.5t180.5 94.5v154q0 35 35 35h72q35 0 35 -35v-155q114 -19 180.5 -94.5t66.5 -187.5zM194 284q0 -119 96 -148v296q-96 -29 -96 -148z
M432 136q96 29 96 148t-96 148v-296z" />
    <glyph glyph-name="uni0445" unicode="&#x445;" horiz-adv-x="603" 
d="M560 43q8 -11 8 -21q0 -22 -30 -22h-93q-28 0 -42 23l-105 158l-104 -158q-14 -23 -42 -23h-87q-30 0 -30 22q0 8 8 21l172 244l-167 238q-8 13 -8 21q0 22 30 22h93q28 0 42 -23l96 -147l96 147q14 23 42 23h86q30 0 30 -22q0 -8 -8 -21l-163 -233z" />
    <glyph glyph-name="uni0446" unicode="&#x446;" horiz-adv-x="623" 
d="M502 -125q-35 0 -35 35v90h-367q-35 0 -35 35v498q0 35 35 35h81q35 0 35 -35v-403h188v403q0 35 35 35h80q35 0 35 -35v-403h19q35 0 35 -35v-185q0 -35 -35 -35h-71z" />
    <glyph glyph-name="uni0447" unicode="&#x447;" horiz-adv-x="580" 
d="M399 0q-35 0 -35 35v180q-68 -34 -148 -34q-68 0 -112 39t-44 99v214q0 35 35 35h81q35 0 35 -35v-164q0 -44 57 -44q41 0 96 25v183q0 35 35 35h80q35 0 35 -35v-498q0 -35 -35 -35h-80z" />
    <glyph glyph-name="uni0448" unicode="&#x448;" horiz-adv-x="861" 
d="M100 0q-35 0 -35 35v498q0 35 35 35h81q35 0 35 -35v-403h140v403q0 35 35 35h80q35 0 35 -35v-403h140v403q0 35 35 35h80q35 0 35 -35v-498q0 -35 -35 -35h-661z" />
    <glyph glyph-name="uni0449" unicode="&#x449;" horiz-adv-x="864" 
d="M744 -125q-35 0 -35 35v90h-609q-35 0 -35 35v498q0 35 35 35h81q35 0 35 -35v-403h140v403q0 35 35 35h80q35 0 35 -35v-403h140v403q0 35 35 35h80q35 0 35 -35v-403h19q35 0 35 -35v-185q0 -35 -35 -35h-71z" />
    <glyph glyph-name="uni044A" unicode="&#x44a;" horiz-adv-x="616" 
d="M151 0q-35 0 -35 35v403h-62q-35 0 -35 35v60q0 35 35 35h176q35 0 35 -35v-148h107q96 0 151 -48t55 -146q0 -87 -52.5 -139t-159.5 -52h-215zM265 132h82q79 0 79 63q0 31 -19 48t-53 17h-89v-128z" />
    <glyph glyph-name="uni044B" unicode="&#x44b;" horiz-adv-x="806" 
d="M99 0q-35 0 -35 35v498q0 35 35 35h80q35 0 35 -35v-148h108q96 0 151 -48t55 -146q0 -87 -52.5 -139t-159.5 -52h-217zM625 0q-35 0 -35 35v498q0 35 35 35h80q35 0 35 -35v-498q0 -35 -35 -35h-80zM214 132h83q78 0 78 63q0 31 -19 48t-52 17h-90v-128z" />
    <glyph glyph-name="uni044C" unicode="&#x44c;" horiz-adv-x="566" 
d="M100 0q-35 0 -35 35v498q0 35 35 35h80q35 0 35 -35v-148h108q96 0 151 -48t55 -146q0 -87 -52.5 -139t-159.5 -52h-217zM215 132h83q78 0 78 63q0 31 -19 48t-52 17h-90v-128z" />
    <glyph glyph-name="uni044D" unicode="&#x44d;" horiz-adv-x="558" 
d="M242 -11q-127 0 -201 61q-13 12 -13 25q0 12 11 25l47 52q12 12 25 12q11 0 24 -9q46 -31 99 -31q49 0 82 28.5t41 84.5h-195q-35 0 -35 35v44q0 35 35 35h194q-9 46 -41.5 69.5t-80.5 23.5q-52 0 -88 -23q-14 -9 -25 -9q-12 0 -24 12l-47 51q-12 12 -12 25q0 14 15 24
q79 55 184 55q125 0 201.5 -76t76.5 -209q0 -137 -76 -221t-197 -84z" />
    <glyph glyph-name="uni044E" unicode="&#x44e;" horiz-adv-x="865" 
d="M550 -11q-114 0 -186.5 64t-82.5 174h-65v-192q0 -35 -35 -35h-81q-35 0 -35 35v498q0 35 35 35h81q35 0 35 -35v-173h68q18 102 89 160.5t177 58.5q123 0 197.5 -80.5t74.5 -214.5q0 -135 -74.5 -215t-197.5 -80zM550 124q55 0 86 39.5t31 120.5t-31.5 120.5t-85.5 39.5
t-85 -39.5t-31 -120.5t31 -120.5t85 -39.5z" />
    <glyph glyph-name="uni044F" unicode="&#x44f;" horiz-adv-x="579" 
d="M266 568h213q35 0 35 -35v-498q0 -35 -35 -35h-80q-35 0 -35 35v172h-76l-92 -182q-12 -25 -41 -25h-87q-30 0 -30 23q0 9 6 19l106 188q-103 52 -103 158q0 82 57 131t162 49zM364 324v119h-88q-38 0 -56 -17t-18 -43t16 -42.5t50 -16.5h96z" />
    <glyph glyph-name="uni0450" unicode="&#x450;" horiz-adv-x="617" 
d="M400 657q-12 -18 -28 -18q-10 0 -20 6l-157 88q-19 11 -19 27q0 8 7 20l24 39q11 18 26 18q11 0 22 -9l141 -116q15 -12 15 -27q0 -11 -7 -22zM321 -11q-126 0 -202 81.5t-76 213.5q0 131 72 213t197 82q65 0 115 -24.5t81 -68t48 -96t21 -114.5q2 -36 -35 -36h-348
q3 -62 42 -89t98 -27q61 0 115 42q14 11 25 11q13 0 25 -13l45 -50q12 -13 12 -25q0 -11 -9 -20q-89 -80 -226 -80zM196 347h232q-5 50 -35.5 78.5t-79.5 28.5q-48 0 -78.5 -28t-38.5 -79z" />
    <glyph glyph-name="uni0451" unicode="&#x451;" horiz-adv-x="617" 
d="M206 648q-30 0 -51.5 21.5t-21.5 51.5t21.5 51.5t51.5 21.5t51.5 -21.5t21.5 -51.5t-21.5 -51.5t-51.5 -21.5zM417 648q-30 0 -51.5 21.5t-21.5 51.5t21.5 51.5t51.5 21.5t51.5 -21.5t21.5 -51.5t-21.5 -51.5t-51.5 -21.5zM321 -11q-126 0 -202 81.5t-76 213.5
q0 131 72 213t197 82q65 0 115 -24.5t81 -68t48 -96t21 -114.5q2 -36 -35 -36h-348q3 -62 42 -89t98 -27q61 0 115 42q14 11 25 11q13 0 25 -13l45 -50q12 -13 12 -25q0 -11 -9 -20q-89 -80 -226 -80zM196 347h232q-5 50 -35.5 78.5t-79.5 28.5q-48 0 -78.5 -28t-38.5 -79z
" />
    <glyph glyph-name="uni0452" unicode="&#x452;" horiz-adv-x="643" 
d="M414 523q81 0 124.5 -47t43.5 -126v-334q0 -218 -210 -218q-59 0 -99 8q-27 4 -27 29q0 9 2 14l20 60q9 26 34 26q1 0 3.5 -0.5t4.5 -0.5q25 -4 50 -4q35 0 53.5 20.5t18.5 70.5v261q0 51 -15 73.5t-56 22.5q-61 0 -128 -45v-298q0 -35 -35 -35h-81q-35 0 -35 35v557h-44
q-35 0 -35 35v29q0 35 35 35h44v30q0 35 35 35h81q35 0 35 -35v-30h162q35 0 35 -35v-29q0 -35 -35 -35h-162v-125q88 56 181 56z" />
    <glyph glyph-name="uni0453" unicode="&#x453;" horiz-adv-x="474" 
d="M228 645q-11 -6 -19 -6q-17 0 -29 18l-4 6q-7 11 -7 22q0 15 15 27l141 116q12 9 23 9q16 0 26 -17l24 -40q6 -10 6 -20q0 -17 -19 -27zM100 0q-35 0 -35 35v498q0 35 35 35h320q35 0 35 -35v-60q0 -35 -35 -35h-204v-403q0 -35 -35 -35h-81z" />
    <glyph glyph-name="uni0454" unicode="&#x454;" horiz-adv-x="558" 
d="M316 -11q-122 0 -197.5 81t-75.5 214t77 214t201 81q105 0 184 -55q15 -11 15 -24t-12 -25l-48 -51q-12 -12 -24 -12t-25 9q-35 23 -87 23q-48 0 -81 -23.5t-42 -69.5h194q35 0 35 -35v-44q0 -35 -35 -35h-195q8 -56 41.5 -84.5t82.5 -28.5q53 0 99 31q12 9 24 9
q13 0 25 -13l46 -51q11 -13 11 -24q0 -15 -13 -25q-74 -62 -200 -62z" />
    <glyph glyph-name="uni0455" unicode="&#x455;" horiz-adv-x="533" 
d="M446 436q-12 -18 -28 -18q-7 0 -19 5q-69 32 -139 32q-28 0 -44 -11t-16 -26q0 -17 15 -27t53 -23l59 -20q88 -30 130 -69t42 -109q0 -88 -67 -134.5t-160 -46.5q-133 0 -222 63q-16 12 -16 26q0 10 8 23l30 46q10 16 26 16q12 0 23 -7q73 -45 148 -45q79 0 79 47
q0 19 -17 29.5t-70 28.5l-60 20q-77 26 -114.5 64.5t-37.5 106.5q0 69 54.5 120.5t168.5 51.5q100 0 191 -52q18 -10 18 -26q0 -11 -7 -22z" />
    <glyph glyph-name="uni0456" unicode="&#x456;" horiz-adv-x="282" 
d="M141 615q-35 0 -60 25t-25 60t25 60t60 25t60 -25t25 -60t-25 -60t-60 -25zM101 0q-35 0 -35 35v498q0 35 35 35h80q35 0 35 -35v-498q0 -35 -35 -35h-80z" />
    <glyph glyph-name="uni0457" unicode="&#x457;" horiz-adv-x="282" 
d="M35 648q-30 0 -51.5 21.5t-21.5 51.5t21.5 51.5t51.5 21.5t51.5 -21.5t21.5 -51.5t-21.5 -51.5t-51.5 -21.5zM246 648q-30 0 -51.5 21.5t-21.5 51.5t21.5 51.5t51.5 21.5t51.5 -21.5t21.5 -51.5t-21.5 -51.5t-51.5 -21.5zM101 0q-35 0 -35 35v498q0 35 35 35h80
q35 0 35 -35v-498q0 -35 -35 -35h-80z" />
    <glyph glyph-name="uni0458" unicode="&#x458;" horiz-adv-x="292" 
d="M151 615q-35 0 -60 25t-25 60t25 60t60 25t60 -25t25 -60t-25 -60t-60 -25zM18 -202q-70 0 -128 21q-22 7 -22 28q0 8 3 17l21 57q9 23 29 23q7 0 16 -3q36 -11 68 -11q36 0 53.5 20t17.5 71v512q0 35 35 35h80q35 0 35 -35v-517q0 -218 -208 -218z" />
    <glyph glyph-name="uni0459" unicode="&#x459;" horiz-adv-x="862" 
d="M620 385q96 0 150 -48t54 -146q0 -87 -52.5 -139t-157.5 -52h-172q-31 0 -40 29l-114 342l-116 -343q-9 -28 -40 -28h-81q-32 0 -32 25q0 7 3 15l180 500q10 28 40 28h96q30 0 40 -27l63 -156h179zM591 132q81 0 81 63q0 65 -73 65h-120l50 -128h62z" />
    <glyph glyph-name="uni045A" unicode="&#x45a;" horiz-adv-x="878" 
d="M100 0q-35 0 -35 35v498q0 35 35 35h81q35 0 35 -35v-161h162v161q0 35 35 35h80q35 0 35 -35v-160h106q96 0 151.5 -46.5t55.5 -141.5q0 -84 -52.5 -134.5t-158.5 -50.5h-217q-35 0 -35 35v209h-162v-209q0 -35 -35 -35h-81zM528 132h82q78 0 78 55q0 57 -71 57h-89
v-112z" />
    <glyph glyph-name="uni045B" unicode="&#x45b;" horiz-adv-x="645" 
d="M416 523q81 0 124.5 -47t43.5 -126v-315q0 -35 -35 -35h-80q-35 0 -35 35v247q0 51 -15 73.5t-56 22.5q-61 0 -128 -45v-298q0 -35 -35 -35h-81q-35 0 -35 35v557h-44q-35 0 -35 35v29q0 35 35 35h44v30q0 35 35 35h81q35 0 35 -35v-30h162q35 0 35 -35v-29
q0 -35 -35 -35h-162v-125q88 56 181 56z" />
    <glyph glyph-name="uni045C" unicode="&#x45c;" horiz-adv-x="583" 
d="M241 657l-4 6q-7 11 -7 22q0 15 15 27l141 116q12 9 23 9q16 0 26 -17l24 -40q6 -10 6 -20q0 -17 -19 -27l-157 -88q-11 -6 -20 -6q-16 0 -28 18zM551 42q7 -11 7 -20q0 -22 -30 -22h-95q-28 0 -42 23l-138 217l-37 -40v-165q0 -35 -35 -35h-81q-35 0 -35 35v498
q0 35 35 35h81q35 0 35 -35v-143l143 159q18 19 43 19h91q30 0 30 -20q0 -10 -11 -23l-160 -176q2 -2 3 -4z" />
    <glyph glyph-name="uni045D" unicode="&#x45d;" horiz-adv-x="623" 
d="M387 657q-12 -18 -28 -18q-9 0 -20 6l-157 88q-19 11 -19 27q0 8 7 20l24 39q10 18 26 18q12 0 22 -9l141 -116q15 -12 15 -27q0 -11 -7 -22zM100 0q-35 0 -35 35v498q0 35 35 35h79q35 0 35 -35v-284l190 296q14 23 42 23h77q35 0 35 -35v-498q0 -35 -35 -35h-78
q-35 0 -35 35v283l-193 -295q-14 -23 -42 -23h-75z" />
    <glyph glyph-name="uni045E" unicode="&#x45e;" horiz-adv-x="567" 
d="M290 646q-120 0 -157 120q-2 10 -2 13q0 22 26 31l5 2q10 2 13 2q18 0 33 -20q26 -31 82 -31q54 0 81 32q17 19 34 19q3 0 13 -2l5 -2q25 -8 25 -33q0 -11 -4 -20q-41 -111 -154 -111zM517 568q31 0 31 -24q0 -7 -3 -16l-208 -578q-30 -83 -80 -117.5t-152 -34.5
q-29 0 -56 3q-31 4 -31 38v69q0 33 32 33q9 0 26.5 -1t24.5 -1q39 0 63 16t40 50l17 34l-197 488q-4 12 -4 16q0 25 32 25h82q30 0 40 -28l121 -327l103 326q9 29 39 29h80z" />
    <glyph glyph-name="uni045F" unicode="&#x45f;" horiz-adv-x="620" 
d="M274 -125q-35 0 -35 35v90h-139q-35 0 -35 35v498q0 35 35 35h81q35 0 35 -35v-403h188v403q0 35 35 35h80q35 0 35 -35v-498q0 -35 -35 -35h-139v-90q0 -35 -35 -35h-71z" />
    <glyph glyph-name="uni0490" unicode="&#x490;" horiz-adv-x="569" 
d="M110 0q-35 0 -35 35v672q0 35 35 35h296v103q0 35 35 35h72q35 0 35 -35v-210q0 -35 -35 -35h-281v-565q0 -35 -35 -35h-87z" />
    <glyph glyph-name="uni0491" unicode="&#x491;" horiz-adv-x="474" 
d="M100 0q-35 0 -35 35v498q0 35 35 35h218v84q0 35 35 35h67q35 0 35 -35v-179q0 -35 -35 -35h-204v-403q0 -35 -35 -35h-81z" />
    <glyph glyph-name="uni0492" unicode="&#x492;" horiz-adv-x="569" 
d="M110 0q-35 0 -35 35v269h-36q-35 0 -35 35v28q0 35 35 35h36v305q0 35 35 35h403q35 0 35 -35v-72q0 -35 -35 -35h-281v-198h200q35 0 35 -35v-28q0 -35 -35 -35h-200v-269q0 -35 -35 -35h-87z" />
    <glyph glyph-name="uni0493" unicode="&#x493;" horiz-adv-x="479" 
d="M106 0q-35 0 -35 35v191h-32q-35 0 -35 35v29q0 35 34 35h33v208q0 35 35 35h320q35 0 35 -35v-60q0 -35 -35 -35h-205v-113h154q35 0 35 -35v-29q0 -35 -35 -35h-154v-191q0 -35 -35 -35h-80z" />
    <glyph glyph-name="uni049A" unicode="&#x49a;" horiz-adv-x="695" 
d="M661 142q35 0 35 -35v-217q0 -35 -35 -35h-77q-35 0 -35 35v110h-14q-27 0 -42 23l-194 290l-67 -78v-200q0 -35 -35 -35h-87q-35 0 -35 35v672q0 35 35 35h87q35 0 35 -35v-262l237 277q17 20 43 20h100q30 0 30 -20q0 -12 -10 -23l-228 -264l197 -293h60z" />
    <glyph glyph-name="uni049B" unicode="&#x49b;" horiz-adv-x="583" 
d="M542 130q35 0 35 -35v-185q0 -35 -35 -35h-71q-35 0 -35 35v90h-3q-28 0 -42 23l-138 217l-37 -40v-165q0 -35 -35 -35h-81q-35 0 -35 35v498q0 35 35 35h81q35 0 35 -35v-143l143 159q18 19 43 19h91q30 0 30 -20q0 -10 -11 -23l-160 -176q2 -2 3 -4l139 -215h48z" />
    <glyph glyph-name="uni04A2" unicode="&#x4a2;" horiz-adv-x="726" 
d="M687 142q35 0 35 -35v-217q0 -35 -35 -35h-76q-35 0 -35 35v110h-49q-35 0 -35 35v287h-260v-287q0 -35 -35 -35h-87q-35 0 -35 35v672q0 35 35 35h87q35 0 35 -35v-243h260v243q0 35 35 35h86q35 0 35 -35v-565h39z" />
    <glyph glyph-name="uni04A3" unicode="&#x4a3;" horiz-adv-x="626" 
d="M587 130q35 0 35 -35v-185q0 -35 -35 -35h-71q-35 0 -35 35v90h-39q-35 0 -35 35v192h-191v-192q0 -35 -35 -35h-81q-35 0 -35 35v498q0 35 35 35h81q35 0 35 -35v-173h191v173q0 35 35 35h81q35 0 35 -35v-403h29z" />
    <glyph glyph-name="uni04AE" unicode="&#x4ae;" horiz-adv-x="665" 
d="M610 742q30 0 30 -23q0 -10 -5 -19l-223 -418v-247q0 -35 -35 -35h-83q-35 0 -35 35v242l-228 423q-6 10 -6 20q0 22 30 22h96q28 0 41 -25l142 -282l144 282q12 25 41 25h91z" />
    <glyph glyph-name="uni04AF" unicode="&#x4af;" horiz-adv-x="566" 
d="M252 -202q-35 0 -35 35v223l-192 471q-4 12 -4 17q0 24 31 24h81q30 0 40 -28l119 -313l105 312q9 29 40 29h79q31 0 31 -24q0 -7 -3 -16l-177 -483v-212q0 -35 -35 -35h-80z" />
    <glyph glyph-name="uni04B0" unicode="&#x4b0;" horiz-adv-x="665" 
d="M635 700l-223 -418v-17h145q35 0 35 -35v-28q0 -35 -35 -35h-145v-132q0 -35 -35 -35h-83q-35 0 -35 35v132h-147q-35 0 -35 35v28q0 35 35 35h147v12l-228 423q-6 10 -6 20q0 22 30 22h96q28 0 41 -25l142 -282l144 282q12 25 41 25h91q30 0 30 -23q0 -10 -5 -19z" />
    <glyph glyph-name="uni04B1" unicode="&#x4b1;" horiz-adv-x="566" 
d="M252 -202q-35 0 -35 35v102h-101q-35 0 -35 35v29q0 35 35 35h101v22l-192 471q-4 12 -4 17q0 24 31 24h81q30 0 40 -28l119 -313l105 312q9 29 40 29h79q31 0 31 -24q0 -7 -3 -16l-177 -483v-11h101q35 0 35 -35v-29q0 -35 -35 -35h-101v-102q0 -35 -35 -35h-80z" />
    </font>
</defs>
</svg>
