<?xml version="1.0" encoding="UTF-8"?>
<svg width="16px" height="15px" viewBox="0 0 16 15" version="1.1" xmlns="http://www.w3.org/2000/svg" xmlns:xlink="http://www.w3.org/1999/xlink">
    <!-- Generator: Sketch 64 (93537) - https://sketch.com -->
    <title>activity-audio</title>
    <desc>Created with Sketch.</desc>
    <g id="activity-audio" stroke="none" stroke-width="1" fill="none" fill-rule="evenodd">
        <g id="volumen" fill="#000000" fill-rule="nonzero">
            <path d="M9.29813333,0.0859 C9.11253333,-0.00263333333 8.89386667,0.0208333333 8.73386667,0.1499 L3.5456,4.3003 L1.06666667,4.3003 C0.478933333,4.3003 0,4.77923333 0,5.36696667 L0,9.63363333 C0,10.2224333 0.478933333,10.7003 1.06666667,10.7003 L3.5456,10.7003 L8.7328,14.8507 C8.82986667,14.9275 8.94826667,14.9669667 9.06666667,14.9669667 C9.1456,14.9669667 9.22453333,14.9488333 9.29813333,14.9136333 C9.48266667,14.8251 9.6,14.6384333 9.6,14.4336333 L9.6,0.566966667 C9.6,0.362166667 9.48266667,0.1755 9.29813333,0.0859 Z" id="Path"></path>
            <path d="M12.2997333,3.72856667 C12.0896,3.52163333 11.7525333,3.52483333 11.5456,3.73283333 C11.3386667,3.94296667 11.3408,4.28003333 11.5498667,4.48803333 C12.3562667,5.28376667 12.8,6.35363333 12.8,7.5003 C12.8,8.64696667 12.3562667,9.71683333 11.5498667,10.5125667 C11.3408,10.7184333 11.3386667,11.0565667 11.5456,11.2667 C11.6501333,11.3723 11.7877333,11.4245667 11.9242667,11.4245667 C12.0597333,11.4245667 12.1952,11.3733667 12.2997333,11.2699 C13.3109333,10.2747 13.8666667,8.93496667 13.8666667,7.5003 C13.8666667,6.06563333 13.3109333,4.7259 12.2997333,3.72856667 Z" id="Path"></path>
            <path d="M13.8048,2.22563333 C13.5946667,2.01763333 13.2576,2.01976667 13.0496,2.22883333 C12.8426667,2.4379 12.8448,2.77603333 13.0528,2.98296667 C14.2656,4.1851 14.9333333,5.78936667 14.9333333,7.5003 C14.9333333,9.21123333 14.2656,10.8144333 13.0528,12.0165667 C12.8448,12.2245667 12.8426667,12.5627 13.0496,12.7717667 C13.1552,12.8763 13.2917333,12.9285667 13.4282667,12.9285667 C13.5637333,12.9285667 13.7002667,12.8773667 13.8048,12.7739 C15.2213333,11.3712333 16,9.49816667 16,7.5003 C16,5.50243333 15.2213333,3.62936667 13.8048,2.22563333 Z" id="Path"></path>
        </g>
    </g>
</svg>